<?xml version="1.0" encoding="UTF-8"?>
<svg id="Layer_2" xmlns="http://www.w3.org/2000/svg" version="1.1" viewBox="0 0 93 255.1">
  <!-- Generator: Adobe Illustrator 29.8.1, SVG Export Plug-In . SVG Version: 2.1.1 Build 2)  -->
  <defs>
    <style>
      .st0 {
        fill: none;
        stroke: #fff;
        stroke-miterlimit: 10;
        stroke-width: .5px;
      }
    </style>
  </defs>
  <g id="Layer_1-2">
    <g id="cable">
      <path id="cableline" class="st0" d="M85.5,235.9h-3.7v-85.5h0v-.2s0-78.8,0-78.8c0-7.2-5.9-13.1-13.1-13.1h-7.4c-7.2,0-13.1,5.9-13.1,13.1v24.9c0,8.6-6.7,15.9-15.2,16.7h0s-.3,0-.3,0h-15.9C7.5,113,0,105.5,0,96.3V0h3.7v96.3c0,7.2,5.9,13.1,13.1,13.1h14.7c7.2,0,13.1-5.9,13.1-13.1v-24.9c0-9.2,7.5-16.8,16.8-16.8h7.4c9.2,0,16.8,7.5,16.8,16.8v22.4h.1v142.2h0ZM82.3,235.4h2.7V94.2h0s0-.2,0-.2v-22.6c0-9-7.3-16.3-16.3-16.3h-7.4c-9,0-16.3,7.3-16.3,16.3v24.9c0,7.5-6.1,13.6-13.6,13.6h-14.7c-7.5,0-13.6-6.1-13.6-13.6V.5H.5v95.8c0,9,7.3,16.3,16.3,16.3h15.9c8.4-.7,15-7.8,15-16.3v-24.9c0-7.5,6.1-13.6,13.6-13.6h7.4c7.5,0,13.6,6.1,13.6,13.6v78.5h.1s0,85.6,0,85.6h0Z"/>
      <path id="cablesq" class="st0" d="M93,255.1h-18.5v-19c0-4.6,2.6-8.3,5.9-8.3h6.8c3.2,0,5.9,3.7,5.9,8.3v19h0ZM75,254.6h17.5v-18.5c0-4.3-2.4-7.8-5.4-7.8h-6.8c-3,0-5.4,3.5-5.4,7.8v18.5h0Z"/>
    </g>
  </g>
</svg>