<?xml version="1.0" encoding="UTF-8"?>
<svg id="Layer_2" data-name="Layer 2" xmlns="http://www.w3.org/2000/svg" xmlns:xlink="http://www.w3.org/1999/xlink" viewBox="0 0 1847.19 1432.9">
  <defs>
    <style>
      .cls-1 {
        fill: rgba(217, 217, 217, .2);
      }

      .cls-2 {
        fill: rgba(255, 255, 255, .4);
      }

      .cls-3 {
        fill: #fff;
      }

      .cls-4 {
        opacity: .25;
      }

      .cls-5, .cls-6, .cls-7 {
        fill: none;
      }

      .cls-5, .cls-7 {
        stroke: #fff;
        stroke-miterlimit: 10;
      }

      .cls-6 {
        stroke: rgba(255, 255, 255, .2);
      }

      .cls-8 {
        fill: #d9d9d9;
        isolation: isolate;
        opacity: .4;
      }

      .cls-7 {
        stroke-width: 2px;
      }

      .cls-9 {
        fill: rgba(255, 255, 255, .2);
      }

      .cls-10 {
        fill: url(#linear-gradient);
      }
    
/* === Variation B: preserve original colors, separate rotations with shared center === */
#dots {
  --offset: 0deg;
  transform-origin: 708.1px 724.8px;
  transform-box: view-box;
  transform: rotate(var(--offset));
  animation: spinDots 48s linear infinite;
}
#text {
  --offset: 2deg;
  transform-origin: 708.1px 724.8px;
  transform-box: view-box;
  transform: rotate(var(--offset));
  animation: spinText 48s linear infinite;
}
@keyframes spinDots { to { transform: rotate(calc(var(--offset) + 360deg)); } }
@keyframes spinText { to { transform: rotate(calc(var(--offset) + 360deg)); } }
</style>
    <linearGradient id="linear-gradient" x1="1060.58" y1="1118.67" x2="1101.58" y2="1118.67" gradientUnits="userSpaceOnUse">
      <stop offset="0" stop-color="#fff"/>
      <stop offset="1" stop-color="#fff"/>
    </linearGradient>
  </defs>
  <g id="Layer_1-2" data-name="Layer 1">
    <g id="dots">
      <circle class="cls-9" cx="701.39" cy="16.43" r="9.87"/>
      <g>
        <circle class="cls-1" cx="295.14" cy="1047.7" r="9.87"/>
        <circle class="cls-1" cx="934.95" cy="1342.11" r="9.87"/>
        <circle class="cls-1" cx="122.44" cy="828.94" r="9.87"/>
        <circle class="cls-1" cx="323.1" cy="682.56" r="6.58"/>
        <circle class="cls-1" cx="1150.41" cy="601.97" r="6.58"/>
        <circle class="cls-1" cx="686.59" cy="335.52" r="6.58"/>
        <circle class="cls-1" cx="329.68" cy="1259.87" r="6.58"/>
        <circle class="cls-1" cx="972.78" cy="1097.04" r="6.58"/>
        <circle class="cls-1" cx="655.34" cy="1110.2" r="6.58"/>
        <circle class="cls-1" cx="216.19" cy="542.75" r="9.87"/>
        <circle class="cls-9" cx="1306.67" cy="449" r="9.87"/>
      </g>
    </g>
    <g id="text">
      <path class="cls-2" d="M785.28,277.62l-2.14,13.65-8.22-1.32v-1.48c.16,0,6.91.99,6.91.99l.66-4.61-6.09-.99v-1.48c.16,0,6.25.99,6.25.99l.99-6.09,1.64.33h0ZM774.75,276.14l-1.81,13.65-8.39-1.15v-1.48c.16,0,6.91.82,6.91.82l.66-4.61-6.25-.82v-1.48c.16,0,6.41.82,6.41.82l.66-4.61-6.91-.82v-1.48c.16,0,8.72,1.15,8.72,1.15h0ZM763.73,274.66l-1.48,13.82-8.39-.82v-1.48l6.91.66.49-4.61-6.25-.66v-1.48l6.41.66.49-4.61-6.91-.66v-1.48l8.72.82v-.16ZM752.71,273.51l-1.15,13.82h-1.64l.99-12.34-6.91-.49v-1.48l8.72.66v-.16ZM732.64,272.03c.99,0,1.97.33,2.63.82.82.49,1.32,1.15,1.81,1.97.33.82.49,1.81.49,3.13v3.13c-.16,1.81-.82,3.13-1.81,4.11s-2.3,1.32-3.95,1.32-2.8-.49-3.62-1.48c-.82-.99-1.15-2.14-1.15-3.62h1.64c0,.82,0,1.32.33,1.97.16.49.49.99.99,1.32.49.33,1.15.49,1.97.49,1.15,0,2.14-.33,2.8-.99.66-.66.99-1.64,1.15-2.96v-3.29c.16-1.32,0-2.3-.66-3.13-.66-.66-1.48-1.15-2.63-1.15s-1.97.16-2.63.82-.82,1.48-.99,2.63v.33l4.11.16v1.48l-5.92-.33.33-6.58h1.48v1.64h.33c0-.33.33-.49.66-.82.33-.33.66-.49,1.15-.66.49,0,.99-.16,1.81-.16l-.33-.16ZM719.32,271.53c1.64,0,2.96.49,3.95,1.48.99.99,1.48,2.3,1.32,4.28v3.13c0,1.81-.66,3.29-1.64,4.11-.99.99-2.3,1.48-3.95,1.32-1.64,0-2.96-.49-3.95-1.48-.99-.99-1.48-2.3-1.48-4.11v-3.13c0-1.81.66-3.29,1.64-4.11.99-.99,2.3-1.32,3.95-1.32l.16-.16ZM719.32,273.01c-1.15,0-2.14.33-2.8.99-.66.66-.99,1.64-.99,2.96v3.29c0,1.32.16,2.3.82,2.96.66.66,1.64,1.15,2.8,1.15s2.14-.33,2.8-.99c.66-.66.99-1.64.99-2.96v-3.29c0-1.32-.16-2.3-.82-2.96-.66-.66-1.48-1.15-2.8-1.15ZM706.16,271.53c1.64,0,2.96.49,3.95,1.32.99.99,1.48,2.3,1.48,4.11v3.13c0,1.81-.49,3.29-1.32,4.11-.99.99-2.3,1.48-3.95,1.48s-2.96-.49-3.95-1.48c-.99-.99-1.48-2.3-1.48-4.11v-3.13c0-1.81.49-3.29,1.48-4.28s2.3-1.48,3.95-1.48l-.16.33ZM706.16,273.01c-1.15,0-2.14.33-2.8,1.15-.66.66-.99,1.81-.99,2.96v3.29c0,1.32.33,2.3.99,2.96.66.66,1.64.99,2.8.99s2.14-.33,2.8-1.15c.66-.66.99-1.64.99-2.96v-3.29c0-1.32-.33-2.3-.99-2.96-.66-.66-1.64-.99-2.8-.99ZM699.09,271.86v1.48h-1.81l.49,10.86h1.97v1.48h-5.43c-1.81.33-3.29,0-4.28-.99-.99-.82-1.64-2.3-1.64-4.11v-2.63c-.16-1.97.33-3.29,1.15-4.28.99-.99,2.3-1.48,4.11-1.48h5.43v-.33ZM695.64,273.51h-1.81c-1.32,0-2.3.49-2.96,1.15s-.99,1.64-.82,3.13v2.63c0,1.48.49,2.47,1.32,2.96.66.66,1.81.82,3.13.82h1.81l-.49-10.86-.16.16ZM675.74,272.85c.99,0,1.97,0,2.8.33s1.48.82,1.97,1.48c.49.66.82,1.64.82,2.63v.49h-1.64v-.49c0-1.15-.49-1.97-1.32-2.47-.66-.49-1.64-.66-2.63-.66-1.15,0-1.81.33-2.47.99-.49.49-.82,1.15-.66,1.97,0,.49.16.99.49,1.15.33.33.66.49,1.15.66.49,0,.99.33,1.64.33h.99c.82.33,1.48.49,2.14.82s1.15.66,1.48.99c.33.49.66,1.15.66,1.81,0,.82,0,1.48-.49,1.97-.33.66-.82,1.15-1.48,1.48s-1.48.49-2.47.66c-.99,0-1.81,0-2.47-.33-.82-.33-1.32-.66-1.81-1.32-.49-.66-.82-1.32-.82-2.3v-.82h1.64v.82c0,.66.33,1.15.66,1.64.33.33.66.66,1.15.82.49,0,.99.16,1.64.16.99,0,1.64-.33,2.14-.82s.82-.99.66-1.81c0-.49-.16-.82-.49-1.15-.33-.33-.66-.49-.99-.66-.49,0-.99-.33-1.64-.33h-.99c-.82-.33-1.48-.49-2.14-.66-.66-.16-1.15-.66-1.64-1.15s-.66-1.15-.66-1.97,0-1.48.49-2.14.82-1.15,1.64-1.48c.66-.33,1.64-.66,2.63-.66h0ZM663.24,274c1.64-.16,2.96,0,4.11.99,1.15.82,1.64,2.14,1.81,3.95l.33,3.13c.16,1.81,0,3.29-.99,4.28-.82.99-2.14,1.64-3.78,1.81s-2.96-.16-4.11-.99-1.64-2.14-1.97-3.95l-.33-3.13c-.16-1.81,0-3.29.99-4.28.82-.99,2.14-1.64,3.78-1.81h.16ZM663.4,275.48c-1.15,0-2.14.66-2.63,1.32-.66.82-.82,1.81-.66,3.13l.33,3.29c0,1.32.49,2.3,1.32,2.8.66.66,1.64.99,2.96.82,1.15,0,1.97-.66,2.63-1.32.66-.82.82-1.81.66-3.13l-.33-3.29c0-1.32-.49-2.3-1.32-2.96-.66-.66-1.64-.82-2.8-.82l-.16.16ZM650.24,275.65c.99,0,1.97,0,2.8.16.82.33,1.48.66,1.97,1.32.49.66.82,1.48.99,2.63l1.15,9.05h-1.64c0,.16-1.15-8.88-1.15-8.88,0-1.15-.49-1.97-1.32-2.47-.66-.49-1.48-.66-2.63-.49-1.15,0-1.81.49-2.47,1.15-.49.66-.66,1.48-.49,2.63l1.15,9.21h-1.64c0,.16-1.15-8.88-1.15-8.88,0-.99,0-1.97.33-2.8s.82-1.32,1.64-1.81c.66-.49,1.64-.82,2.63-.99l-.16.16ZM642.18,276.96l2.3,13.65-3.13.49-6.74-11.84h-.33l2.14,12.66-1.64.33-2.3-13.65,3.13-.49,6.74,11.84h.33l-2.14-12.66,1.64-.33ZM629.85,279.1l.33,1.48-1.97.33,2.14,10.69,1.97-.33.33,1.48-5.26.99c-1.81.33-3.29.16-4.44-.49-1.15-.66-1.97-1.97-2.3-3.95l-.49-2.47c-.33-1.81,0-3.45.66-4.44.82-1.15,2.14-1.81,3.78-2.14l5.26-.99v-.16ZM626.56,281.24l-1.81.33c-1.32.33-2.3.82-2.8,1.48-.49.82-.66,1.81-.49,3.13l.49,2.63c.33,1.32.82,2.3,1.64,2.8s1.81.66,3.13.33l1.81-.33-2.14-10.53.16.16ZM611.43,282.72l3.13,13.49-8.06,1.97-.33-1.48,6.58-1.48-.99-4.44-5.92,1.48-.33-1.48,5.92-1.48-1.48-6.09,1.64-.33-.16-.16ZM601.06,285.19l3.45,13.32-8.22,2.14-.33-1.48,6.58-1.64-1.15-4.44-6.09,1.64-.33-1.48,6.09-1.64-1.15-4.61-6.74,1.81-.33-1.48,8.39-2.14h-.16ZM590.37,288.15l3.78,13.32-8.22,2.3-.33-1.48,6.58-1.81-1.32-4.44-6.09,1.81-.49-1.48,6.09-1.81-1.32-4.44-6.74,1.97-.49-1.48,8.22-2.3.33-.16ZM579.68,291.11l4.11,13.16-1.64.49-3.62-11.68-6.74,2.14-.49-1.48,8.22-2.63h.16ZM560.44,297.19c.99-.33,1.97-.49,2.8-.33.82,0,1.64.49,2.3,1.15s1.32,1.48,1.64,2.63l.99,2.96c.66,1.64.66,3.13,0,4.44-.66,1.15-1.64,2.14-3.29,2.63-1.48.49-2.8.49-3.95,0-1.15-.49-1.97-1.48-2.47-2.96h0l1.48-.66h0c.16.82.49,1.32.99,1.64.33.33.82.66,1.48.82.49,0,1.15,0,1.97-.16,1.15-.33,1.81-.99,2.3-1.97.33-.82.33-1.97,0-3.13l-1.15-3.13c-.49-1.15-1.15-1.97-1.97-2.47s-1.81-.49-2.96,0c-1.15.33-1.81.99-2.14,1.81-.33.82-.33,1.64,0,2.8v.33l4.11-1.32.49,1.32-5.43,1.97-2.14-6.25,1.48-.49.49,1.48h.33c0-.49,0-.82.33-1.15,0-.33.49-.66.82-.99.33-.33.82-.66,1.48-.82v-.16ZM547.94,301.8c1.48-.66,2.96-.66,4.28,0,1.32.49,2.14,1.64,2.8,3.45l1.15,2.96c.66,1.64.66,3.13,0,4.44-.49,1.32-1.64,2.14-3.13,2.8s-2.96.66-4.28,0c-1.32-.49-2.3-1.64-2.96-3.29l-1.15-2.96c-.66-1.64-.66-3.13,0-4.44.49-1.32,1.64-2.14,3.13-2.8l.16-.16ZM548.6,303.11c-1.15.49-1.81,1.15-2.14,1.97-.33.99-.33,1.97.16,3.13l1.15,3.13c.49,1.15,1.15,1.97,1.97,2.47s1.81.49,2.96,0c1.15-.49,1.81-1.15,2.14-1.97.33-.82.33-1.97,0-3.13l-1.15-3.13c-.49-1.15-1.15-1.97-1.97-2.47s-1.81-.49-2.96,0h-.16ZM535.77,306.73c1.48-.66,2.96-.66,4.11-.16,1.32.49,2.3,1.64,2.96,3.29l1.15,2.96c.66,1.64.82,3.13.33,4.44s-1.64,2.3-3.13,2.8c-1.48.66-2.96.66-4.28.16-1.32-.49-2.3-1.64-2.96-3.29l-1.15-2.96c-.66-1.64-.82-3.13-.33-4.44s1.48-2.14,3.13-2.8h.16ZM536.26,308.05c-1.15.49-1.81,1.15-2.14,2.14-.33.99-.16,1.97.33,3.13l1.32,2.96c.49,1.15,1.15,1.97,2.14,2.3.82.49,1.81.33,2.96,0,1.15-.49,1.81-1.15,2.14-2.14.33-.99.33-1.97-.16-3.13l-1.32-2.96c-.49-1.15-1.15-1.97-2.14-2.3-.82-.33-1.81-.33-2.96,0h-.16ZM529.35,309.69l.66,1.32-1.81.82,4.44,9.87,1.81-.82.66,1.32-4.93,2.3c-1.64.82-3.13.99-4.44.49-1.32-.49-2.3-1.48-3.13-3.29l-.99-2.3c-.82-1.81-.99-3.29-.33-4.44.49-1.32,1.64-2.3,3.29-2.96l4.93-2.3h-.16ZM526.72,312.65l-1.64.82c-1.15.49-1.97,1.32-2.3,2.14-.33.82-.16,1.97.33,3.29l1.15,2.47c.66,1.32,1.32,2.14,2.14,2.3.82.33,1.97.16,3.13-.33l1.64-.82-4.44-9.87ZM508.13,319.4c.82-.49,1.81-.66,2.63-.66s1.64,0,2.47.66c.66.49,1.32,1.15,1.81,2.14v.33c.16,0-1.32.66-1.32.66v-.33c-.66-.99-1.32-1.64-2.3-1.81-.82-.16-1.81,0-2.63.49-.99.49-1.64,1.15-1.81,1.81-.33.66-.33,1.32,0,1.97.16.49.49.82.82.99.33,0,.82.16,1.32.16s.99,0,1.64-.33h.99c.82-.33,1.48-.49,2.3-.49.66,0,1.32,0,1.81.33.49.33.99.82,1.32,1.48.33.66.49,1.32.33,1.97,0,.66-.33,1.32-.82,1.97s-1.15,1.15-1.97,1.48c-.82.49-1.64.66-2.47.66s-1.48,0-2.14-.49c-.66-.33-1.15-.99-1.64-1.81l-.33-.66,1.48-.66.33.66c.33.66.66.99,1.15,1.32.49.16.99.33,1.48.33s.99-.16,1.64-.49c.82-.33,1.32-.99,1.64-1.48.33-.66.33-1.15,0-1.81-.16-.49-.49-.66-.82-.82-.33,0-.82-.16-1.32-.16s-.99,0-1.64.33h-.99c-.82.49-1.48.49-2.3.49-.66,0-1.32,0-1.97-.33-.49-.33-.99-.82-1.32-1.48-.33-.66-.49-1.48-.33-2.14,0-.66.33-1.48.99-1.97.49-.66,1.15-1.15,2.14-1.64l-.16-.66ZM496.95,325.32c1.48-.82,2.8-.99,4.11-.66,1.32.33,2.47,1.32,3.29,2.96l1.48,2.8c.82,1.64,1.15,3.13.66,4.44-.49,1.32-1.32,2.3-2.8,3.13-1.48.82-2.8.99-4.11.66-1.32-.33-2.47-1.32-3.29-2.96l-1.48-2.8c-.82-1.64-1.15-3.13-.66-4.44.33-1.32,1.32-2.3,2.8-3.13ZM497.77,326.47c-.99.49-1.64,1.32-1.97,2.3-.16.99,0,1.97.49,3.13l1.48,2.96c.66,1.15,1.32,1.81,2.3,2.14s1.97.16,2.96-.33c.99-.49,1.64-1.32,1.97-2.3.16-.99,0-1.97-.49-3.13l-1.48-2.96c-.66-1.15-1.32-1.81-2.3-2.14s-1.97-.16-2.96.33ZM485.44,331.57c.82-.49,1.81-.82,2.63-.82s1.64,0,2.3.49,1.32,1.15,1.97,1.97l4.61,7.89-1.48.82-4.61-8.06c-.49-.99-1.32-1.64-1.97-1.81-.82-.16-1.64,0-2.63.49s-1.48,1.15-1.81,1.97c-.16.82,0,1.64.49,2.63l4.61,8.06-1.48.82-4.61-7.89c-.49-.99-.82-1.81-.82-2.63s.33-1.64.82-2.3,1.15-1.32,1.97-1.81v.16ZM478.53,336.01l7.24,11.84-2.8,1.64-10.86-8.39h-.16l6.74,11.02-1.32.82-7.24-11.84,2.8-1.64,10.86,8.39h.16l-6.74-11.02,1.48-.82h-.16ZM468,342.59l.82,1.32-1.64.99,5.92,9.05,1.64-.99.82,1.32-4.44,2.96c-1.48.99-2.96,1.32-4.28,1.15-1.32-.16-2.47-1.15-3.62-2.8l-1.48-2.14c-.99-1.64-1.48-3.13-1.15-4.44.33-1.32,1.32-2.47,2.8-3.45l4.44-2.96h.16ZM465.7,345.71l-1.48.99c-1.15.66-1.81,1.48-1.97,2.47s0,1.97.82,3.13l1.48,2.3c.82,1.15,1.64,1.81,2.47,1.97.99.16,1.97,0,3.13-.82l1.48-.99-5.92-9.05h0ZM452.38,352.95l8.06,11.35-6.74,4.77-.82-1.15,5.43-3.95-2.63-3.78-5.1,3.62-.82-1.15,5.1-3.62-3.62-5.1,1.32-.99h-.16ZM443.66,359.2l8.22,11.02-6.74,5.1-.82-1.15,5.43-4.11-2.8-3.78-5.1,3.78-.82-1.15,5.1-3.78-2.8-3.78-5.59,4.11-.82-1.15,6.91-5.1h-.16ZM434.78,365.78l8.55,10.86-6.74,5.26-.99-1.15,5.43-4.28-2.8-3.62-4.93,3.95-.99-1.15,4.93-3.95-2.96-3.62-5.43,4.28-.99-1.15,6.74-5.26.16-.16ZM426.06,372.69l8.72,10.69-1.32.99-7.89-9.54-5.43,4.44-.99-1.15,6.74-5.43h.16ZM410.44,385.52c.82-.66,1.64-1.15,2.47-1.32s1.81,0,2.63.16c.82.33,1.64.99,2.47,1.81l2.14,2.3c1.15,1.32,1.81,2.8,1.64,4.11,0,1.32-.82,2.63-1.97,3.62-1.15,1.15-2.47,1.64-3.62,1.48-1.32,0-2.3-.66-3.29-1.81h0l1.15-1.15h0c.49.66.99.99,1.48,1.15.49.16.99.33,1.64.16.49,0,1.15-.49,1.81-.99.82-.82,1.32-1.64,1.32-2.63s-.33-1.97-1.32-2.96l-2.14-2.47c-.82-.99-1.81-1.48-2.8-1.64-.99,0-1.81.33-2.8.99-.82.82-1.32,1.64-1.32,2.47s.33,1.64,1.15,2.47v.33c.16,0,3.29-2.8,3.29-2.8l.99.99-4.28,3.78-4.28-4.93,1.15-.99.99,1.15h.16v-1.15c0-.33,0-.82.33-1.15.16-.49.66-.82,1.15-1.32l-.16.33ZM400.73,394.4c1.15-1.15,2.47-1.64,3.78-1.64s2.63.66,3.95,1.97l2.14,2.3c1.32,1.32,1.81,2.63,1.81,4.11,0,1.32-.66,2.63-1.81,3.78-1.15,1.15-2.47,1.64-3.78,1.64s-2.63-.66-3.95-1.97l-2.14-2.3c-1.32-1.32-1.81-2.63-1.81-4.11,0-1.32.66-2.63,1.97-3.78h-.16ZM401.72,395.55c-.82.82-1.32,1.64-1.32,2.63s.49,1.97,1.32,2.8l2.3,2.47c.82.99,1.81,1.48,2.8,1.48s1.97-.33,2.8-1.15,1.32-1.64,1.32-2.63-.49-1.97-1.32-2.8l-2.3-2.3c-.82-.99-1.81-1.48-2.8-1.48s-1.81.33-2.8,1.15v-.16ZM391.19,403.61c1.15-1.15,2.47-1.81,3.78-1.81s2.63.66,3.95,1.97l2.3,2.3c1.32,1.32,1.97,2.63,1.97,3.95s-.66,2.63-1.81,3.78c-1.15,1.15-2.47,1.81-3.78,1.81s-2.63-.66-3.95-1.97l-2.3-2.3c-1.32-1.32-1.97-2.63-1.97-3.95s.66-2.63,1.81-3.78ZM392.34,404.76c-.82.82-1.32,1.81-1.15,2.8,0,.99.49,1.97,1.48,2.8l2.3,2.3c.82.99,1.81,1.32,2.8,1.48.99,0,1.81-.33,2.8-1.15.82-.82,1.32-1.81,1.15-2.8,0-.99-.49-1.97-1.48-2.8l-2.3-2.3c-.82-.99-1.81-1.32-2.8-1.48-.99,0-1.81.33-2.63,1.15h-.16ZM386.42,408.87l1.15.99-1.32,1.48,7.89,7.57,1.32-1.48,1.15.99-3.78,3.95c-1.32,1.32-2.63,1.97-3.95,2.14-1.32,0-2.8-.49-4.11-1.81l-1.81-1.81c-1.32-1.32-2.14-2.63-1.97-3.95,0-1.32.66-2.63,1.97-3.95l3.78-3.95-.33-.16ZM385.11,412.49l-1.32,1.32c-.99.99-1.32,1.97-1.32,2.96s.49,1.97,1.48,2.8l1.97,1.81c.99.99,1.97,1.48,2.96,1.32.99,0,1.81-.49,2.8-1.48l1.32-1.32-7.89-7.4h0ZM370.3,425.81c.66-.82,1.32-1.32,2.14-1.64s1.64-.49,2.47-.33c.82,0,1.64.49,2.47,1.32l.33.33-1.15,1.15-.33-.33c-.82-.82-1.64-.99-2.63-.99-.82,0-1.64.66-2.3,1.32-.66.82-1.15,1.64-1.15,2.3,0,.82.33,1.32.82,1.81.33.33.82.49,1.15.49s.82,0,1.32-.33c.49-.16.99-.49,1.48-.82l.82-.66c.66-.49,1.32-.82,1.97-1.15s1.32-.33,1.81-.33c.66,0,1.15.33,1.81.82.66.49.99,1.15,1.15,1.81.16.66,0,1.32,0,2.14-.16.66-.66,1.48-1.32,2.14-.66.66-1.32,1.15-1.97,1.48-.66.33-1.48.49-2.3.33-.82,0-1.48-.49-2.14-.99l-.66-.49,1.15-1.15.66.49c.49.49.99.66,1.48.82.49,0,.99,0,1.48-.33.49-.16.99-.66,1.32-.99.66-.66.99-1.32.99-1.97s-.16-1.32-.66-1.81c-.33-.33-.66-.49-1.15-.49-.33,0-.82,0-1.15.33-.49.16-.82.49-1.48.82l-.82.66c-.66.49-1.32.82-1.97,1.15s-1.32.49-1.97.33c-.66,0-1.32-.33-1.81-.82-.66-.49-.99-1.15-1.15-1.81-.16-.66,0-1.48,0-2.3.16-.82.66-1.48,1.32-2.3h0ZM362.24,435.35c.99-1.32,2.3-1.97,3.62-2.14,1.32,0,2.8.33,4.11,1.48l2.47,1.97c1.48,1.15,2.14,2.47,2.3,3.78,0,1.32-.33,2.63-1.48,3.95-.99,1.32-2.3,1.97-3.62,2.14-1.32,0-2.8-.33-4.11-1.48l-2.47-1.97c-1.48-1.15-2.14-2.47-2.3-3.78,0-1.32.33-2.63,1.48-3.95ZM363.4,436.34c-.82.99-1.15,1.81-.99,2.8,0,.99.66,1.81,1.64,2.63l2.47,2.14c.99.82,1.97,1.15,2.96,1.15s1.81-.49,2.63-1.48.99-1.81.99-2.8-.66-1.81-1.64-2.63l-2.47-2.14c-.99-.82-1.97-1.15-2.96-1.15s-1.81.49-2.63,1.48ZM354.02,445.55c.66-.82,1.32-1.48,2.14-1.81s1.48-.49,2.47-.33c.82,0,1.64.49,2.47,1.15l7.24,5.76-.99,1.32-7.24-5.76c-.82-.66-1.81-.99-2.63-.82s-1.64.66-2.3,1.48-.99,1.64-.99,2.47.49,1.64,1.48,2.3l7.24,5.76-.99,1.32-7.24-5.76c-.82-.66-1.48-1.32-1.81-2.14-.33-.82-.33-1.64-.16-2.47.16-.82.66-1.64,1.15-2.47h.16ZM349.25,452.29l11.18,8.22-1.97,2.63-13.16-3.78h0c0,.16,10.2,7.73,10.2,7.73l-.99,1.32-11.18-8.22,1.97-2.63,13.16,3.78h0c0-.16-10.2-7.89-10.2-7.89l.99-1.32v.16ZM341.85,462.33l1.15.82-1.15,1.64,8.88,6.25,1.15-1.64,1.15.82-3.13,4.44c-.99,1.48-2.14,2.3-3.45,2.63s-2.8,0-4.28-1.15l-2.14-1.48c-1.64-1.15-2.47-2.3-2.63-3.62-.16-1.32.16-2.8,1.32-4.28l3.13-4.44h0ZM341.03,466.11l-.99,1.48c-.82,1.15-1.15,2.14-.99,3.13,0,.99.82,1.81,1.97,2.63l2.14,1.48c1.15.82,2.14,1.15,3.13.99.99-.16,1.81-.82,2.47-1.97l.99-1.48-8.88-6.25h.16ZM331.16,477.79l11.68,7.4-4.44,7.07-1.32-.82,3.62-5.59-3.95-2.47-3.29,5.26-1.32-.82,3.29-5.26-5.26-3.29.82-1.32.16-.16ZM325.4,486.83l11.84,7.24-4.44,7.24-1.32-.82,3.62-5.92-3.95-2.47-3.29,5.43-1.32-.82,3.29-5.43-3.95-2.47-3.62,5.92-1.32-.82,4.44-7.4v.33ZM319.81,496.37l12.01,6.91-4.28,7.4-1.32-.82,3.45-5.92-3.95-2.3-3.13,5.43-1.32-.82,3.13-5.43-4.11-2.3-3.45,6.09-1.32-.82,4.28-7.4h0ZM314.22,505.91l12.17,6.58-.82,1.48-10.86-5.92-3.29,6.09-1.32-.66,4.11-7.57h0ZM304.68,523.68c.49-.99.99-1.64,1.81-2.14.66-.49,1.64-.82,2.47-.82.99,0,1.97.16,3.13.82l2.8,1.48c1.64.82,2.63,1.81,3.13,3.13.49,1.32.33,2.63-.49,4.11-.66,1.48-1.64,2.3-2.8,2.8-1.15.33-2.47.16-3.78-.49h0l.66-1.48h0c.66.33,1.15.49,1.81.49.49,0,1.15,0,1.64-.49.49-.33.99-.82,1.32-1.48.49-.99.66-1.97.33-2.96-.33-.99-1.15-1.64-2.3-2.14l-2.96-1.48c-1.15-.49-2.14-.66-3.13-.49-.99.33-1.64.99-2.14,1.97s-.66,1.97-.33,2.8.99,1.48,1.97,1.97h.33l1.81-3.62,1.32.66-2.63,5.26-5.92-2.96.66-1.32,1.32.66v-.33c0-.33-.16-.49-.33-.99,0-.33-.16-.82,0-1.32s.16-.99.49-1.64h-.16ZM298.92,535.68c.66-1.48,1.64-2.47,2.96-2.96s2.8-.33,4.44.49l2.8,1.32c1.64.82,2.8,1.81,3.13,3.13.49,1.32.33,2.63-.33,4.11s-1.64,2.47-2.96,2.96-2.8.33-4.44-.33l-2.8-1.32c-1.64-.82-2.8-1.81-3.13-3.13-.49-1.32-.33-2.63.33-4.11v-.16ZM300.24,536.18c-.49,1.15-.49,2.14-.16,2.96s1.15,1.64,2.3,2.14l2.96,1.32c1.15.49,2.14.66,3.13.33.99-.33,1.64-.99,2.14-2.14.49-1.15.49-2.14.16-2.96s-1.15-1.64-2.3-2.14l-2.96-1.32c-1.15-.49-2.14-.66-3.13-.33-.99.33-1.64.99-2.14,2.14ZM293.49,547.69c.66-1.48,1.64-2.47,2.8-3.13,1.32-.49,2.8-.49,4.44.33l2.96,1.32c1.64.66,2.8,1.64,3.29,2.96s.49,2.63-.16,4.28c-.66,1.48-1.64,2.47-2.8,3.13-1.32.49-2.8.49-4.44-.33l-2.96-1.32c-1.64-.66-2.8-1.64-3.29-2.96s-.33-2.63.16-4.11v-.16ZM294.97,548.18c-.49,1.15-.49,2.14,0,2.96.33.82,1.15,1.64,2.3,2.14l2.96,1.32c1.15.49,2.14.66,3.13.33.99-.33,1.64-.99,2.14-2.14.49-1.15.49-2.14,0-2.96-.33-.82-1.15-1.64-2.3-2.14l-2.96-1.32c-1.15-.49-2.3-.66-3.13-.33-.99.33-1.64.99-2.14,2.14ZM291.03,554.27l1.32.49-.66,1.81,10.03,3.95.66-1.81,1.32.49-1.97,4.93c-.66,1.64-1.64,2.8-2.8,3.45s-2.8.49-4.44,0l-2.47-.99c-1.81-.66-2.96-1.64-3.45-2.96s-.33-2.8.33-4.44l1.97-4.93h.16ZM291.19,558.22l-.66,1.64c-.49,1.32-.49,2.3-.16,3.13s1.15,1.64,2.47,2.14l2.47.99c1.32.49,2.47.49,3.29.16.82-.33,1.48-1.15,1.97-2.47l.66-1.64-10.03-3.95h0ZM282.64,575.98c.33-.99.82-1.81,1.32-2.3.66-.66,1.32-.99,2.14-1.32.82-.16,1.81,0,2.8.33h.33l-.49,1.64h-.33c-1.15-.49-1.97-.49-2.8,0s-1.32,1.15-1.64,2.14c-.33.99-.33,1.81,0,2.63.33.66.82,1.15,1.48,1.48.49.16.99.16,1.32,0,.33,0,.66-.33.99-.82.33-.33.66-.82.99-1.32l.66-.82c.49-.66.99-1.32,1.48-1.81.49-.49.99-.82,1.64-.99h1.97c.66,0,1.32.66,1.64,1.15.33.49.66,1.15.66,1.97s0,1.64-.33,2.47-.66,1.64-1.32,2.14c-.49.66-1.15.99-1.97,1.15-.66.16-1.48,0-2.47,0l-.82-.33.49-1.48.82.33c.66.16,1.15.33,1.64,0,.49,0,.82-.33,1.32-.82.33-.33.66-.82.82-1.48.33-.82.33-1.64,0-2.3-.16-.66-.66-1.15-1.32-1.32-.49,0-.82-.16-1.32,0-.33,0-.66.33-.99.66-.33.33-.66.82-.99,1.32l-.66.82c-.49.66-.82,1.32-1.32,1.81-.49.49-.99.82-1.64.99s-1.32,0-1.97,0-1.32-.66-1.81-1.32-.66-1.32-.82-2.14c0-.82,0-1.64.33-2.63l.16.16ZM278.69,587.99c.49-1.64,1.32-2.63,2.47-3.29s2.63-.66,4.44,0l2.96.99c1.81.49,2.96,1.48,3.45,2.63.66,1.15.66,2.63.16,4.28-.49,1.64-1.32,2.63-2.63,3.29-1.15.66-2.63.66-4.44,0l-2.96-.99c-1.81-.49-2.96-1.48-3.62-2.63s-.66-2.63,0-4.11l.16-.16ZM280.01,588.31c-.33,1.15-.33,2.14.16,2.96s1.32,1.48,2.63,1.81l3.13.99c1.15.33,2.3.33,3.13,0s1.48-1.15,1.81-2.3c.33-1.15.33-2.14-.16-2.96s-1.32-1.48-2.47-1.81l-3.13-.99c-1.15-.33-2.3-.33-3.13,0-.82.49-1.48,1.15-1.81,2.3h-.16ZM274.74,600.65c.33-.99.66-1.81,1.32-2.47.49-.66,1.32-.99,2.14-1.32.82-.16,1.81,0,2.8,0l8.88,2.47-.49,1.64-8.88-2.47c-1.15-.33-1.97-.33-2.63.16-.66.49-1.15,1.15-1.48,2.14-.33.99-.33,1.97,0,2.63s1.15,1.32,2.14,1.64l8.88,2.47-.49,1.64-8.88-2.47c-.99-.33-1.81-.82-2.47-1.32-.66-.66-.99-1.32-1.15-2.14,0-.82,0-1.81.16-2.8l.16.16ZM272.93,608.55l13.32,3.45-.82,3.13-13.49,1.48v.33l12.34,3.13-.33,1.64-13.32-3.45.82-3.13,13.65-1.48v-.33l-12.34-3.13.33-1.64h-.16ZM269.81,620.55l1.48.33-.49,1.81,10.53,2.3.49-1.81,1.48.33-1.15,5.26c-.33,1.81-1.15,2.96-2.3,3.78s-2.63.99-4.44.49l-2.47-.49c-1.81-.49-3.13-1.15-3.78-2.47-.66-1.15-.82-2.63-.33-4.44l1.15-5.26-.16.16ZM270.47,624.33l-.33,1.81c-.33,1.32-.16,2.3.33,3.13s1.48,1.32,2.8,1.64l2.63.66c1.32.33,2.47.16,3.29-.33.82-.49,1.32-1.48,1.64-2.8l.33-1.81-10.53-2.3h-.16ZM265.86,638.97l13.65,2.47-1.48,8.22-1.48-.33,1.15-6.58-4.61-.82-1.15,6.09-1.48-.33,1.15-6.09-6.09-1.15.33-1.64v.16ZM264.05,649.5l13.65,2.14-1.32,8.39h-1.48c0-.16,1.15-7.07,1.15-7.07l-4.61-.66-.99,6.25h-1.48c0-.16.99-6.41.99-6.41l-4.61-.82-1.15,6.91h-1.48c0-.16,1.32-8.72,1.32-8.72h0ZM262.24,660.36l13.65,1.81-1.15,8.39h-1.48c0-.16.99-6.91.99-6.91l-4.61-.66-.82,6.25h-1.48c0-.16.82-6.41.82-6.41l-4.61-.66-.99,6.91h-1.48c0-.16,1.15-8.72,1.15-8.72h0ZM260.76,671.54l13.65,1.48v1.64c-.16,0-12.5-1.32-12.5-1.32l-.82,6.91h-1.48c0-.16.99-8.72.99-8.72h.16ZM258.62,691.44c0-.99.33-1.97.82-2.63.49-.82,1.15-1.32,1.97-1.64s1.97-.49,3.13-.49h3.13c1.81.33,3.13.99,4.11,1.97.82.99,1.32,2.3,1.15,3.95,0,1.64-.66,2.8-1.64,3.62s-2.14,1.15-3.62.99h0v-1.64h0c.66,0,1.32,0,1.81-.16s.99-.49,1.32-.99c.33-.49.49-1.15.66-1.81,0-1.15-.16-2.14-.82-2.8-.66-.66-1.64-1.15-2.96-1.15h-3.29c-1.32-.33-2.3,0-3.13.49-.82.66-1.15,1.48-1.32,2.63,0,1.15.16,1.97.82,2.63s1.48.99,2.63.99h.33l.33-4.11h1.48l-.49,5.92-6.58-.49v-1.48h1.64v-.33c-.33-.16-.49-.33-.82-.66-.33-.33-.49-.66-.66-1.15,0-.49-.16-.99,0-1.81v.16ZM257.8,704.76c0-1.64.66-2.96,1.64-3.95s2.47-1.32,4.28-1.32h3.13c1.81.16,3.13.82,4.11,1.81s1.32,2.3,1.32,3.95-.66,2.96-1.64,3.95-2.47,1.32-4.28,1.32h-3.13c-1.81-.16-3.13-.82-4.11-1.81-.82-.99-1.32-2.3-1.32-3.95ZM259.28,704.76c0,1.15.33,2.14.99,2.8.66.66,1.64.99,2.96,1.15h3.29c1.32.16,2.3,0,2.96-.66.82-.66,1.15-1.48,1.15-2.8,0-1.15-.33-2.14-.99-2.8-.66-.66-1.64-.99-2.96-1.15h-3.29c-1.32-.16-2.3,0-2.96.66-.66.66-1.15,1.48-1.15,2.63v.16ZM257.47,717.92c0-1.64.49-2.96,1.48-3.95.99-.99,2.3-1.48,4.28-1.32h3.13c1.81,0,3.29.66,4.11,1.64.99.99,1.48,2.3,1.32,3.95,0,1.64-.49,2.96-1.48,3.95-.99.99-2.3,1.48-4.11,1.48h-3.13c-1.81,0-3.29-.66-4.11-1.64-.99-.99-1.32-2.3-1.32-3.95l-.16-.16ZM258.95,717.92c0,1.15.33,2.14.99,2.8.66.66,1.64.99,2.96.99h3.29c1.32,0,2.3-.16,2.96-.82.66-.66,1.15-1.64,1.15-2.8s-.33-2.14-.99-2.8c-.66-.66-1.64-.99-2.96-.99h-3.29c-1.32,0-2.3.16-2.96.82-.66.66-1.15,1.48-1.15,2.8ZM257.64,724.99h1.48v1.97h10.86v-1.97h1.48v5.43c0,1.81-.49,3.29-1.32,4.28-.99.99-2.3,1.48-4.28,1.48h-2.63c-1.97,0-3.29-.49-4.28-1.48s-1.32-2.3-1.48-4.11v-5.43l.16-.16ZM259.12,728.45v1.81c0,1.32.33,2.3.99,2.96.66.66,1.64.99,3.13.99h2.63c1.48,0,2.47-.33,3.13-1.15.66-.66.99-1.64.99-3.13v-1.81h-10.86v.33ZM257.97,748.35c0-.99,0-1.97.33-2.63s.82-1.48,1.48-1.97c.66-.49,1.64-.82,2.63-.82h.49v1.64h-.49c-1.15,0-1.97.49-2.47,1.15-.49.66-.82,1.64-.66,2.63,0,1.15.33,1.81.82,2.47.49.49,1.15.82,1.81.82.49,0,.99-.16,1.15-.49.33-.33.49-.66.66-1.15.16-.49.33-.99.49-1.64v-.99c.33-.82.66-1.48.82-2.14.33-.66.66-1.15,1.15-1.48.49-.33,1.15-.49,1.81-.66.82,0,1.48,0,1.97.49.66.33.99.82,1.32,1.64.33.66.49,1.48.49,2.47s0,1.81-.33,2.47c-.33.82-.66,1.32-1.32,1.81-.66.49-1.32.66-2.3.82h-.82v-1.64h.82c.66,0,1.15-.16,1.64-.49.33-.33.66-.66.82-1.15.16-.49.16-.99.16-1.64,0-.99-.33-1.64-.66-2.14-.49-.49-.99-.82-1.81-.82-.49,0-.82,0-1.15.49-.33.33-.49.66-.66.99,0,.49-.33.99-.49,1.64v.99c-.33.82-.49,1.48-.82,2.14s-.66,1.15-1.15,1.64c-.49.33-1.15.66-1.97.66s-1.48,0-2.14-.49c-.66-.33-1.15-.99-1.48-1.64s-.49-1.64-.66-2.63l.49-.33ZM258.79,760.85c0-1.64.16-2.96,1.15-4.11.82-.99,2.3-1.64,4.11-1.81h3.13c1.81-.33,3.29,0,4.28.82.99.99,1.64,2.14,1.81,3.78,0,1.64-.33,2.96-1.15,4.11-.82.99-2.14,1.64-4.11,1.81h-3.13c-1.81.33-3.29,0-4.28-.99-.99-.82-1.64-2.14-1.64-3.78l-.16.16ZM260.27,760.69c0,1.15.49,2.14,1.32,2.63.82.66,1.81.82,3.13.82l3.29-.33c1.32,0,2.3-.49,2.96-1.15.66-.66.99-1.64.82-2.8,0-1.15-.49-2.14-1.32-2.63-.82-.66-1.81-.82-3.13-.82l-3.29.33c-1.32,0-2.3.49-2.96,1.15-.66.66-.99,1.64-.82,2.8ZM259.94,774.01c0-.99,0-1.97.33-2.8s.82-1.48,1.48-1.97c.66-.49,1.48-.82,2.63-.99l9.21-.99v1.64c.16,0-9.05.99-9.05.99-1.15,0-1.97.49-2.47,1.15-.49.66-.66,1.48-.66,2.63s.49,1.97,1.15,2.47,1.48.82,2.63.66l9.21-.99v1.64c.16,0-9.05.99-9.05.99-.99,0-1.97,0-2.8-.33s-1.32-.82-1.81-1.64c-.49-.66-.66-1.64-.82-2.63v.16ZM261.09,782.07l13.65-1.81.49,3.13-12.01,6.41v.33l12.66-1.64v1.64c.16,0-13.49,1.81-13.49,1.81l-.49-3.13,12.01-6.41v-.33l-12.66,1.64v-1.64h-.16ZM262.74,794.4h1.48c0-.16.33,1.64.33,1.64l10.69-1.81-.33-1.97h1.48c0-.16.82,5.1.82,5.1.33,1.81,0,3.29-.66,4.44-.82,1.15-2.14,1.81-3.95,2.14l-2.47.49c-1.97.33-3.45,0-4.44-.82-.99-.82-1.81-2.14-1.97-3.95l-.82-5.26h-.16ZM264.87,797.69l.33,1.81c.16,1.32.66,2.3,1.48,2.8.82.49,1.81.66,3.13.49l2.63-.49c1.32-.16,2.3-.66,2.8-1.48s.66-1.81.49-3.13l-.33-1.81-10.69,1.81h.16Z"/>
      <path class="cls-2" d="M654.68,1313l1.15-13.82,5.59.49c.82,0,1.64.33,2.14.66.66.33,1.15.82,1.48,1.32.33.49.49,1.32.33,1.97h0c0,1.15-.33,1.81-.82,2.3-.49.49-.99.82-1.64.99v.33c.49,0,.82.16,1.15.49s.33.82.33,1.32l-.33,4.61h-1.64l.33-4.61c0-.33,0-.66-.33-.99-.16-.16-.49-.33-.99-.33l-4.77-.33-.49,5.59h-1.64.16ZM656.82,1306.09l3.78.33c.99,0,1.64,0,2.14-.49.49-.33.82-.99.99-1.81h0c0-.99,0-1.48-.49-1.97s-1.15-.82-1.97-.82l-3.78-.33-.49,5.1h-.16ZM665.87,1313.98l5.1-13.49h2.96c0,.16,3.29,14.31,3.29,14.31h-1.64l-.82-3.62-5.92-.33-1.32,3.45h-1.64v-.33ZM669.49,1309.21l5.1.33-1.81-7.89h-.33l-2.96,7.57ZM678.86,1314.81v-1.48h1.97l.49-10.86h-1.97v-1.64h5.43c1.81.33,3.13.82,4.11,1.81s1.32,2.47,1.32,4.28v2.63c-.16,1.97-.82,3.29-1.81,4.11s-2.47,1.32-4.28,1.15h-5.43.16ZM682.48,1313.49h1.81c1.32,0,2.3,0,3.13-.82.66-.66,1.15-1.64,1.15-2.96v-2.63c.16-1.48,0-2.47-.82-3.13-.66-.66-1.64-.99-2.96-1.15h-1.81l-.49,10.69h0ZM692.51,1315.46l.49-13.82h1.64l-.49,13.82h-1.64ZM702.38,1315.96c-1.64,0-2.96-.49-3.95-1.48-.99-.99-1.48-2.3-1.48-4.28v-3.13c0-1.81.66-3.29,1.64-4.11.99-.99,2.3-1.48,3.95-1.32,1.64,0,2.96.49,3.95,1.48.99.99,1.48,2.3,1.48,4.11v3.13c0,1.81-.66,3.29-1.64,4.11-.99.99-2.3,1.32-3.95,1.32v.16ZM702.38,1314.48c1.15,0,2.14-.33,2.8-.99.66-.66.99-1.64.99-2.96v-3.29c0-1.32-.33-2.3-.82-2.96-.66-.66-1.64-1.15-2.8-1.15s-2.14.33-2.8.99c-.66.66-.99,1.64-.99,2.96v3.29c0,1.32.33,2.3.82,2.96.66.66,1.64,1.15,2.8,1.15ZM714.22,1315.79l4.11-13.82h2.96l4.44,13.65h-1.64l-1.15-3.45h-5.92l-.99,3.62h-1.81ZM717.35,1310.69h5.1l-2.47-7.89h-.33l-2.3,7.89ZM727.71,1315.63l-.49-13.82h5.26c.82-.16,1.64,0,2.3.16.66.33,1.15.66,1.64,1.32.33.66.66,1.32.66,2.14v.33c0,.82,0,1.48-.49,2.14-.33.66-.82,1.15-1.48,1.48s-1.32.49-2.14.49h-3.62l.16,5.76h-1.81ZM729.19,1308.39h3.45c.82,0,1.64-.33,2.14-.82s.66-1.15.66-1.97h0c0-.99-.33-1.64-.82-1.97-.49-.49-1.15-.66-2.14-.66h-3.45l.16,5.43h0ZM739.55,1315.13l-.82-13.82,8.55-.49v1.48l-6.74.33.33,4.61,6.25-.33v1.48l-6.25.33.33,4.77,6.91-.33v1.48l-8.55.49h0ZM749.75,1314.48l3.95-7.24-4.93-6.58h1.97l3.95,5.26h.33l3.13-5.92h1.97l-3.95,7.07,4.93,6.58h-1.97l-3.95-5.43h-.33l-3.13,6.09h-1.97v.16ZM768.34,1313l-1.48-13.82,5.59-.49c.82,0,1.64,0,2.3.16s1.32.66,1.64,1.15c.49.49.66,1.15.82,1.81h0c0,1.15,0,1.81-.49,2.47-.33.49-.82.99-1.48,1.15v.33c.49,0,.82,0,1.32.33.33.33.49.66.66,1.32l.49,4.61h-1.64c0,.16-.49-4.28-.49-4.28,0-.33-.16-.66-.49-.82-.16-.16-.49-.33-.99-.16l-4.77.49.66,5.59h-1.64v.16ZM769.16,1305.76l3.78-.33c.82,0,1.64-.33,1.97-.82.49-.49.66-1.15.49-1.97h0c0-.99-.33-1.48-.99-1.81-.49-.33-1.32-.49-2.14-.49l-3.78.33.49,5.1h.16ZM779.68,1311.84l2.47-14.31,2.96-.33,5.92,13.16h-1.64c0,.16-1.48-3.13-1.48-3.13l-5.76.66-.66,3.62h-1.64l-.16.33ZM782.15,1306.58l4.93-.66-3.29-7.4h-.33l-1.48,8.06h.16ZM792.35,1310.2v-1.48c-.16,0,1.64-.33,1.64-.33l-1.64-10.69-1.97.33v-1.48c-.16,0,5.1-.82,5.1-.82,1.81-.33,3.29,0,4.28.82,1.15.82,1.81,2.14,2.14,3.95l.33,2.47c.33,1.97,0,3.45-.82,4.44-.82.99-2.14,1.64-3.95,1.97l-5.26.82h.16ZM795.8,1308.23l1.81-.33c1.32-.16,2.3-.66,2.8-1.48.66-.82.82-1.81.49-3.13l-.33-2.63c-.16-1.32-.66-2.3-1.48-2.96-.82-.49-1.81-.66-3.13-.49l-1.81.33,1.48,10.69h.16ZM806,1308.23l-2.3-13.65,1.64-.33,2.3,13.65-1.64.33ZM815.7,1306.91c-1.64.33-2.96,0-4.11-.66-1.15-.82-1.81-2.14-2.14-3.78l-.49-3.13c-.33-1.81,0-3.29.66-4.28.82-1.15,1.97-1.81,3.62-2.14s2.96,0,4.11.66c1.15.82,1.81,1.97,2.14,3.78l.49,3.13c.33,1.81,0,3.29-.66,4.44-.82,1.15-1.97,1.81-3.62,2.14v-.16ZM815.38,1305.43c1.15-.16,1.97-.66,2.63-1.48.49-.82.66-1.81.49-3.13l-.49-3.29c-.16-1.32-.66-2.14-1.48-2.8s-1.81-.82-2.96-.66c-1.15.16-1.97.66-2.47,1.48s-.66,1.81-.49,3.13l.49,3.29c.16,1.32.66,2.14,1.48,2.8s1.81.82,2.96.49l-.16.16ZM827.38,1304.44l1.32-14.47,2.8-.66,7.07,12.66-1.64.33-1.81-3.13-5.76,1.15-.33,3.62-1.64.33v.16ZM829.52,1298.85l4.93-.99-3.95-7.24h-.33l-.66,8.22ZM840.54,1301.65l-3.13-13.49,5.1-1.15c.82-.16,1.48-.16,2.3,0,.66,0,1.32.49,1.81.99s.82,1.15.99,1.97v.33c.16.82.16,1.48,0,2.3-.16.66-.66,1.15-1.15,1.64s-1.32.82-1.97.99l-3.62.82,1.32,5.43-1.64.33v-.16ZM840.71,1294.25l3.29-.82c.82-.16,1.48-.49,1.97-1.15.33-.49.49-1.15.33-1.97h0c-.16-.99-.49-1.48-1.15-1.81-.66-.33-1.32-.33-2.14-.16l-3.29.82,1.15,5.1h-.16ZM852.22,1298.85l-3.29-13.32,8.22-2.14.33,1.48-6.58,1.64,1.15,4.44,6.09-1.48.33,1.48-6.09,1.48,1.15,4.61,6.74-1.64.33,1.48-8.39,2.14v-.16ZM862.09,1296.38l2.47-7.89-6.09-5.43,1.81-.49,4.93,4.61h.33l1.97-6.41,1.81-.49-2.47,7.73,6.09,5.59-1.81.49-4.93-4.61h-.33l-1.97,6.58-1.81.49v-.16ZM879.85,1291.45l-4.11-13.16,5.26-1.64c.82-.33,1.64-.33,2.3-.16.66,0,1.32.33,1.81.82.49.33.82.99,1.15,1.64h0c.33,1.15.33,1.81,0,2.47s-.66,1.15-1.15,1.48v.33h1.32c.33.16.66.49.82,1.15l1.32,4.44-1.64.49-1.32-4.28c0-.33-.33-.66-.66-.82h-.99l-4.61,1.32,1.64,5.43-1.64.49h.49ZM879.36,1284.05l3.62-1.15c.82-.33,1.48-.66,1.81-1.32.33-.49.33-1.32.16-1.97h0c-.16-.82-.66-1.48-1.32-1.64-.66-.33-1.32-.33-2.14,0l-3.62,1.15,1.48,4.93ZM890.87,1288l-.33-14.47,2.8-.99,8.39,11.84-1.64.49-2.14-2.96-5.59,1.81v3.62l-1.48.49v.16ZM892.35,1282.24l4.77-1.64-4.61-6.74h-.33v8.22l.16.16ZM903.04,1284.05l-.49-1.32,1.81-.66-3.62-10.2-1.81.66-.49-1.32,5.1-1.81c1.64-.66,3.13-.66,4.44,0,1.32.49,2.14,1.64,2.8,3.45l.82,2.47c.66,1.81.66,3.29,0,4.44s-1.81,2.14-3.45,2.63l-5.1,1.81v-.16ZM905.84,1281.42l1.64-.66c1.32-.49,2.14-1.15,2.47-1.97.49-.82.33-1.97,0-3.29l-.82-2.63c-.49-1.32-1.15-2.14-1.97-2.63-.82-.33-1.97-.33-3.13,0l-1.64.66,3.62,10.2-.16.33ZM916.04,1279.44l-4.93-12.99,1.48-.66,4.93,12.99-1.48.66ZM925.25,1276.15c-1.48.66-2.96.66-4.11,0-1.32-.49-2.14-1.64-2.8-3.45l-1.15-2.96c-.66-1.64-.66-3.13,0-4.44.49-1.32,1.64-2.14,3.13-2.8s2.96-.66,4.28,0c1.32.49,2.3,1.64,2.96,3.29l1.15,2.96c.66,1.64.66,3.13,0,4.44-.49,1.32-1.64,2.14-3.13,2.8l-.33.16ZM924.75,1274.84c1.15-.49,1.81-1.15,2.14-1.97.33-.99.33-1.97,0-3.13l-1.15-3.13c-.49-1.15-1.15-1.97-1.97-2.47s-1.81-.49-2.96,0-1.81,1.15-2.14,1.97-.33,1.97,0,3.13l1.15,3.13c.49,1.15,1.15,1.97,1.97,2.47s1.81.49,2.96,0ZM936.27,1271.55l-1.48-14.31,2.63-1.15,9.38,11.02-1.64.66-2.3-2.8-5.43,2.3.33,3.62-1.64.66h.16ZM937.25,1265.63l4.61-1.97-5.26-6.25h-.33l.82,8.22h.16ZM948.6,1266.12l-5.59-12.66,4.77-2.14c.82-.33,1.48-.49,2.14-.49s1.32.16,1.97.66c.66.33.99.99,1.48,1.81h0c.33.99.49,1.81.33,2.47,0,.66-.33,1.32-.82,1.81s-1.15.99-1.81,1.32l-3.29,1.48,2.3,5.1-1.48.66h0ZM947.29,1259.05l3.13-1.48c.82-.33,1.32-.82,1.64-1.48s.33-1.32,0-1.97h0c-.33-.99-.82-1.32-1.48-1.48-.66-.16-1.32,0-2.14.16l-3.13,1.48,2.14,4.77h-.16ZM959.46,1261.35l-5.92-12.5,7.73-3.62.66,1.32-6.25,2.96,1.97,4.11,5.76-2.63.66,1.32-5.76,2.63,1.97,4.28,6.25-2.96.66,1.32-7.73,3.62v.16ZM968.67,1256.91l.82-8.22-6.91-4.11,1.81-.82,5.76,3.62h.16l.66-6.74,1.81-.82-.82,8.06,7.07,4.28-1.81.82-5.76-3.62h-.16l-.66,6.91-1.81.82-.16-.16ZM985.28,1248.52l-6.58-12.17,4.93-2.63c.82-.33,1.48-.66,2.14-.66s1.32,0,1.97.33.99.82,1.48,1.48h0c.49.99.49,1.81.49,2.47s-.49,1.15-.82,1.64h1.32c.49,0,.82.49.99.99l2.14,4.11-1.48.82-2.14-3.95c-.16-.33-.49-.49-.66-.66-.33,0-.66,0-.99.16l-4.28,2.3,2.63,4.93-1.48.82h.33ZM983.31,1241.45l3.29-1.81c.82-.49,1.32-.99,1.48-1.48.16-.66,0-1.32-.16-1.97h0c-.33-.82-.82-1.32-1.48-1.32-.66-.16-1.32,0-2.14.33l-3.29,1.81,2.47,4.61-.16-.16ZM995.31,1243.26l-2.96-14.14,2.63-1.48,10.53,10.03-1.48.82-2.63-2.47-5.1,2.8.82,3.62-1.48.82h-.33ZM995.64,1237.34l4.44-2.47-5.92-5.59h-.16l1.81,8.06h-.16ZM1006.5,1236.84l-.82-1.32,1.64-.99-5.59-9.38-1.64.99-.82-1.32,4.61-2.8c1.64-.99,2.96-1.32,4.28-.99s2.47,1.32,3.45,2.96l1.32,2.14c.99,1.64,1.32,3.13.82,4.44-.33,1.32-1.32,2.47-2.96,3.29l-4.61,2.8.33.16ZM1008.8,1233.72l1.48-.99c1.15-.66,1.81-1.48,2.14-2.47s0-1.97-.66-3.13l-1.32-2.3c-.66-1.15-1.48-1.97-2.47-2.14s-1.97,0-3.13.66l-1.48.99,5.43,9.38h0ZM1018.34,1229.94l-7.24-11.68,1.48-.82,7.24,11.68-1.48.82ZM1026.73,1224.84c-1.32.82-2.8,1.15-4.11.99-1.32-.33-2.47-1.15-3.45-2.8l-1.64-2.63c-.99-1.48-1.32-2.96-.99-4.28s1.15-2.47,2.63-3.29c1.48-.82,2.8-1.15,4.11-.82s2.47,1.15,3.45,2.8l1.64,2.63c.99,1.48,1.32,2.96.99,4.28s-1.15,2.47-2.63,3.29v-.16ZM1025.91,1223.69c.99-.66,1.64-1.48,1.81-2.47s0-1.97-.82-3.13l-1.81-2.8c-.66-1.15-1.48-1.81-2.47-1.97-.99-.33-1.97,0-2.96.49-.99.66-1.64,1.48-1.81,2.47s0,1.97.82,3.13l1.81,2.8c.66,1.15,1.48,1.81,2.47,1.97.99.33,1.97,0,2.96-.66v.16ZM1036.6,1218.26l-4.28-13.82,2.47-1.64,11.18,9.05-1.48.99-2.8-2.3-4.93,3.29,1.15,3.45-1.48.99h.16ZM1036.43,1212.34l4.11-2.8-6.41-5.1h-.16l2.47,7.89ZM1047.78,1210.53l-7.89-11.35,4.28-3.13c.66-.49,1.32-.82,2.14-.82.66,0,1.48,0,2.14.16.66.33,1.15.66,1.64,1.48h0c.49.82.66,1.64.82,2.3,0,.66,0,1.32-.49,1.97-.33.66-.82,1.15-1.48,1.64l-2.96,2.14,3.13,4.61-1.32.99h0ZM1045.15,1203.95l2.8-1.97c.66-.49,1.15-1.15,1.32-1.81,0-.66,0-1.32-.49-1.97h0c-.49-.82-.99-1.15-1.64-1.32-.66,0-1.32,0-2.14.66l-2.8,1.97,2.96,4.28v.16ZM1057.48,1203.78l-8.22-11.18,6.91-5.1.82,1.15-5.59,4.11,2.8,3.78,5.1-3.78.82,1.15-5.1,3.78,2.8,3.78,5.59-4.11.82,1.15-6.91,5.1.16.16ZM1065.71,1197.7l-.66-8.22-7.73-2.8,1.48-1.15,6.25,2.47h.16l-.66-6.91,1.48-1.15.66,8.06,7.73,2.8-1.48,1.15-6.41-2.47h-.16l.66,6.91-1.48,1.15.16.16ZM1080.35,1186.35l-8.72-10.69,4.28-3.45c.66-.49,1.32-.82,1.97-.99s1.32-.16,1.97,0,1.15.49,1.64,1.15h0c.49.82.82,1.64.82,2.3s-.16,1.32-.49,1.81h.16c.33,0,.82-.16,1.15,0,.49,0,.82.33,1.15.66l2.96,3.62-1.32.99-2.8-3.45c-.33-.33-.49-.49-.82-.49s-.66,0-.99.33l-3.78,2.96,3.62,4.44-1.32.99.49-.16ZM1077.06,1179.77l2.96-2.3c.66-.49,1.15-1.15,1.15-1.81s0-1.32-.66-1.97h0c-.49-.66-1.15-.99-1.64-1.15-.66,0-1.32.16-2.14.82l-2.96,2.3,3.29,3.95v.16ZM1089.23,1179.11l-5.76-13.32,2.3-1.81,12.17,7.73-1.32,1.15-3.13-1.97-4.44,3.78,1.48,3.29-1.32,1.15h0ZM1088.41,1173.19l3.78-3.29-6.91-4.44h-.16c0,.16,3.29,7.73,3.29,7.73ZM1098.93,1170.72l-.99-1.15,1.48-1.32-7.24-8.06-1.48,1.32-.99-1.15,4.11-3.62c1.32-1.15,2.63-1.81,4.11-1.81,1.32,0,2.63.82,3.95,2.14l1.64,1.97c1.32,1.48,1.81,2.8,1.64,4.11,0,1.32-.82,2.63-2.3,3.78l-4.11,3.62.16.16ZM1100.74,1167.27l1.32-1.15c.99-.82,1.48-1.81,1.64-2.8s-.33-1.97-1.32-2.96l-1.81-1.97c-.99-.99-1.81-1.64-2.8-1.64s-1.97.33-2.96,1.32l-1.32,1.15,7.24,8.06h0ZM1109.29,1161.68l-9.38-10.2,1.15-1.15,9.38,10.2-1.15,1.15ZM1116.53,1155.1c-1.15,1.15-2.47,1.64-3.78,1.64s-2.63-.66-3.95-1.97l-2.14-2.3c-1.32-1.32-1.81-2.63-1.81-4.11,0-1.32.66-2.63,1.81-3.78,1.15-1.15,2.47-1.64,3.78-1.64s2.63.66,3.95,1.97l2.14,2.3c1.32,1.32,1.81,2.63,1.81,4.11,0,1.32-.66,2.63-1.97,3.78h.16ZM1115.54,1154.11c.82-.82,1.32-1.64,1.32-2.63s-.49-1.97-1.32-2.8l-2.3-2.3c-.82-.99-1.81-1.48-2.8-1.48s-1.97.33-2.8,1.15-1.32,1.64-1.32,2.63.49,1.97,1.32,2.8l2.3,2.47c.82.99,1.81,1.48,2.8,1.48s1.81-.33,2.8-1.15v-.16ZM1125.08,1146.71l-6.74-12.83,2.14-2.14,12.83,6.74-1.15,1.15-3.29-1.64-4.11,4.11,1.64,3.29-1.15,1.15-.16.16ZM1123.77,1140.95l3.62-3.62-7.24-3.78h-.16c0,.16,3.78,7.4,3.78,7.4ZM1134.46,1137.01l-10.03-9.54,3.62-3.78c.49-.66,1.15-.99,1.81-1.32.66-.33,1.32-.33,2.14-.16.66,0,1.32.49,1.97,1.15h.16c.66.82.99,1.32,1.15,2.14v2.14c-.16.66-.66,1.32-1.15,1.97l-2.47,2.63,3.95,3.78-1.15,1.15v-.16ZM1130.51,1130.92l2.47-2.47c.66-.66.99-1.32.99-1.97s-.16-1.32-.82-1.81h0c-.66-.66-1.15-.99-1.81-.82-.66,0-1.32.33-1.97.99l-2.47,2.47,3.78,3.62h-.16ZM1142.68,1128.45l-10.2-9.38,5.76-6.25,1.15.99-4.61,5.1,3.45,3.13,4.28-4.61,1.15.99-4.28,4.61,3.45,3.13,4.77-5.1,1.15.99-5.92,6.25-.16.16ZM1149.59,1121.05l-2.3-7.89-8.06-1.32,1.32-1.48,6.58,1.15h.16c0-.16-1.97-6.58-1.97-6.58l1.32-1.48,2.14,7.89,8.22,1.32-1.32,1.48-6.74-1.15h-.16c0,.16,1.97,6.74,1.97,6.74l-1.32,1.48.16-.16ZM1161.93,1107.07l-10.53-8.88,3.62-4.28c.49-.66,1.15-1.15,1.81-1.48.66-.33,1.32-.49,1.97-.33.66,0,1.32.33,1.81.82h.16c.66.66,1.15,1.32,1.15,1.97s0,1.32-.16,1.81h.16c.33-.16.66-.33,1.15-.49.49,0,.82,0,1.32.49l3.62,2.96-.99,1.32-3.45-2.8c-.33-.33-.66-.33-.99-.33s-.66.16-.82.49l-3.13,3.62,4.28,3.62-.99,1.32v.16ZM1157.49,1101.15l2.47-2.96c.66-.66.82-1.32.82-1.97s-.33-1.32-.99-1.81h0c-.66-.66-1.15-.82-1.81-.66-.66,0-1.32.49-1.81,1.15l-2.47,2.96,3.95,3.29h-.16ZM1169.16,1098.35l-8.06-12.01,1.81-2.3,13.49,5.26-1.15,1.32-3.45-1.32-3.62,4.61,2.14,2.96-1.15,1.32v.16ZM1167.19,1092.6l3.13-3.95-7.57-2.96h-.16c0,.16,4.61,6.91,4.61,6.91h0ZM1177.22,1088.32l-1.15-.82,1.15-1.48-8.55-6.58-1.15,1.48-1.15-.82,3.29-4.28c1.15-1.48,2.3-2.3,3.62-2.47s2.8.16,4.28,1.32l1.97,1.48c1.48,1.15,2.3,2.47,2.47,3.78,0,1.32-.33,2.8-1.48,4.11l-3.29,4.28h0ZM1178.21,1084.54l1.15-1.48c.82-.99,1.15-2.14.99-2.96,0-.99-.66-1.81-1.81-2.63l-2.14-1.64c-1.15-.82-2.14-1.15-3.13-.99-.99,0-1.81.82-2.63,1.81l-1.15,1.48,8.55,6.58.16-.16ZM1185.45,1077.3l-11.18-8.06.99-1.32,11.18,8.06-.99,1.32ZM1191.53,1069.57c-.99,1.32-2.14,2.14-3.45,2.3-1.32.16-2.8-.16-4.28-1.32l-2.63-1.81c-1.48-.99-2.3-2.3-2.47-3.62s.16-2.63,1.15-4.11c.99-1.32,2.14-2.14,3.45-2.3,1.32-.33,2.8,0,4.28,1.15l2.63,1.81c1.48.99,2.3,2.3,2.47,3.62s-.16,2.63-1.15,4.11v.16ZM1190.22,1068.58c.66-.99.99-1.97.82-2.96s-.82-1.81-1.81-2.63l-2.63-1.97c-.99-.82-1.97-.99-2.96-.99s-1.81.66-2.47,1.64-.99,1.97-.66,2.96c.16.99.82,1.81,1.81,2.47l2.63,1.97c.99.82,1.97.99,2.96.99s1.81-.66,2.47-1.64l-.16.16ZM1198.11,1059.54l-9.05-11.18,1.64-2.47,13.82,4.11-.99,1.48-3.45-.99-3.29,4.93,2.3,2.8-.99,1.48v-.16ZM1195.81,1054.11l2.8-4.11-7.73-2.47h0c0,.16,5.1,6.58,5.1,6.58h-.16ZM1205.68,1048.35l-11.68-7.57,2.8-4.44c.49-.66.99-1.15,1.64-1.64.66-.33,1.32-.49,1.97-.49s1.48.16,2.14.66h.16c.66.66,1.15,1.15,1.48,1.81.33.66.33,1.32.33,1.97s-.33,1.48-.82,2.14l-1.97,3.13,4.61,2.96-.82,1.32.16.16ZM1200.58,1043.09l1.81-2.96c.49-.66.66-1.48.66-2.14s-.49-1.15-1.15-1.64h-.16c-.66-.49-1.32-.66-1.97-.49-.66.16-1.15.66-1.64,1.32l-1.81,2.96,4.44,2.8-.16.16ZM1212.09,1038.32l-11.68-7.24,4.44-7.24,1.32.82-3.62,5.76,3.95,2.47,3.29-5.43,1.32.82-3.29,5.43,3.95,2.47,3.62-5.92,1.32.82-4.61,7.24h0ZM1217.36,1029.77l-3.78-7.4-8.06.33.99-1.64h6.74v-.33l-3.13-5.92.99-1.64,3.62,7.24,8.22-.33-.99,1.64h-6.91v.33l3.13,6.09-.99,1.64h.16ZM1226.73,1013.65l-12.17-6.74,2.63-4.93c.49-.82.99-1.32,1.48-1.81.49-.49,1.15-.66,1.81-.82.66,0,1.32,0,1.97.49h.16c.82.49,1.32,1.15,1.64,1.64s.33,1.32.16,1.81h.16c.16-.33.49-.49.99-.66.33,0,.82,0,1.32.16l4.11,2.3-.82,1.48-3.95-2.14c-.33-.16-.66-.16-.99,0-.33,0-.49.33-.82.66l-2.3,4.11,4.93,2.8-.82,1.48.49.16ZM1221.3,1008.72l1.81-3.29c.49-.82.66-1.48.49-2.14,0-.66-.49-1.15-1.32-1.48h0c-.66-.49-1.32-.49-1.97-.33s-1.15.66-1.64,1.48l-1.81,3.29,4.44,2.47ZM1232.16,1003.62l-10.2-10.2,1.32-2.63,14.14,2.63-.82,1.48-3.62-.66-2.8,5.26,2.63,2.63-.82,1.48h.16ZM1229.2,998.52l2.3-4.44-8.06-1.48h0c0,.16,5.76,5.92,5.76,5.92h0ZM1238.08,992.27l-1.32-.66.82-1.81-9.7-4.77-.82,1.81-1.32-.66,2.47-4.77c.82-1.64,1.81-2.63,3.13-3.13,1.32-.49,2.8-.33,4.44.49l2.3,1.15c1.64.82,2.8,1.97,3.13,3.29s0,2.8-.66,4.44l-2.47,4.77v-.16ZM1238.41,988.32l.82-1.64c.66-1.15.82-2.3.49-3.13s-.99-1.64-2.3-2.3l-2.47-1.15c-1.32-.66-2.3-.82-3.29-.49-.82.33-1.64,1.15-2.14,2.3l-.82,1.64,9.7,4.77ZM1244.16,979.93l-12.5-5.92.66-1.48,12.5,5.92-.66,1.48ZM1248.61,971.21c-.66,1.48-1.64,2.47-2.96,2.96s-2.8.33-4.44-.49l-2.8-1.32c-1.64-.82-2.8-1.81-3.13-3.13-.49-1.32-.33-2.63.33-4.11s1.64-2.47,2.96-2.96,2.8-.33,4.44.33l2.8,1.32c1.64.82,2.8,1.81,3.13,3.13.49,1.32.33,2.63-.33,4.11v.16ZM1247.29,970.56c.49-1.15.49-2.14.16-2.96s-1.15-1.64-2.3-2.14l-2.96-1.32c-1.15-.49-2.14-.66-3.13-.33-.99.33-1.64.99-2.14,2.14s-.49,2.14,0,2.96c.33.82,1.15,1.64,2.3,2.14l2.96,1.32c1.15.49,2.14.66,3.13.33.99-.33,1.64-.99,2.14-2.14h-.16ZM1253.21,960.19l-11.02-9.38,1.15-2.63,14.31,1.48-.66,1.64-3.62-.33-2.3,5.43,2.8,2.3-.66,1.64v-.16ZM1249.92,955.26l1.97-4.61-8.06-.82v.33l6.09,5.26v-.16ZM1258.47,947.69l-12.83-5.1,1.97-4.93c.33-.82.66-1.32,1.32-1.81.49-.49,1.15-.82,1.81-.99.66,0,1.48,0,2.14.33h.16c.82.33,1.32.82,1.81,1.48.33.49.66,1.15.66,1.97,0,.66,0,1.48-.33,2.14l-1.32,3.45,5.1,2.14-.66,1.48.16-.16ZM1252.55,943.58l1.32-3.29c.33-.82.33-1.48.16-2.14-.16-.66-.66-1.15-1.48-1.48h-.16c-.82-.33-1.48-.33-1.97,0-.66.33-.99.82-1.32,1.64l-1.32,3.29,4.93,1.97h-.16ZM1262.75,936.67l-12.99-4.93,2.96-7.89,1.48.49-2.47,6.41,4.28,1.64,2.3-5.92,1.48.49-2.3,5.92,4.44,1.64,2.47-6.58,1.48.49-3.13,8.06v.16ZM1266.37,927.14l-5.1-6.58-7.89,1.81.66-1.81,6.58-1.48h0c0-.16-4.28-5.43-4.28-5.43l.66-1.81,4.93,6.41,8.06-1.97-.66,1.81-6.74,1.48h0c0,.16,4.28,5.59,4.28,5.59l-.66,1.81.16.16ZM1272.45,909.54l-13.16-4.28,1.64-5.26c.33-.82.66-1.48,1.15-1.97s.99-.82,1.64-1.15c.66-.16,1.32,0,1.97,0h.16c.82.33,1.48.82,1.81,1.32.33.49.49,1.15.49,1.81h.33c0-.33.49-.66.82-.82s.82-.16,1.48,0l4.44,1.48-.49,1.48-4.28-1.32h-.99c-.33,0-.49.33-.66.82l-1.48,4.61,5.43,1.81-.49,1.64.16-.16ZM1266.04,905.75l1.15-3.62c.33-.82.33-1.64,0-2.14-.33-.66-.82-.99-1.48-1.32h0c-.82-.33-1.48-.16-1.97,0-.66.33-.99.99-1.32,1.81l-1.15,3.62,4.93,1.64h-.16ZM1275.91,898.68l-12.01-8.06.82-2.8h14.47l-.49,1.48h-3.62l-1.64,5.59,3.13,1.97-.49,1.64-.16.16ZM1271.96,894.24l1.48-4.77h-8.22v.33l6.74,4.44ZM1279.53,886.35l-1.48-.33.49-1.81-10.53-2.8-.49,1.81-1.48-.33,1.48-5.26c.49-1.81,1.32-2.96,2.47-3.62s2.63-.82,4.44-.33l2.47.66c1.81.49,3.13,1.32,3.78,2.63.66,1.15.66,2.63.16,4.44l-1.48,5.26.16-.33ZM1279.03,882.56l.49-1.81c.33-1.32.33-2.3,0-3.13-.49-.82-1.32-1.48-2.63-1.81l-2.63-.66c-1.32-.33-2.47-.33-3.29.16s-1.32,1.32-1.64,2.63l-.49,1.81,10.36,2.8h-.16ZM1283.15,873.19l-13.32-3.45.33-1.64,13.32,3.45-.33,1.64ZM1285.78,863.65c-.33,1.64-1.15,2.8-2.3,3.45-1.15.66-2.63.82-4.44.49l-3.13-.66c-1.81-.49-2.96-1.15-3.78-2.47-.66-1.15-.82-2.63-.49-4.11.33-1.64,1.15-2.8,2.3-3.45,1.15-.66,2.63-.82,4.44-.49l3.13.66c1.81.49,2.96,1.32,3.78,2.47.66,1.15.82,2.63.49,4.11ZM1284.3,863.32c.33-1.15,0-2.14-.33-2.96-.49-.82-1.48-1.32-2.63-1.64l-3.13-.82c-1.32-.33-2.3-.16-3.13.33s-1.48,1.32-1.64,2.47c-.33,1.15,0,2.14.33,2.96.49.82,1.48,1.32,2.63,1.64l3.13.82c1.32.33,2.3.16,3.13-.33s1.48-1.32,1.64-2.47ZM1288.08,851.97l-12.66-7.07.66-2.8,14.47-1.32-.33,1.64-3.62.33-1.15,5.76,3.13,1.81-.33,1.64h-.16ZM1283.8,847.86l.99-4.93-8.06.66v.33l7.07,3.95h0ZM1290.88,838.65l-13.65-2.63.99-5.26c0-.82.49-1.48.82-2.14.49-.66.99-.99,1.64-1.32.66-.33,1.32-.33,2.14,0h.33c.82.16,1.48.49,1.97.99.49.49.82,1.15.99,1.81s.16,1.48,0,2.3l-.66,3.62,5.43.99-.33,1.64h.33ZM1284.13,835.85l.66-3.45c0-.82,0-1.64-.33-2.14-.33-.66-.99-.99-1.64-1.15h-.16c-.82-.16-1.48,0-1.97.33s-.82.99-.99,1.97l-.66,3.45,5.1.99h0ZM1293.01,827.13l-13.65-2.3,1.32-8.39h1.48c0,.16-1.15,7.07-1.15,7.07l4.61.82.99-6.25h1.48c0,.16-.99,6.41-.99,6.41l4.61.82,1.15-6.91h1.48c0,.16-1.48,8.72-1.48,8.72h.16ZM1294.66,816.94l-6.25-5.43-7.4,3.45.33-1.97,6.09-2.63v-.33l-5.1-4.28.33-1.97,6.09,5.26,7.57-3.45-.33,1.97-6.25,2.8v.33l5.26,4.44-.33,1.97v-.16ZM1297.29,798.51l-13.65-1.64.66-5.59c0-.82.33-1.64.66-2.14.33-.66.82-1.15,1.48-1.32.66-.33,1.32-.49,1.97-.33h.16c.82,0,1.64.49,2.14.99.49.49.82.99.82,1.64h.33c0-.49.33-.82.66-1.15s.82-.33,1.32-.33l4.61.49v1.64c-.16,0-4.61-.49-4.61-.49-.33,0-.66,0-.99.16-.16.16-.33.49-.49.99l-.49,4.77,5.59.66v1.64h-.16ZM1290.22,796.21l.49-3.78c0-.82,0-1.64-.33-2.14s-.99-.82-1.81-.99h0c-.82,0-1.48,0-1.97.49s-.82,1.15-.99,1.97l-.49,3.78,5.1.66ZM1298.44,787.33l-13.32-5.59.33-2.96,14.14-2.96v1.64l-3.78.66-.49,5.92,3.45,1.32v1.64l-.33.33ZM1293.84,783.71l.49-4.93-8.06,1.64v.33l7.57,3.13v-.16ZM1299.59,774.5h-1.48v-1.97l-10.86-.82v1.97h-1.64l.33-5.43c0-1.81.66-3.13,1.64-4.11s2.47-1.32,4.28-1.15h2.63c1.97.33,3.29.99,4.11,1.97s1.15,2.47.99,4.28l-.33,5.43.33-.16ZM1298.44,770.72v-1.81c.16-1.32,0-2.3-.66-3.13-.66-.66-1.64-1.15-2.96-1.32h-2.63c-1.48-.33-2.47,0-3.13.66s-1.15,1.64-1.15,2.96v1.81l10.69.82h-.16ZM1300.58,760.85l-13.82-.82v-1.64l13.82.82v1.64ZM1301.4,750.98c0,1.64-.66,2.96-1.64,3.95s-2.47,1.32-4.28,1.32h-3.13c-1.81-.16-3.13-.82-4.11-1.81s-1.32-2.3-1.32-3.95.66-2.96,1.64-3.95,2.47-1.32,4.28-1.32h3.13c1.81.16,3.13.82,4.11,1.81s1.32,2.3,1.32,3.95ZM1299.92,750.98c0-1.15-.33-2.14-.99-2.8-.66-.66-1.64-.99-2.96-1.15h-3.29c-1.32-.16-2.3,0-2.96.66-.82.66-1.15,1.48-1.15,2.8,0,1.15.33,2.14.99,2.8.66.66,1.64.99,2.96,1.15h3.29c1.32.16,2.3,0,2.96-.66.66-.66,1.15-1.48,1.15-2.8ZM1301.57,738.97l-13.82-4.44v-2.96l13.98-4.11v1.64l-3.45.99v5.92l3.45,1.15v1.64l-.16.16ZM1296.63,735.85v-5.1l-7.73,2.3v.33l7.73,2.47ZM1301.73,725.49h-13.82v-5.1c0-.82,0-1.64.49-2.14.33-.66.82-1.15,1.32-1.64.66-.33,1.32-.66,2.14-.66h.33c.82,0,1.48.16,2.14.49s.99.82,1.32,1.48.49,1.32.49,2.14v3.62h5.59v1.81ZM1294.66,724.01v-3.45c0-.82-.33-1.64-.66-2.14-.49-.49-1.15-.82-1.81-.82h-.16c-.82,0-1.48.33-1.81.82-.49.49-.66,1.15-.66,2.14v3.45h5.26-.16ZM1301.57,713.65l-13.82.33v-8.55c-.16,0,1.32,0,1.32,0v6.91h4.77v-6.25c-.16,0,1.32,0,1.32,0v6.25h4.93v-6.91c-.16,0,1.32,0,1.32,0v8.55l.16-.33ZM1301.24,703.45l-7.24-4.11-6.58,4.77v-1.97l5.43-3.78v-.33l-5.92-3.29v-1.97l6.91,4.11,6.74-4.77v1.97l-5.59,3.95v.33l5.92,3.29v1.97l.33-.16ZM1300.25,684.86l-13.82.99-.49-5.59c0-.82,0-1.64.33-2.3.16-.66.66-1.15,1.15-1.64.49-.33,1.15-.66,1.97-.66h.16c.82,0,1.64,0,2.14.49.49.33.99.82,1.15,1.48h.33c0-.49,0-.82.33-1.15s.66-.49,1.32-.49l4.61-.33v1.64l-4.28.33c-.33,0-.66,0-.82.33-.16.16-.33.49-.16.99l.33,4.77,5.59-.49v1.64h.16ZM1293.01,683.88l-.33-3.78c0-.99-.33-1.64-.82-1.97-.49-.49-1.15-.66-1.97-.66h0c-.82,0-1.32.33-1.81.82-.33.49-.66,1.32-.49,2.14l.33,3.78,5.1-.33h0ZM1299.43,673.68l-14.14-2.96-.33-2.96,13.32-5.59v1.64c.16,0-3.29,1.32-3.29,1.32l.49,5.92,3.62.66v1.64l.33.33ZM1294.17,670.88l-.49-4.93-7.57,3.13v.33l8.06,1.64v-.16ZM1298.11,660.85h-1.48c0,.16-.16-1.81-.16-1.81l-10.86,1.32v1.97c.16,0-1.32.16-1.32.16l-.66-5.43c-.16-1.81,0-3.29.82-4.28.82-1.15,2.14-1.81,4.11-1.97l2.47-.33c1.97-.16,3.45,0,4.44.99.99.82,1.64,2.14,1.81,3.95l.66,5.43h.16ZM1296.3,657.39v-1.81c-.33-1.32-.82-2.3-1.48-2.96s-1.81-.82-3.13-.66l-2.63.33c-1.32.16-2.3.66-2.96,1.32-.49.82-.82,1.81-.66,3.13v1.81c.16,0,10.86-1.32,10.86-1.32v.16ZM1296.47,647.2l-13.65,1.97v-1.64c-.16,0,13.49-1.97,13.49-1.97v1.64h.16ZM1295.32,637.33c.16,1.64,0,2.96-.82,4.11s-2.14,1.81-3.95,2.14l-3.13.49c-1.81.33-3.29,0-4.28-.82-1.15-.82-1.81-2.14-1.97-3.62-.16-1.64,0-2.96.82-4.11s2.14-1.81,3.95-2.14l3.13-.49c1.81-.33,3.29,0,4.28.82,1.15.82,1.81,1.97,1.97,3.62ZM1293.84,637.66c-.16-1.15-.66-1.97-1.48-2.63-.82-.49-1.81-.66-3.13-.49l-3.29.49c-1.32.16-2.14.66-2.8,1.48s-.82,1.81-.66,2.96c.16,1.15.66,1.97,1.48,2.63.82.49,1.81.66,3.13.49l3.29-.49c1.32-.16,2.14-.66,2.8-1.48s.82-1.64.66-2.96ZM1293.18,625.65l-14.31-1.81-.49-2.8,12.83-6.58.33,1.64-3.29,1.64.99,5.76,3.62.49.33,1.64h0ZM1287.75,623.35l-.82-4.93-7.24,3.78v.33l8.22.99-.16-.16ZM1290.71,612.33l-13.49,2.8-.99-5.26v-2.3c.16-.66.49-1.32.99-1.81.49-.49,1.15-.82,1.97-.99h.33c.82-.16,1.48,0,2.3,0,.66.33,1.15.66,1.64,1.32s.66,1.32.82,1.97l.66,3.62,5.43-1.15.33,1.64v.16ZM1283.47,612.16l-.66-3.45c-.16-.82-.49-1.48-.99-1.97-.49-.49-1.15-.49-1.97-.33h-.16c-.82.16-1.32.49-1.64,1.15-.33.66-.49,1.32-.16,2.14l.66,3.45,5.1-.99h-.16ZM1288.41,600.81l-13.49,2.96-1.81-8.39,1.48-.33,1.48,6.74,4.44-.99-1.32-6.09,1.48-.33,1.32,6.09,4.61-.99-1.48-6.74,1.48-.33,1.81,8.39h0ZM1286.27,590.78l-7.89-2.63-5.59,5.92-.49-1.97,4.77-4.77v-.33l-6.41-2.14-.49-1.81,7.73,2.63,5.76-5.92.49,1.81-4.77,4.93v.33l6.58,2.14.49,1.81h-.16Z"/>
      <path class="cls-8" d="M576.06,1011.18l5.59-12.66,2.96,1.32-.82,13.65h.16l5.26-11.51,1.48.66-5.59,12.66-2.96-1.32.82-13.65h-.33l-5.26,11.51-1.48-.66h.16ZM592.68,1018.75c-1.48-.66-2.63-1.48-3.13-2.8s-.49-2.8.16-4.44l1.15-2.96c.66-1.64,1.64-2.8,2.96-3.29s2.63-.49,4.28,0c1.48.66,2.63,1.48,3.13,2.8s.49,2.8-.16,4.44l-1.15,2.96c-.66,1.64-1.64,2.8-2.96,3.29s-2.63.49-4.11,0h-.16ZM593.17,1017.27c1.15.49,2.14.49,2.96,0s1.48-1.15,1.97-2.47l1.15-2.96c.49-1.15.49-2.3.16-3.13-.33-.99-.99-1.64-2.14-1.97-1.15-.49-2.14-.49-2.96,0s-1.48,1.15-1.97,2.47l-1.15,2.96c-.49,1.15-.49,2.3-.16,3.13.33.82.99,1.64,2.14,1.97ZM601.56,1021.87l2.47-13.82,1.64.49-2.3,12.66h.33l6.58-11.18,2.8.99-1.81,12.83h.33l6.09-11.35,1.64.49-6.58,12.34-2.8-.99,1.81-12.99h-.33l-6.58,11.18-2.8-.99-.49.33ZM621.29,1028.29l3.78-13.32,5.1,1.48c.82.16,1.48.66,1.97,1.15.49.49.99.99,1.15,1.81.16.66.16,1.48,0,2.3v.33c-.33.82-.66,1.48-1.15,1.97-.49.49-1.15.82-1.81.82h-2.3l-3.45-.99-1.48,5.43-1.64-.49-.16-.49ZM624.75,1022.04l3.29.99c.82.16,1.64.16,2.14,0,.66-.33.99-.82,1.32-1.64h0c.16-.99,0-1.64-.16-2.14-.33-.49-.99-.99-1.81-1.15l-3.29-.99-1.48,5.1v-.16ZM632.64,1031.41l3.13-13.49,1.64.33-2.8,12.01,6.74,1.64-.33,1.48-8.39-1.97h0ZM642.18,1033.72l6.91-12.66,2.8.66,1.48,14.31-1.64-.33-.33-3.62-5.76-1.15-1.81,3.29-1.64-.33v-.16ZM646.29,1029.44l4.93.99-.82-8.06h-.33l-3.95,7.07h.16ZM657.48,1036.68l.82-5.26-3.45-9.21,1.81.33,2.63,7.07h.33l4.77-5.92,1.81.33-6.25,7.57-.82,5.26-1.64-.33v.16ZM665.87,1037.99l1.81-13.65h1.64c0,.16-1.81,13.98-1.81,13.98h-1.64v-.33ZM670.64,1038.65l1.48-13.65,3.13.33,3.45,13.16h.33l1.48-12.66h1.64c0,.16-1.48,13.98-1.48,13.98l-3.13-.33-3.29-13.16h-.33l-1.48,12.66h-1.64l-.16-.33ZM688.4,1040.62c-.99,0-1.97-.33-2.63-.82-.82-.49-1.32-1.15-1.64-1.97s-.49-1.97-.49-3.13v-3.13c.33-1.81.99-3.13,1.97-4.11.99-.82,2.3-1.32,3.95-1.15,1.64,0,2.8.66,3.62,1.64s1.15,2.14.99,3.62h-1.64c0-.82,0-1.32-.16-1.97-.16-.49-.49-.99-.99-1.32-.49-.33-1.15-.49-1.81-.66-1.15,0-2.14.16-2.8.82-.66.66-1.15,1.64-1.15,2.96v3.29c-.33,1.32,0,2.3.49,3.13.66.82,1.48,1.15,2.63,1.32,1.15,0,1.97-.16,2.63-.82s.99-1.48.99-2.63v-.33l-4.11-.33v-1.48l5.92.33-.49,6.58h-1.48v-1.64h-.33c-.16.33-.33.49-.66.82-.33.33-.66.49-1.15.66-.49,0-.99.16-1.81,0l.16.33ZM701.23,1036.51v-1.48h5.92v1.48h-5.92ZM714.55,1041.12l-.33-13.82h3.29l5.1,12.5h.33l-.33-12.83h1.64l.33,13.82h-3.29l-5.1-12.5h-.33l.33,12.83h-1.64ZM732.64,1040.46c-1.64,0-2.96-.33-4.11-1.15-.99-.82-1.64-2.3-1.81-4.11v-3.13c-.33-1.81,0-3.29.99-4.28s2.14-1.64,3.78-1.64,2.96.33,4.11,1.15c.99.82,1.64,2.3,1.81,4.11v3.13c.33,1.81,0,3.29-.99,4.28s-2.14,1.64-3.78,1.64ZM732.64,1039.14c1.15,0,2.14-.49,2.63-1.32.66-.82.82-1.81.82-3.13v-3.29c-.33-1.32-.66-2.3-1.48-2.96-.66-.66-1.64-.99-2.8-.82-1.15,0-2.14.49-2.63,1.32-.66.82-.82,1.81-.82,3.13v3.29c.33,1.32.66,2.3,1.48,2.96.66.66,1.64.99,2.8.82ZM742.18,1039.47l-3.78-13.49h1.64c0-.16,3.45,12.17,3.45,12.17h.33l.99-12.99,2.96-.33,3.95,12.34h.33l.49-12.99h1.64c0-.16-.66,13.82-.66,13.82l-2.96.33-3.95-12.5h-.33l-.99,12.99-2.96.33-.16.33ZM762.74,1036.84l-2.47-13.65,5.26-.99h2.3c.66.16,1.32.49,1.81.99.49.49.82,1.15.99,1.97v.33c.16.82,0,1.48,0,2.3-.33.66-.66,1.15-1.32,1.64s-1.32.66-2.14.82l-3.62.66.99,5.43-1.64.33-.16.16ZM763.07,1029.44l3.45-.66c.82,0,1.48-.49,1.97-.99.49-.49.49-1.15.49-1.97h0c0-.99-.49-1.48-1.15-1.81-.49-.33-1.32-.49-2.14-.33l-3.45.66.99,5.1h-.16ZM774.42,1034.54l-2.96-13.49,1.64-.33,2.63,12.01,6.91-1.48.33,1.48-8.39,1.81h-.16ZM783.8,1032.56l.66-14.47,2.8-.66,7.57,12.34-1.64.49-1.97-3.13-5.76,1.48v3.62c-.16,0-1.81.49-1.81.49l.16-.16ZM785.77,1026.97l4.93-1.32-4.28-6.91h-.33l-.33,8.22h0ZM798.93,1028.45l-1.48-5.1-7.07-6.74,1.81-.49,5.43,5.26h.33l1.64-7.4,1.81-.49-2.3,9.54,1.48,5.1-1.64.49v-.16ZM806.99,1026.15l-4.28-13.16,1.64-.49,4.28,13.16-1.64.49ZM811.59,1024.51l-4.61-12.99,2.96-1.15,8.88,10.36h.16l-4.28-12.17,1.48-.49,4.61,12.99-2.96,1.15-8.88-10.53h-.33l4.28,12.17-1.48.49.16.16ZM828.53,1018.58c-.99.33-1.81.49-2.8.49-.82,0-1.64-.49-2.47-1.15-.66-.66-1.32-1.48-1.81-2.63l-1.15-2.96c-.66-1.64-.82-3.13-.16-4.44.49-1.32,1.64-2.14,3.13-2.8s2.8-.66,3.95,0c1.15.49,1.97,1.48,2.47,2.8h0l-1.48.66h0c-.16-.66-.49-1.32-.99-1.64s-.82-.66-1.48-.66-1.15,0-1.97.33c-1.15.49-1.81,1.15-2.14,1.97-.33.82-.33,1.97.16,3.13l1.15,2.96c.49,1.15,1.15,1.97,1.97,2.47s1.81.33,2.96,0c1.15-.49,1.81-.99,1.97-1.81.33-.82.16-1.81-.16-2.8v-.33l-3.95,1.48-.49-1.32,5.43-2.14,2.47,6.09-1.32.49-.49-1.32h-.33c0,.49,0,.82-.33,1.15,0,.33-.33.66-.82.99-.33.33-.82.66-1.48.82l.16.16ZM838.24,1009.37l-.66-1.32,5.26-2.47.66,1.32-5.26,2.47h0ZM852.22,1007.56l-6.41-12.34,2.8-1.48,10.2,9.05h.16l-5.92-11.51,1.48-.82,6.41,12.34-2.8,1.48-10.2-9.05h-.16l5.92,11.51-1.48.82ZM868.34,999.18c-1.48.82-2.8.99-4.11.66-1.32-.33-2.47-1.32-3.29-2.96l-1.64-2.8c-.99-1.64-1.15-2.96-.82-4.28s1.32-2.47,2.63-3.29c1.48-.82,2.8-.99,4.11-.66,1.32.33,2.47,1.32,3.29,2.8l1.64,2.8c.99,1.64,1.15,2.96.82,4.44-.33,1.32-1.32,2.3-2.63,3.13v.16ZM867.51,997.86c.99-.66,1.64-1.32,1.81-2.3.16-.99,0-1.97-.66-3.13l-1.64-2.8c-.66-1.15-1.48-1.81-2.3-2.14-.99-.33-1.97,0-2.96.49-.99.66-1.64,1.32-1.81,2.3-.16.99,0,1.97.66,3.13l1.64,2.8c.66,1.15,1.48,1.81,2.3,2.14.99.33,1.97,0,2.96-.49ZM876.23,994.08l-9.38-10.36,1.32-.82,8.55,9.7h.16l-4.77-12.34,2.47-1.64,9.05,9.38h.16l-5.26-12.01,1.32-.82,5.59,12.83-2.47,1.64-9.05-9.38h-.16l4.77,12.34-2.47,1.64.16-.16ZM893.67,982.73l-8.22-11.18,4.28-3.13c.66-.49,1.32-.82,2.14-.99.66,0,1.48,0,2.14.16.66.33,1.32.66,1.81,1.32h0c.49.82.82,1.64.82,2.3s0,1.32-.49,1.97c-.33.66-.82,1.15-1.48,1.64l-2.96,2.14,3.29,4.44-1.32.99v.33ZM890.87,975.98l2.8-1.97c.66-.49,1.15-1.15,1.32-1.81,0-.66,0-1.32-.49-1.97h0c-.49-.82-.99-1.15-1.64-1.15s-1.32.16-2.14.66l-2.8,1.97,3.13,4.28h-.16ZM903.21,975.66l-8.55-10.86,1.32-.99,7.57,9.7,5.43-4.28.99,1.15-6.74,5.43v-.16ZM910.77,969.57l-5.59-13.32,2.3-1.81,12.17,7.73-1.32,1.15-3.13-1.97-4.44,3.78,1.48,3.29-1.32,1.15h-.16ZM909.95,963.81l3.78-3.29-6.91-4.44h-.16c0,.16,3.29,7.73,3.29,7.73ZM922.61,959.37l-3.62-3.95-9.38-2.96,1.48-1.32,7.24,2.47h.16c0-.16-1.64-7.57-1.64-7.57l1.48-1.32,2.14,9.7,3.62,3.95-1.15,1.15-.33-.16ZM928.86,953.62l-9.54-10.03,1.15-1.15,9.54,10.03-1.15,1.15ZM932.32,950.33l-9.87-9.7,2.3-2.3,12.5,5.59h.16c0-.16-9.05-9.21-9.05-9.21l1.15-1.15,9.87,9.7-2.3,2.3-12.5-5.59h-.16c0,.16,9.05,9.21,9.05,9.21l-1.15,1.15ZM944.82,937.5c-.66.82-1.48,1.32-2.3,1.64s-1.64.33-2.63,0c-.99-.16-1.81-.82-2.8-1.64l-2.3-2.14c-1.32-1.15-1.97-2.47-2.14-3.95,0-1.32.49-2.63,1.64-3.95,1.15-1.15,2.3-1.81,3.45-1.81,1.32,0,2.47.49,3.45,1.48h0l-1.15,1.32h0c-.49-.49-.99-.82-1.48-.99-.49-.16-1.15-.16-1.64,0s-1.15.49-1.64,1.15c-.82.82-1.15,1.81-.99,2.8,0,.99.66,1.81,1.48,2.8l2.47,2.14c.99.82,1.97,1.32,2.96,1.32s1.81-.49,2.63-1.32,1.15-1.64.99-2.47c0-.82-.66-1.64-1.32-2.3h-.33c0-.16-2.8,2.8-2.8,2.8l-.99-.99,3.95-4.28,4.93,4.44-.99,1.15-1.15-.99h-.16c0,.49.16.82.16,1.15s0,.82-.16,1.32-.49.99-.99,1.48l-.16-.16ZM949.59,925.16l-1.15-.99,3.78-4.44,1.15.99-3.78,4.44ZM961.43,917.43l-11.02-8.22,1.97-2.63,13.16,3.78h0c0-.16-10.2-7.89-10.2-7.89l.99-1.32,11.02,8.22-1.97,2.63-13.16-3.78h-.16c0,.16,10.2,7.89,10.2,7.89l-.99,1.32h.16ZM972.29,902.79c-.99,1.32-2.14,2.14-3.45,2.47s-2.8,0-4.28-1.15l-2.63-1.81c-1.48-.99-2.3-2.14-2.63-3.62-.16-1.32,0-2.8.99-4.11s2.14-2.14,3.45-2.47,2.8,0,4.28,1.15l2.63,1.81c1.48.99,2.47,2.3,2.63,3.62s0,2.63-.99,4.11ZM971.13,901.97c.66-.99.82-1.97.66-2.96s-.82-1.81-1.97-2.47l-2.63-1.81c-.99-.66-2.14-.99-2.96-.82-.99,0-1.81.66-2.47,1.64s-.82,1.97-.66,2.96.82,1.81,1.97,2.47l2.63,1.81c.99.66,2.14.99,2.96.82.99,0,1.81-.66,2.47-1.64ZM977.22,894.73l-12.99-5.26.82-1.48,11.84,5.1h0c0-.16-9.54-9.05-9.54-9.05l1.48-2.47,12.17,4.61h0c0-.16-9.87-8.55-9.87-8.55l.82-1.48,10.53,9.21-1.48,2.47-12.34-4.61h0c0,.16,9.54,9.21,9.54,9.21l-1.64,2.47.66-.16ZM987.91,876.97l-12.17-6.58,2.47-4.61c.33-.66.82-1.32,1.48-1.64.66-.49,1.32-.66,1.97-.66s1.48,0,2.14.49h.16c.66.49,1.32.99,1.64,1.64s.49,1.32.49,1.97-.16,1.48-.66,2.14l-1.64,3.13,4.93,2.63-.82,1.48h0ZM982.48,872.2l1.64-3.13c.49-.82.49-1.48.33-2.14,0-.66-.66-1.15-1.32-1.64h-.16c-.66-.49-1.32-.49-1.97-.33s-1.15.66-1.64,1.48l-1.64,3.13,4.61,2.47.16.16ZM993.5,866.44l-12.5-6.09.66-1.48,11.02,5.43,3.13-6.25,1.32.66-3.78,7.73h.16ZM997.62,857.73l-10.86-9.54,1.15-2.63,14.31,1.81-.66,1.64-3.62-.49-2.47,5.43,2.8,2.47-.66,1.64v-.33ZM994.49,852.79l1.97-4.61-8.06-.99v.33l6.09,5.43v-.16ZM1003.87,843.42l-4.93-1.97-9.7,1.32.66-1.81,7.57-.99v-.33l-4.61-5.92.66-1.81,6.09,7.73,4.93,1.97-.66,1.48v.33ZM1006.99,835.52l-12.99-4.77.66-1.48,12.99,4.77-.66,1.48ZM1008.64,830.92l-13.16-4.44.99-3.13,13.65-.49h0c0-.16-12.17-4.28-12.17-4.28l.49-1.48,13.16,4.44-.99,3.13-13.65.49v.33l12.01,4.11-.49,1.48.16-.16ZM1014.39,813.98c-.33.99-.82,1.81-1.32,2.47-.66.66-1.48.99-2.3,1.15-.99.16-1.97,0-3.13-.16l-2.96-.82c-1.81-.49-2.96-1.32-3.62-2.63-.66-1.15-.66-2.63-.33-4.11.49-1.64,1.32-2.63,2.3-3.13,1.15-.49,2.3-.66,3.78-.16h0l-.49,1.64h0c-.66-.16-1.15-.33-1.81-.16-.49,0-.99.33-1.48.66-.49.33-.82.99-.99,1.64-.33,1.15-.16,2.14.33,2.96s1.32,1.48,2.63,1.81l3.13.99c1.32.33,2.3.33,3.13,0,.82-.49,1.48-1.15,1.81-2.3.33-1.15.33-1.97-.16-2.8-.49-.66-1.32-1.15-2.3-1.48h-.33l-1.15,3.95-1.32-.33,1.64-5.59,6.25,1.81-.49,1.48-1.48-.49v.33c0,.16.33.49.49.82s.33.66.33,1.15,0,.99-.16,1.81v-.49ZM1013.24,800.65l-1.48-.33,1.32-5.76,1.48.33-1.32,5.76ZM1020.48,788.48l-13.65-2.63.66-3.13,13.49-2.3v-.33l-12.5-2.3.33-1.64,13.65,2.63-.66,3.13-13.49,2.3v.33l12.5,2.3-.33,1.64ZM1023.93,770.72c-.16,1.64-.82,2.8-1.97,3.62s-2.47,1.15-4.28.82l-3.13-.49c-1.81-.33-3.13-.99-3.95-1.97-.82-1.15-1.15-2.47-.82-4.11.16-1.64.99-2.8,1.97-3.62,1.15-.82,2.47-1.15,4.28-.82l3.13.49c1.81.33,3.13.99,3.95,2.14.82,1.15,1.15,2.47.82,4.11v-.16ZM1022.45,770.55c.16-1.15,0-2.14-.66-2.96s-1.48-1.15-2.8-1.48l-3.29-.49c-1.32-.16-2.3,0-3.13.49s-1.32,1.48-1.48,2.63c-.16,1.15,0,2.14.66,2.96s1.48,1.15,2.8,1.48l3.29.49c1.32.16,2.3,0,3.13-.49s1.32-1.48,1.48-2.63ZM1024.75,761.34l-13.98.82v-1.64l12.99-.66v-.33l-12.34-3.78.33-2.96,12.99-1.32v-.33l-12.5-3.13v-1.64l13.65,3.62-.33,2.96-12.99,1.32v.33l12.5,3.78-.33,2.96ZM1026.56,740.62l-13.82-.49v-5.26c.16-.82.49-1.48.82-2.14s.82-1.15,1.48-1.48,1.32-.49,2.14-.49h.33c.82,0,1.48.33,2.14.66s.99.99,1.32,1.64.49,1.48.33,2.14v3.62l5.43.16v1.64h-.16ZM1019.66,738.65v-3.45c0-.82,0-1.64-.49-2.14s-.99-.82-1.81-.82h-.16c-.82,0-1.48.16-1.81.66-.49.49-.66,1.15-.82,2.14v3.45l5.1.16h0ZM1026.89,728.78h-13.82v-1.64h12.34v-6.91h1.48v8.72-.16ZM1026.89,719.07l-13.98-3.78v-2.96l13.65-4.61v1.64l-3.45,1.15v5.92c.16,0,3.78.99,3.78.99v1.64h0ZM1021.79,716.11v-5.1l-7.89,2.63v.33l7.89,2.14ZM1026.23,703.45l-5.26.33-8.22,5.43v-1.81l6.25-4.11v-.33l-6.91-3.29v-1.81l8.72,4.28,5.26-.33v1.64h.16ZM1025.58,695.06l-13.82,1.32v-1.64l13.65-1.32v1.64h.16ZM1025.08,690.29l-13.65,1.64-.33-3.13,12.01-6.41v-.33l-12.66,1.64v-1.64c-.16,0,13.49-1.64,13.49-1.64l.33,3.13-12.17,6.41v.33l12.66-1.64v1.64h.33ZM1022.94,672.53c.16.99,0,1.97-.16,2.8-.33.82-.82,1.48-1.64,2.14-.82.49-1.64.99-2.96,1.15l-3.13.49c-1.81.33-3.29,0-4.28-.82-1.15-.82-1.81-1.97-2.14-3.62-.33-1.64,0-2.96.66-3.95.82-.99,1.81-1.64,3.29-1.81h0l.33,1.64h0c-.66,0-1.15.33-1.64.66s-.82.82-.99,1.32-.33,1.15,0,1.97c.16,1.15.66,1.97,1.48,2.47s1.81.66,3.13.49l3.13-.49c1.32-.16,2.14-.66,2.8-1.48s.82-1.81.66-2.96c-.16-1.15-.66-1.97-1.32-2.3-.82-.49-1.64-.49-2.8-.33h-.33l.66,4.11h-1.48c0,.16-.99-5.43-.99-5.43l6.41-1.15v1.48c.16,0-1.32.16-1.32.16v.33c.33,0,.66.33.99.49s.66.49.82.99c.16.49.49.99.49,1.64h.33Z"/>
    </g>
    <g id="turntable">
      <circle class="cls-6" cx="708.1" cy="724.8" r="123.5"/>
      <g>
        <circle class="cls-6" cx="711.26" cy="728.61" r="203.13"/>
        <g class="cls-4">
          <polyline class="cls-7" points="1787.76 69.26 1249.54 1021.06 1094.71 1111.93"/>
          <rect class="cls-5" x="1766.65" y="14.3" width="70.04" height="58.06" transform="translate(263.04 -895.03) rotate(30)"/>
          <circle class="cls-3" cx="1726.3" cy="173.87" r="42.75"/>
          <circle class="cls-5" cx="708.1" cy="724.8" r="707.6"/>
          <circle class="cls-5" cx="708.1" cy="724.8" r="656.96"/>
          <circle class="cls-5" cx="708.1" cy="724.8" r="596.39"/>
          <circle class="cls-5" cx="708.1" cy="724.8" r="526.26"/>
          <circle class="cls-5" cx="708.1" cy="724.8" r="455.83"/>
          <circle class="cls-5" cx="708.1" cy="724.8" r="389.44"/>
          <circle class="cls-5" cx="708.1" cy="724.8" r="258.62"/>
          <circle class="cls-5" cx="708.1" cy="724.8" r="317.08"/>
          <path class="cls-10" d="M1071.4,1137.11l-10.82-22.09,30.18-14.78,10.82,22.09-30.18,14.78ZM1065.3,1116.63l7.72,15.76,23.85-11.68-7.72-15.76-23.85,11.68Z"/>
          <circle class="cls-5" cx="1726.03" cy="173.87" r="79.02"/>
        </g>
      </g>
    </g>
  </g>
</svg>