<?xml version="1.0" encoding="UTF-8"?>
<svg id="Layer_2" data-name="Layer 2" xmlns="http://www.w3.org/2000/svg" viewBox="0 0 2103.92 2103.92">
  <defs>
    <style>
      .cls-1 {
        fill: none;
        stroke: #fff;
        stroke-miterlimit: 10;
      }

      .cls-2, .cls-3 {
        fill: #f2f2f2;
      }

      .cls-3, .cls-4 {
        opacity: .1;
      }
    </style>
  </defs>
  <g id="dots">
    <g>
      <g class="cls-4">
        <circle class="cls-1" cx="1051.96" cy="1051.96" r="1051.46"/>
        <circle class="cls-1" cx="1051.96" cy="1051.96" r="876.22"/>
        <circle class="cls-1" cx="1051.96" cy="1051.96" r="730.18"/>
        <circle class="cls-1" cx="1051.96" cy="1051.96" r="608.48"/>
        <circle class="cls-1" cx="1051.96" cy="1051.96" r="507.07"/>
        <circle class="cls-1" cx="1051.96" cy="1051.96" r="422.56"/>
        <circle class="cls-1" cx="1051.96" cy="1051.96" r="352.13"/>
        <circle class="cls-1" cx="1051.96" cy="1051.96" r="293.44"/>
        <circle class="cls-1" cx="1051.96" cy="1051.96" r="244.54"/>
        <circle class="cls-1" cx="1051.96" cy="1051.96" r="203.78"/>
        <circle class="cls-1" cx="1051.96" cy="1051.96" r="169.82"/>
        <circle class="cls-1" cx="1051.96" cy="1051.96" r="141.51"/>
        <circle class="cls-1" cx="1051.96" cy="1051.96" r="117.93"/>
        <circle class="cls-1" cx="1051.96" cy="1051.96" r="98.27"/>
        <circle class="cls-1" cx="1051.96" cy="1051.96" r="81.89"/>
        <circle class="cls-1" cx="1051.96" cy="1051.96" r="68.25"/>
      </g>
      <circle class="cls-3" cx="758.56" cy="1049.32" r="3.74"/>
      <circle class="cls-3" cx="1047.26" cy="934.04" r="3.74"/>
      <circle class="cls-3" cx="1189.76" cy="1151.82" r="3.74"/>
      <circle class="cls-3" cx="1001.21" cy="1249.53" r="3.74"/>
      <circle class="cls-3" cx="671.11" cy="868.09" r="6.03"/>
      <circle class="cls-3" cx="1305.2" cy="903.27" r="6.03"/>
      <circle class="cls-3" cx="612.65" cy="1305.16" r="6.03"/>
      <circle class="cls-3" cx="1051.96" cy="1345.13" r="6.03"/>
      <circle class="cls-3" cx="1413.49" cy="1271.01" r="6.03"/>
      <circle class="cls-3" cx="1558.75" cy="1053.06" r="6.03"/>
      <circle class="cls-3" cx="1458.69" cy="749.19" r="6.03"/>
      <circle class="cls-3" cx="458.79" cy="915.32" r="6.03"/>
      <circle class="cls-3" cx="1043.51" cy="758.78" r="6.03"/>
      <circle class="cls-3" cx="1255.87" cy="1059.09" r="6.03"/>
      <circle class="cls-3" cx="871.8" cy="1148.07" r="6.03"/>
      <g id="text01" class="cls-4">
        <path class="cls-2" d="M1320.3,1182.51l1.55-3.25-3.42-1.63.49-1.02,7.74,3.69-2.29,4.79-.83-.4,1.8-3.77-2.65-1.27-1.55,3.25-.83-.4Z"/>
        <path class="cls-2" d="M1317.28,1188.93l1.68-3.31-2.71-1.37-1.95,3.85-.83-.42,2.46-4.86,7.65,3.88-2.43,4.8-.83-.42,1.92-3.8-2.46-1.25-1.68,3.31-.83-.42Z"/>
        <path class="cls-2" d="M1313.94,1195.21l1.76-3.27-2.68-1.44-2.04,3.8-.81-.44,2.58-4.8,7.56,4.06-2.55,4.75-.81-.44,2.01-3.75-2.43-1.31-1.76,3.27-.82-.44Z"/>
        <path class="cls-2" d="M1309.62,1196.72l-2,3.53-.8-.46,2.56-4.52,7.46,4.23-.56.99-6.66-3.78Z"/>
        <path class="cls-2" d="M1302.07,1209.79c-.2-.47-.25-.97-.16-1.52s.33-1.12.69-1.71c.37-.59.83-1.04,1.4-1.33.56-.29,1.18-.4,1.85-.34.67.07,1.35.3,2.03.72l.64.39c1.1.68,1.79,1.46,2.08,2.35s.15,1.79-.43,2.72c-.47.76-1.04,1.25-1.72,1.48-.68.22-1.4.17-2.18-.17l.59-.96c1.08.42,1.92.14,2.52-.83.4-.64.47-1.27.22-1.88-.25-.61-.8-1.18-1.66-1.72l-.6-.37c-.82-.51-1.59-.72-2.3-.64s-1.27.43-1.66,1.07c-.22.36-.38.7-.46,1.02-.09.32-.09.63,0,.92l1.64,1.01,1.04-1.69.79.49-1.63,2.65-2.68-1.65Z"/>
        <path class="cls-2" d="M1299.74,1218.66c-.7-.46-1.24-.98-1.61-1.56-.37-.58-.55-1.18-.54-1.79,0-.61.2-1.21.58-1.79.37-.56.84-.97,1.4-1.23.56-.25,1.18-.33,1.85-.24.67.1,1.35.36,2.03.8l.52.34c.69.45,1.22.97,1.59,1.56.37.59.55,1.19.55,1.81s-.2,1.22-.57,1.78c-.38.57-.85.99-1.41,1.25-.56.26-1.19.33-1.87.22-.68-.11-1.37-.39-2.07-.85l-.45-.3ZM1300.82,1218.02c.85.56,1.61.82,2.29.77.68-.04,1.22-.37,1.62-.98.39-.6.47-1.22.24-1.86s-.75-1.23-1.55-1.77l-.53-.35c-.82-.54-1.58-.79-2.28-.76s-1.25.36-1.65.96c-.4.61-.49,1.23-.26,1.86.22.63.75,1.22,1.57,1.77l.53.35Z"/>
        <path class="cls-2" d="M1294.83,1225.71c-.69-.48-1.21-1.02-1.56-1.61-.35-.59-.51-1.19-.49-1.81.03-.61.24-1.2.63-1.77.39-.55.87-.95,1.44-1.19.57-.24,1.19-.3,1.86-.18.67.12,1.34.4,2,.86l.51.35c.68.47,1.19,1.01,1.55,1.6.35.6.52,1.21.49,1.83-.03.62-.23,1.21-.62,1.76-.39.56-.88.96-1.45,1.2s-1.2.29-1.88.17c-.68-.13-1.36-.43-2.05-.91l-.44-.31ZM1295.93,1225.11c.83.58,1.59.86,2.27.84s1.23-.33,1.65-.94c.41-.59.51-1.2.3-1.85-.21-.65-.71-1.25-1.49-1.82l-.52-.36c-.81-.56-1.56-.84-2.26-.82s-1.26.32-1.67.92c-.42.6-.52,1.21-.32,1.85.21.63.71,1.24,1.52,1.82l.52.36Z"/>
        <path class="cls-2" d="M1290.44,1224.94l6.89,5.11-1.44,1.94c-.44.6-.97,1.03-1.58,1.29-.61.26-1.25.34-1.92.23-.67-.11-1.33-.4-1.97-.87l-.44-.33c-.65-.48-1.13-1.03-1.43-1.64-.3-.61-.41-1.25-.33-1.91.08-.66.35-1.3.8-1.92l1.41-1.91ZM1295.92,1230.4l-5.41-4.01-.71.96c-.52.7-.7,1.41-.56,2.12.15.71.62,1.37,1.43,1.96l.4.3c.78.58,1.53.85,2.23.8.71-.05,1.31-.4,1.82-1.07l.79-1.06Z"/>
        <path class="cls-2" d="M1285.03,1238.31c.82-.58,1.53-.92,2.12-1.01s1.12.05,1.59.42c.53.42.79.98.8,1.68,0,.7-.26,1.38-.8,2.06-.37.46-.78.8-1.25,1.02s-.93.3-1.41.25-.89-.23-1.26-.52l.71-.89c.41.33.83.45,1.27.38.44-.07.84-.34,1.22-.81.35-.43.52-.85.53-1.25,0-.4-.17-.73-.51-1-.27-.22-.6-.29-.97-.21s-.86.34-1.46.77-1.12.73-1.56.89c-.44.16-.85.22-1.22.17-.37-.05-.73-.21-1.07-.48-.54-.43-.81-.99-.8-1.68.01-.68.3-1.38.87-2.09.37-.46.8-.82,1.29-1.08.5-.26.98-.37,1.46-.34s.91.2,1.3.51l-.71.89c-.41-.32-.84-.43-1.32-.32-.47.11-.91.42-1.31.92-.37.47-.56.9-.57,1.3,0,.4.15.73.48,1,.33.26.67.35,1.04.26.36-.09.87-.36,1.53-.83Z"/>
        <path class="cls-2" d="M1277.84,1247.29c-.64-.54-1.11-1.12-1.41-1.74-.3-.62-.4-1.23-.32-1.84.08-.61.35-1.18.79-1.71.44-.52.95-.87,1.54-1.05.59-.18,1.21-.19,1.87-.01.66.18,1.29.52,1.92,1.04l.47.4c.63.53,1.09,1.11,1.39,1.74.3.63.41,1.25.33,1.87-.08.62-.34,1.18-.78,1.7-.44.53-.96.88-1.55,1.07-.59.19-1.22.18-1.88,0-.66-.19-1.32-.56-1.96-1.1l-.41-.35ZM1278.99,1246.79c.78.66,1.5,1,2.18,1.04s1.25-.22,1.73-.78c.46-.55.62-1.15.46-1.81-.15-.66-.59-1.31-1.32-1.95l-.48-.41c-.75-.64-1.48-.98-2.18-1.03-.7-.05-1.28.21-1.75.76-.47.56-.63,1.16-.48,1.81.15.65.6,1.3,1.35,1.95l.49.41Z"/>
        <path class="cls-2" d="M1275.91,1256.33l-4.35-3.89c-.6-.54-.92-1.17-.97-1.89s.19-1.42.72-2.11l.19-.23c.62-.7,1.31-1.09,2.06-1.17.75-.08,1.46.18,2.12.76l4.36,3.89-.75.83-4.33-3.87c-.46-.41-.94-.61-1.42-.58-.48.03-.94.27-1.36.75-.43.48-.62.96-.6,1.44.03.48.27.93.74,1.34l4.34,3.87-.76.85Z"/>
        <path class="cls-2" d="M1263.66,1256.86l.78-.83,7.77,1.41-4.8-4.54.78-.83,6.23,5.89-.78.83-7.8-1.42,4.82,4.56-.77.82-6.23-5.89Z"/>
        <path class="cls-2" d="M1262.13,1258.42l6.06,6.07-1.71,1.71c-.53.53-1.11.88-1.75,1.05-.64.17-1.28.15-1.93-.06-.65-.21-1.26-.59-1.82-1.15l-.39-.39c-.57-.57-.96-1.18-1.17-1.84-.21-.65-.22-1.3-.05-1.94.18-.64.54-1.23,1.08-1.78l1.68-1.68ZM1266.74,1264.63l-4.75-4.76-.84.84c-.62.62-.9,1.29-.86,2.01.04.73.42,1.44,1.12,2.15l.35.35c.69.69,1.39,1.06,2.09,1.12.71.06,1.36-.21,1.96-.79l.93-.93Z"/>
        <path class="cls-2" d="M1222.81,1296.67l2.93-2.09-2.2-3.09.92-.66,4.98,6.99-4.33,3.08-.54-.75,3.4-2.42-1.71-2.39-2.93,2.09-.54-.75Z"/>
        <path class="cls-2" d="M1217.08,1300.8l3.08-2.08-1.7-2.52-3.57,2.42-.52-.77,4.51-3.05,4.81,7.1-4.46,3.02-.52-.77,3.52-2.39-1.55-2.29-3.08,2.08-.52-.77Z"/>
        <path class="cls-2" d="M1211.09,1304.68l3.12-2.01-1.64-2.56-3.63,2.33-.5-.78,4.58-2.95,4.64,7.21-4.53,2.91-.5-.78,3.58-2.3-1.49-2.32-3.12,2.01-.5-.78Z"/>
        <path class="cls-2" d="M1206.6,1303.89l-3.47,2.12-.48-.79,4.44-2.71,4.47,7.32-.97.59-3.99-6.53Z"/>
        <path class="cls-2" d="M1193.64,1311.67c.05-.5.25-.97.6-1.41.35-.43.83-.82,1.43-1.16.61-.34,1.23-.5,1.86-.48s1.23.22,1.78.6c.55.38,1.03.92,1.43,1.61l.37.65c.63,1.13.86,2.15.68,3.06-.18.92-.74,1.64-1.69,2.17-.78.44-1.52.59-2.22.46-.7-.13-1.31-.53-1.83-1.21l.99-.55c.74.89,1.61,1.06,2.6.5.66-.37,1.03-.88,1.11-1.54.08-.66-.13-1.42-.62-2.31l-.34-.61c-.47-.84-1.04-1.4-1.7-1.68-.66-.28-1.32-.24-1.97.13-.37.21-.67.43-.9.67-.23.24-.38.5-.46.8l.94,1.68,1.73-.97.45.81-2.71,1.52-1.54-2.74Z"/>
        <path class="cls-2" d="M1187.3,1318.29c-.39-.74-.61-1.46-.65-2.15-.04-.69.09-1.29.4-1.83.31-.53.76-.96,1.38-1.28.6-.31,1.2-.45,1.82-.39.62.05,1.19.28,1.74.69.54.41,1,.97,1.39,1.68l.29.55c.38.73.59,1.44.63,2.13s-.09,1.31-.4,1.85c-.31.54-.76.97-1.36,1.28-.61.32-1.22.45-1.84.4s-1.2-.29-1.74-.72c-.54-.43-1.01-1.01-1.4-1.75l-.25-.48ZM1188.55,1318.26c.47.9,1.02,1.5,1.63,1.79s1.25.27,1.9-.07c.63-.33,1-.83,1.12-1.51.11-.67-.05-1.44-.49-2.3l-.29-.56c-.46-.87-1-1.46-1.63-1.77-.63-.31-1.26-.29-1.91.04-.65.34-1.02.84-1.13,1.5-.11.66.06,1.43.52,2.31l.29.56Z"/>
        <path class="cls-2" d="M1179.59,1322.08c-.37-.76-.56-1.48-.58-2.16-.02-.69.13-1.29.45-1.82.32-.52.79-.94,1.41-1.24.61-.3,1.22-.41,1.83-.34s1.19.32,1.71.74c.53.43.97,1,1.34,1.72l.27.56c.36.74.55,1.46.57,2.15.02.69-.13,1.31-.46,1.84-.32.53-.79.95-1.39,1.24-.62.3-1.23.42-1.85.35-.62-.07-1.19-.32-1.72-.77s-.98-1.04-1.35-1.79l-.24-.49ZM1180.84,1322.08c.45.91.97,1.53,1.58,1.84s1.24.3,1.9-.02c.64-.31,1.03-.8,1.16-1.47s-.01-1.44-.42-2.31l-.28-.57c-.43-.89-.96-1.49-1.58-1.82s-1.25-.33-1.91,0c-.66.32-1.05.81-1.17,1.46-.13.65.02,1.43.45,2.33l.28.57Z"/>
        <path class="cls-2" d="M1176.13,1319.27l3.54,7.81-2.2,1c-.68.31-1.35.43-2.01.37s-1.25-.31-1.79-.73c-.54-.42-.97-1-1.3-1.71l-.23-.5c-.33-.74-.49-1.45-.45-2.13.03-.68.25-1.29.64-1.83.39-.54.94-.97,1.63-1.29l2.16-.98ZM1178.27,1326.7l-2.78-6.13-1.08.49c-.79.36-1.3.89-1.52,1.58-.22.69-.12,1.5.29,2.41l.21.46c.4.89.92,1.48,1.56,1.79.64.3,1.34.28,2.11-.05l1.2-.54Z"/>
        <path class="cls-2" d="M1164.91,1328.33c1-.11,1.79-.06,2.35.15.56.21.96.59,1.18,1.14.26.62.22,1.25-.11,1.86s-.9,1.08-1.7,1.41c-.54.22-1.07.32-1.59.28-.51-.04-.96-.19-1.35-.47-.39-.27-.67-.63-.85-1.07l1.05-.43c.2.48.5.8.92.95s.9.11,1.46-.12c.52-.21.87-.49,1.07-.83.2-.35.21-.72.04-1.12-.13-.32-.38-.54-.75-.65-.37-.11-.92-.13-1.65-.04-.74.08-1.33.09-1.8.02-.46-.07-.85-.22-1.15-.44-.3-.22-.54-.54-.7-.94-.26-.64-.22-1.26.12-1.85.34-.59.93-1.06,1.77-1.4.54-.22,1.1-.33,1.65-.31s1.04.15,1.44.41c.41.26.7.62.89,1.08l-1.05.43c-.2-.48-.53-.79-1-.92s-1-.08-1.59.16c-.55.23-.93.51-1.13.86s-.22.71-.06,1.1.42.63.78.74c.36.1.94.11,1.74.02Z"/>
        <path class="cls-2" d="M1154.24,1332.69c-.3-.79-.42-1.52-.38-2.21.04-.69.25-1.27.62-1.77.37-.49.88-.86,1.52-1.1.63-.24,1.25-.29,1.85-.17.61.12,1.15.42,1.64.9s.88,1.09,1.17,1.84l.22.58c.29.77.42,1.5.37,2.2-.04.69-.25,1.29-.62,1.79s-.87.87-1.5,1.11c-.64.24-1.27.3-1.87.18-.61-.12-1.16-.43-1.64-.92-.49-.49-.88-1.13-1.17-1.91l-.19-.51ZM1155.49,1332.81c.36.95.83,1.61,1.4,1.97.57.37,1.2.42,1.89.16.67-.25,1.1-.71,1.29-1.36.19-.65.12-1.44-.21-2.34l-.22-.59c-.35-.92-.82-1.57-1.4-1.95-.59-.38-1.22-.44-1.9-.19-.68.26-1.12.71-1.3,1.35-.19.64-.11,1.43.23,2.36l.23.59Z"/>
        <path class="cls-2" d="M1148.17,1339.64l-1.91-5.51c-.26-.77-.24-1.47.07-2.13.31-.65.86-1.15,1.66-1.49l.28-.11c.89-.31,1.68-.31,2.37-.02.69.3,1.19.86,1.48,1.7l1.91,5.52-1.06.37-1.9-5.49c-.2-.59-.52-.99-.96-1.2-.44-.21-.95-.22-1.55,0-.6.21-1.01.53-1.22.96-.21.43-.21.94,0,1.53l1.9,5.5-1.07.37Z"/>
        <path class="cls-2" d="M1137.21,1334.13l1.08-.34,6.1,5.01-1.98-6.31,1.08-.34,2.57,8.18-1.08.34-6.12-5.04,1.99,6.33-1.07.34-2.57-8.18Z"/>
        <path class="cls-2" d="M1135.1,1334.75l2.33,8.25-2.33.66c-.72.2-1.4.22-2.04.06-.64-.16-1.19-.49-1.66-.99s-.81-1.13-1.03-1.89l-.15-.53c-.22-.78-.26-1.5-.13-2.17s.44-1.24.9-1.71c.47-.47,1.07-.82,1.81-1.03l2.28-.65ZM1136.1,1342.43l-1.83-6.47-1.14.32c-.84.24-1.42.68-1.74,1.34-.32.65-.34,1.46-.07,2.43l.14.48c.26.94.69,1.6,1.28,2,.59.4,1.29.48,2.1.26l1.27-.36Z"/>
        <path class="cls-2" d="M884.81,1299.19l2.99,2,2.1-3.15.94.63-4.76,7.14-4.42-2.95.51-.77,3.48,2.32,1.63-2.45-2.99-2,.51-.77Z"/>
        <path class="cls-2" d="M878.91,1295.3l3.04,2.13,1.75-2.49-3.53-2.48.53-.76,4.46,3.13-4.92,7.02-4.41-3.09.53-.76,3.48,2.44,1.59-2.26-3.04-2.13.53-.76Z"/>
        <path class="cls-2" d="M873.16,1291.1l2.99,2.2,1.8-2.45-3.47-2.56.55-.75,4.38,3.23-5.09,6.9-4.33-3.2.55-.74,3.42,2.53,1.64-2.22-2.99-2.2.55-.74Z"/>
        <path class="cls-2" d="M872.3,1286.62l-3.21-2.49.57-.73,4.11,3.18-5.25,6.78-.9-.7,4.68-6.05Z"/>
        <path class="cls-2" d="M859.94,1280.35l2.77,2.3,2.42-2.92.87.72-5.48,6.6-4.09-3.39.59-.71,3.22,2.67,1.88-2.26-2.77-2.3.59-.71Z"/>
        <path class="cls-2" d="M853.11,1274.74c.55-.63,1.14-1.09,1.77-1.38.62-.29,1.24-.38,1.85-.29.61.09,1.17.37,1.69.82.51.44.85.96,1.02,1.56.17.59.17,1.22-.02,1.87-.19.65-.54,1.29-1.07,1.9l-.41.47c-.54.62-1.13,1.08-1.76,1.36-.63.29-1.25.38-1.87.29-.62-.09-1.18-.36-1.69-.8-.52-.45-.86-.98-1.04-1.57s-.16-1.22.04-1.88c.2-.66.58-1.31,1.13-1.94l.36-.41ZM853.6,1275.9c-.67.77-1.03,1.49-1.08,2.17-.05.68.2,1.26.75,1.74.54.47,1.14.64,1.81.5.67-.14,1.32-.57,1.97-1.29l.42-.47c.65-.74,1-1.46,1.06-2.16.06-.7-.18-1.28-.73-1.76-.55-.48-1.15-.65-1.8-.51-.65.14-1.31.58-1.97,1.32l-.42.48Z"/>
        <path class="cls-2" d="M846.81,1268.94c.57-.62,1.17-1.06,1.81-1.33.63-.27,1.25-.35,1.86-.24.6.11,1.16.4,1.67.87.5.46.82.99.98,1.58.16.6.13,1.22-.07,1.87-.21.65-.58,1.27-1.12,1.87l-.42.45c-.56.61-1.16,1.04-1.8,1.31-.64.27-1.27.35-1.88.24-.61-.11-1.17-.39-1.66-.85-.5-.47-.84-1-1-1.6s-.13-1.23.09-1.88.62-1.29,1.18-1.9l.37-.4ZM847.26,1270.11c-.69.75-1.07,1.46-1.14,2.13s.16,1.26.7,1.76c.52.48,1.12.67,1.79.55.67-.12,1.34-.53,2-1.23l.43-.46c.67-.72,1.04-1.43,1.12-2.13.08-.69-.15-1.29-.68-1.78-.54-.5-1.13-.68-1.79-.57-.66.12-1.33.54-2.01,1.26l-.43.47Z"/>
        <path class="cls-2" d="M848.18,1264.69l-6,6.13-1.73-1.69c-.53-.52-.89-1.1-1.07-1.74-.18-.64-.17-1.28.04-1.93s.58-1.26,1.13-1.83l.38-.39c.57-.58,1.17-.98,1.82-1.19.65-.22,1.29-.24,1.94-.07.64.17,1.24.52,1.79,1.06l1.7,1.66ZM842.02,1269.37l4.71-4.81-.85-.83c-.62-.61-1.3-.89-2.02-.84-.73.05-1.44.43-2.14,1.15l-.35.36c-.68.7-1.05,1.4-1.1,2.1-.05.71.22,1.36.82,1.95l.94.92Z"/>
        <path class="cls-2" d="M835.66,1257.5c.46.9.7,1.64.71,2.24,0,.6-.2,1.11-.64,1.52-.49.46-1.08.65-1.77.57-.69-.09-1.33-.44-1.93-1.07-.41-.43-.68-.89-.84-1.38s-.17-.97-.05-1.43.35-.85.69-1.18l.78.82c-.38.36-.56.76-.55,1.2.01.44.22.88.64,1.32.38.4.77.63,1.17.69.39.06.75-.06,1.07-.37.25-.24.37-.55.34-.93-.03-.38-.21-.9-.56-1.55-.34-.65-.57-1.21-.67-1.67s-.1-.87,0-1.23c.1-.36.31-.69.62-.99.5-.48,1.09-.67,1.77-.56.68.1,1.33.49,1.95,1.14.41.43.7.9.89,1.43s.23,1.02.14,1.5c-.09.47-.32.88-.68,1.22l-.78-.82c.38-.36.54-.78.5-1.26-.05-.48-.29-.96-.73-1.42-.41-.43-.81-.68-1.21-.74-.4-.06-.75.05-1.05.34s-.44.62-.4.99c.04.37.24.92.61,1.63Z"/>
        <path class="cls-2" d="M827.75,1249.15c.62-.56,1.26-.95,1.92-1.16s1.28-.23,1.87-.07c.59.16,1.12.5,1.58,1.02.45.5.73,1.06.83,1.67.1.61.02,1.23-.24,1.85-.26.63-.69,1.21-1.29,1.76l-.46.41c-.61.55-1.25.93-1.91,1.14-.66.21-1.29.23-1.89.07-.6-.17-1.12-.5-1.58-1-.46-.51-.74-1.07-.84-1.68s-.02-1.23.26-1.86c.28-.63.73-1.23,1.35-1.79l.4-.36ZM828.09,1250.36c-.76.68-1.2,1.35-1.33,2.02-.13.67.05,1.27.54,1.82.48.53,1.06.77,1.73.71.68-.06,1.38-.41,2.11-1.04l.47-.42c.73-.66,1.17-1.33,1.31-2.02.14-.68-.03-1.3-.51-1.84-.49-.54-1.06-.79-1.73-.73-.66.06-1.37.42-2.12,1.07l-.47.43Z"/>
        <path class="cls-2" d="M819.06,1246.01l4.44-3.78c.62-.52,1.29-.76,2.01-.71s1.38.38,1.99,1l.2.22c.61.71.9,1.45.87,2.2-.03.75-.37,1.42-1.04,2l-4.45,3.79-.72-.85,4.42-3.76c.47-.4.73-.84.77-1.33.04-.48-.14-.96-.55-1.45-.41-.49-.86-.75-1.34-.79-.48-.04-.96.14-1.43.55l-4.43,3.77-.74-.87Z"/>
        <path class="cls-2" d="M820.2,1233.79l.71.89-2.45,7.5,5.15-4.14.71.89-6.69,5.37-.71-.89,2.47-7.53-5.18,4.16-.7-.88,6.69-5.37Z"/>
        <path class="cls-2" d="M818.86,1232.06l-6.84,5.18-1.46-1.93c-.45-.59-.72-1.22-.8-1.88-.08-.66.02-1.29.32-1.91.3-.62.76-1.16,1.39-1.64l.44-.33c.65-.49,1.3-.79,1.98-.91.67-.12,1.31-.05,1.92.22.61.26,1.15.7,1.62,1.31l1.43,1.89ZM812.07,1235.78l5.36-4.06-.72-.95c-.53-.69-1.15-1.07-1.88-1.13-.72-.06-1.49.21-2.29.82l-.4.3c-.78.59-1.24,1.23-1.4,1.92-.16.69.02,1.37.52,2.05l.8,1.05Z"/>
      </g>
      <g id="text02" class="cls-4">
        <path class="cls-2" d="M1552.04,698.39l-1.17-1.64-2.81,2.01-.66-.92,6.96-4.96,1.65,2.3c.56.78.81,1.51.76,2.19-.05.68-.42,1.26-1.1,1.75-.43.31-.89.46-1.38.46-.49,0-.96-.16-1.42-.46l-1.78,3.74-.06.04-.7-.98,1.74-3.52ZM1551.62,696.22l1.01,1.41c.33.46.7.73,1.13.83.43.1.84.01,1.24-.27.43-.31.67-.67.72-1.09.05-.42-.1-.87-.44-1.36l-1-1.41-2.64,1.89Z"/>
        <path class="cls-2" d="M1556.34,706.65l-2.04-2.94-2.29.61-.66-.96,8.88-2.19.56.81-5.15,7.56-.66-.95,1.37-1.95ZM1555.25,703.46l1.66,2.39,2.45-3.48-4.11,1.09Z"/>
        <path class="cls-2" d="M1556.4,710.68l7.08-4.78,1.35,2c.42.62.65,1.25.7,1.91s-.09,1.29-.42,1.88c-.33.6-.82,1.12-1.47,1.56l-.45.31c-.67.45-1.34.72-2.02.8-.68.08-1.31-.03-1.9-.32s-1.11-.76-1.54-1.39l-1.32-1.96ZM1563.35,707.35l-5.55,3.75.66.98c.49.72,1.09,1.13,1.81,1.23s1.49-.13,2.32-.69l.41-.28c.8-.54,1.3-1.15,1.49-1.83.19-.68.06-1.37-.41-2.07l-.74-1.09Z"/>
        <path class="cls-2" d="M1561.6,718.44l-.62-.94,7.13-4.71.62.94-7.13,4.71Z"/>
        <path class="cls-2" d="M1569.79,723.7c-.7.45-1.39.73-2.07.84-.68.1-1.29.03-1.85-.23-.56-.26-1.02-.67-1.4-1.25-.37-.57-.55-1.16-.56-1.77,0-.62.17-1.21.53-1.79s.87-1.08,1.54-1.53l.52-.33c.69-.45,1.38-.72,2.06-.82.68-.1,1.31-.02,1.87.23.57.26,1.03.67,1.4,1.23.37.58.56,1.17.57,1.79,0,.62-.18,1.22-.55,1.79s-.91,1.09-1.61,1.55l-.45.29ZM1569.65,722.46c.85-.55,1.39-1.14,1.63-1.78.23-.64.15-1.26-.25-1.88-.39-.6-.92-.92-1.6-.97-.68-.05-1.42.18-2.24.7l-.53.34c-.83.53-1.36,1.13-1.61,1.78-.25.65-.17,1.28.22,1.89.4.61.92.94,1.59.99s1.41-.19,2.25-.72l.53-.34Z"/>
        <path class="cls-2" d="M1573.55,733l-1.89-3.04-2.32.5-.61-.99,8.98-1.73.52.84-5.53,7.29-.61-.98,1.47-1.87ZM1572.62,729.76l1.53,2.47,2.63-3.35-4.16.88Z"/>
        <path class="cls-2" d="M1576.85,736.26l-2.86,1.73-.58-.97,7.32-4.41,1.63,2.7c.48.8.66,1.55.52,2.25s-.54,1.25-1.21,1.66c-.71.43-1.39.54-2.04.32-.65-.21-1.23-.73-1.73-1.56l-1.04-1.73ZM1577.64,735.79l1.05,1.74c.31.52.67.84,1.08.97.41.13.84.05,1.3-.22.44-.26.7-.61.8-1.04.1-.43,0-.89-.28-1.38l-1.08-1.79-2.87,1.73Z"/>
        <path class="cls-2" d="M1583.28,745.9l-1.88-3.2-2.61,1.53,2.18,3.71-.79.47-2.75-4.69,7.37-4.32,2.72,4.64-.79.47-2.15-3.66-2.37,1.39,1.88,3.2-.79.47Z"/>
        <path class="cls-2" d="M1586.94,749.62l3.86.16.66,1.15-5.02-.25-2.37,4.54-.66-1.16,1.85-3.48-3.94-.19-.66-1.16,5.12.27,2.34-4.45.66,1.15-1.82,3.41Z"/>
        <path class="cls-2" d="M1595.48,769l-.94-1.78-3.06,1.61-.53-1,7.56-3.98,1.32,2.51c.45.85.6,1.61.45,2.27-.15.66-.59,1.19-1.33,1.58-.47.25-.95.34-1.43.27-.48-.07-.93-.29-1.34-.65l-2.27,3.47-.06.03-.56-1.07,2.19-3.25ZM1595.36,766.79l.81,1.53c.26.5.6.82,1.01.98s.83.12,1.26-.1c.47-.25.75-.58.86-.99.1-.41.02-.88-.26-1.41l-.8-1.53-2.87,1.51Z"/>
        <path class="cls-2" d="M1598.64,777.78l-1.63-3.19-2.36.3-.53-1.04,9.1-.97.45.88-6.12,6.8-.53-1.03,1.62-1.74ZM1597.99,774.47l1.32,2.59,2.9-3.11-4.22.52Z"/>
        <path class="cls-2" d="M1598.16,781.78l7.66-3.78,1.07,2.17c.33.67.47,1.33.43,1.99-.04.66-.27,1.26-.67,1.81-.41.55-.96,1-1.66,1.35l-.49.24c-.72.36-1.42.53-2.11.52s-1.3-.2-1.84-.58c-.55-.37-.99-.9-1.34-1.59l-1.05-2.12ZM1605.49,779.42l-6.01,2.97.53,1.06c.38.78.93,1.27,1.62,1.46.7.19,1.5.07,2.39-.37l.45-.22c.87-.43,1.45-.97,1.73-1.62s.24-1.35-.12-2.1l-.58-1.18Z"/>
        <path class="cls-2" d="M1602.25,790.16l-.49-1.02,7.7-3.71.49,1.02-7.7,3.71Z"/>
        <path class="cls-2" d="M1609.66,796.46c-.76.36-1.48.54-2.16.55-.68.01-1.29-.15-1.8-.48-.52-.33-.92-.8-1.22-1.43-.29-.61-.39-1.22-.31-1.83.08-.61.33-1.18.77-1.7.43-.52,1.01-.96,1.74-1.31l.56-.26c.74-.35,1.46-.53,2.15-.54.69,0,1.3.15,1.82.48.53.33.93.8,1.22,1.41.29.62.4,1.24.32,1.85-.08.61-.34,1.18-.79,1.7s-1.05.96-1.8,1.31l-.49.23ZM1609.68,795.21c.92-.43,1.53-.95,1.85-1.54.32-.6.32-1.23,0-1.89-.3-.65-.79-1.04-1.45-1.18s-1.43-.01-2.31.39l-.57.27c-.89.42-1.5.93-1.83,1.54-.33.61-.34,1.25-.04,1.9.31.66.79,1.06,1.44,1.19.65.14,1.42,0,2.33-.41l.57-.27Z"/>
        <path class="cls-2" d="M1612.12,806.2l-1.46-3.27-2.37.18-.47-1.06,9.13-.5.4.9-6.47,6.47-.47-1.06,1.71-1.66ZM1611.64,802.86l1.19,2.66,3.06-2.96-4.24.3Z"/>
        <path class="cls-2" d="M1614.95,809.88l-3.07,1.32-.45-1.04,7.85-3.38,1.25,2.9c.37.86.44,1.63.21,2.3-.23.68-.7,1.17-1.43,1.48-.76.33-1.45.34-2.07.04-.62-.3-1.12-.89-1.5-1.78l-.8-1.85ZM1615.8,809.52l.8,1.86c.24.55.55.92.94,1.1.39.18.83.17,1.32-.04.47-.2.78-.51.93-.93.15-.42.12-.88-.09-1.4l-.83-1.92-3.08,1.33Z"/>
        <path class="cls-2" d="M1620.01,820.28l-1.42-3.42-2.8,1.16,1.66,3.98-.85.35-2.09-5.02,7.89-3.29,2.07,4.96-.85.35-1.63-3.92-2.54,1.06,1.42,3.42-.85.35Z"/>
        <path class="cls-2" d="M1623.15,824.5l3.8.68.5,1.23-4.94-.93-2.96,4.17-.5-1.24,2.31-3.2-3.88-.72-.5-1.24,5.03.97,2.92-4.09.49,1.23-2.27,3.13Z"/>
        <path class="cls-2" d="M1628.98,844.84l-.69-1.89-3.25,1.18-.39-1.07,8.03-2.92.97,2.66c.33.91.38,1.68.14,2.31-.23.64-.75,1.1-1.53,1.38-.5.18-.99.2-1.46.07-.47-.14-.88-.41-1.24-.83l-2.72,3.13-.07.02-.41-1.14,2.62-2.93ZM1629.16,842.64l.59,1.63c.19.53.48.9.87,1.11s.81.23,1.26.07c.5-.18.83-.47.98-.86.16-.39.14-.87-.06-1.43l-.59-1.62-3.05,1.11Z"/>
        <path class="cls-2" d="M1630.92,853.97l-1.18-3.38-2.38-.02-.38-1.1,9.14.27.33.93-6.99,5.9-.38-1.09,1.84-1.51ZM1630.72,850.6l.96,2.75,3.29-2.69-4.25-.05Z"/>
        <path class="cls-2" d="M1629.88,857.84l8.11-2.71.76,2.29c.24.71.29,1.38.16,2.03-.13.65-.43,1.21-.91,1.7-.48.49-1.09.86-1.83,1.11l-.52.17c-.76.25-1.48.33-2.16.23-.67-.1-1.26-.38-1.75-.82-.49-.44-.86-1.03-1.11-1.76l-.75-2.25ZM1637.47,856.5l-6.36,2.12.38,1.13c.28.82.75,1.38,1.41,1.67.67.29,1.47.27,2.42-.04l.47-.16c.92-.31,1.57-.76,1.93-1.37.37-.6.42-1.3.16-2.1l-.42-1.25Z"/>
        <path class="cls-2" d="M1632.81,866.71l-.35-1.07,8.13-2.63.35,1.07-8.13,2.63Z"/>
        <path class="cls-2" d="M1639.29,873.98c-.8.25-1.54.33-2.22.25-.68-.08-1.25-.32-1.72-.72s-.8-.92-1.01-1.58c-.2-.64-.22-1.26-.06-1.86s.49-1.12.99-1.58c.5-.46,1.13-.81,1.9-1.06l.59-.18c.78-.24,1.52-.32,2.21-.24.69.08,1.27.33,1.74.73.48.4.81.92,1.01,1.56.21.65.23,1.28.07,1.88-.16.6-.5,1.12-1.01,1.58-.52.46-1.17.81-1.97,1.06l-.52.16ZM1639.48,872.74c.97-.3,1.65-.73,2.04-1.28s.48-1.17.27-1.87c-.21-.68-.64-1.14-1.28-1.36-.64-.23-1.42-.21-2.34.07l-.6.19c-.94.29-1.61.72-2.03,1.28-.41.56-.51,1.19-.3,1.88.22.7.64,1.15,1.26,1.38.62.22,1.41.19,2.36-.09l.6-.19Z"/>
        <path class="cls-2" d="M1640.41,883.96l-1-3.44-2.37-.15-.33-1.12,9.12.74.28.95-7.29,5.53-.32-1.11,1.92-1.41ZM1640.39,880.59l.81,2.79,3.43-2.52-4.24-.27Z"/>
        <path class="cls-2" d="M1642.71,887.99l-3.22.89-.3-1.09,8.23-2.28.84,3.04c.25.9.22,1.67-.1,2.31-.32.64-.86,1.06-1.61,1.27-.8.22-1.48.14-2.05-.24s-.99-1.04-1.24-1.97l-.54-1.94ZM1643.6,887.74l.54,1.95c.16.58.42.99.78,1.22s.8.28,1.32.13c.49-.14.84-.4,1.05-.79.21-.39.24-.86.11-1.4l-.56-2.02-3.24.9Z"/>
        <path class="cls-2" d="M1646.31,899l-.95-3.58-2.93.77,1.1,4.16-.89.24-1.39-5.25,8.26-2.18,1.37,5.2-.89.24-1.08-4.11-2.66.7.95,3.58-.89.24Z"/>
        <path class="cls-2" d="M1648.84,903.57l3.67,1.19.32,1.29-4.77-1.59-3.5,3.73-.33-1.3,2.72-2.85-3.75-1.24-.33-1.29,4.85,1.64,3.45-3.66.32,1.28-2.67,2.8Z"/>
        <path class="cls-2" d="M1651.85,924.51l-.42-1.96-3.38.73-.24-1.11,8.35-1.8.6,2.77c.2.94.14,1.71-.17,2.31-.32.6-.89.99-1.71,1.16-.52.11-1,.07-1.45-.13-.45-.2-.82-.53-1.12-.99l-3.12,2.73h-.07s-.25-1.17-.25-1.17l2.99-2.54ZM1652.33,922.35l.36,1.69c.12.55.35.95.71,1.22.35.26.77.34,1.24.24.52-.11.88-.35,1.09-.72.21-.37.25-.84.13-1.43l-.36-1.69-3.17.68Z"/>
        <path class="cls-2" d="M1652.53,933.83l-.71-3.51-2.35-.35-.23-1.14,9.02,1.51.2.97-7.73,4.9-.23-1.13,2.03-1.24ZM1652.79,930.47l.58,2.85,3.63-2.22-4.21-.63Z"/>
        <path class="cls-2" d="M1650.99,937.55l8.4-1.58.45,2.37c.14.73.1,1.41-.12,2.03-.22.62-.6,1.14-1.13,1.56s-1.19.7-1.97.85l-.54.1c-.79.15-1.52.13-2.17-.07-.65-.19-1.19-.54-1.62-1.05s-.71-1.14-.86-1.89l-.44-2.33ZM1658.69,937.25l-6.59,1.24.22,1.17c.16.85.55,1.47,1.17,1.84.62.38,1.42.47,2.4.29l.49-.09c.96-.18,1.65-.54,2.1-1.09.44-.55.59-1.23.45-2.06l-.24-1.29Z"/>
        <path class="cls-2" d="M1652.68,946.72l-.2-1.11,8.41-1.5.2,1.11-8.41,1.5Z"/>
        <path class="cls-2" d="M1658.11,954.79c-.83.14-1.57.12-2.23-.05-.66-.17-1.2-.49-1.61-.95-.41-.46-.67-1.02-.79-1.7-.11-.66-.05-1.28.19-1.85.24-.57.64-1.05,1.19-1.43.56-.39,1.23-.65,2.03-.79l.61-.1c.81-.14,1.55-.12,2.22.06.67.18,1.21.5,1.63.96.42.46.68,1.02.79,1.69.11.68.05,1.3-.19,1.87-.24.57-.65,1.05-1.22,1.43s-1.27.64-2.09.78l-.53.09ZM1658.47,953.59c1-.17,1.73-.5,2.2-.99s.64-1.1.52-1.82c-.12-.7-.48-1.21-1.08-1.53-.6-.31-1.38-.4-2.33-.25l-.62.1c-.97.16-1.7.49-2.18,1-.49.5-.67,1.11-.55,1.82.12.72.47,1.23,1.06,1.54.59.31,1.37.38,2.35.23l.62-.1Z"/>
        <path class="cls-2" d="M1657.87,964.84l-.53-3.54-2.33-.47-.17-1.15,8.93,1.98.15.98-7.97,4.49-.17-1.14,2.09-1.14ZM1658.3,961.5l.43,2.88,3.74-2.03-4.17-.85Z"/>
        <path class="cls-2" d="M1659.6,969.15l-3.32.45-.15-1.12,8.47-1.15.42,3.13c.13.93-.01,1.69-.42,2.28-.4.59-.99.94-1.77,1.04-.82.11-1.49-.06-2-.51s-.83-1.16-.96-2.12l-.27-2ZM1660.51,969.03l.27,2.01c.08.6.28,1.04.61,1.32.33.28.75.38,1.29.31.5-.07.89-.28,1.15-.64s.36-.82.29-1.37l-.28-2.07-3.33.45Z"/>
        <path class="cls-2" d="M1661.67,980.53l-.45-3.68-3.01.37.53,4.27-.92.11-.66-5.39,8.48-1.04.66,5.33-.92.11-.52-4.22-2.73.34.45,3.68-.91.11Z"/>
        <path class="cls-2" d="M1663.55,985.41l3.48,1.68.15,1.32-4.51-2.22-3.98,3.22-.15-1.33,3.08-2.46-3.54-1.74-.15-1.33,4.59,2.28,3.91-3.16.15,1.31-3.03,2.41Z"/>
        <path class="cls-2" d="M464.19,1231.79l.58,1.92,3.31-1.01.33,1.08-8.18,2.49-.82-2.71c-.28-.92-.29-1.69-.02-2.32s.8-1.06,1.6-1.3c.51-.16,1-.15,1.46,0s.86.46,1.2.89l2.88-2.98.07-.02.35,1.16-2.77,2.78ZM463.89,1233.98l-.5-1.66c-.16-.54-.43-.92-.8-1.15-.37-.23-.79-.28-1.26-.14-.51.15-.85.42-1.03.81s-.18.86-.01,1.43l.5,1.65,3.11-.94Z"/>
        <path class="cls-2" d="M462.73,1222.55l1,3.44,2.37.15.32,1.12-9.12-.76-.27-.95,7.29-5.52.32,1.11-1.92,1.41ZM462.75,1225.93l-.81-2.79-3.43,2.51,4.24.28Z"/>
        <path class="cls-2" d="M463.97,1218.72l-8.24,2.27-.64-2.33c-.2-.72-.21-1.4-.05-2.03.17-.64.5-1.19,1-1.65s1.13-.8,1.89-1.01l.53-.15c.78-.21,1.5-.25,2.17-.11.67.14,1.23.44,1.7.91.47.47.81,1.08,1.02,1.81l.63,2.28ZM456.32,1219.66l6.46-1.78-.32-1.14c-.23-.84-.67-1.42-1.32-1.74-.65-.32-1.46-.35-2.42-.09l-.48.13c-.94.26-1.6.68-2,1.26-.4.58-.49,1.28-.27,2.09l.35,1.27Z"/>
        <path class="cls-2" d="M461.52,1209.73l.29,1.09-8.26,2.19-.29-1.09,8.26-2.19Z"/>
        <path class="cls-2" d="M455.44,1202.15c.81-.21,1.55-.25,2.23-.13.67.12,1.23.39,1.68.81s.75.96.92,1.63c.17.65.15,1.27-.04,1.86-.19.59-.55,1.09-1.07,1.52-.52.43-1.17.75-1.95.96l-.6.15c-.8.2-1.53.24-2.22.12-.68-.12-1.25-.39-1.7-.82-.45-.42-.76-.96-.93-1.62-.17-.66-.16-1.29.03-1.88.19-.59.56-1.1,1.09-1.53.54-.43,1.21-.75,2.02-.95l.52-.13ZM455.19,1203.37c-.98.25-1.68.64-2.11,1.17s-.55,1.15-.37,1.86c.18.69.58,1.17,1.2,1.43.63.26,1.41.28,2.34.06l.61-.16c.95-.24,1.65-.63,2.09-1.17.44-.54.57-1.16.4-1.86-.18-.71-.58-1.19-1.19-1.44-.61-.26-1.4-.27-2.36-.04l-.61.16Z"/>
        <path class="cls-2" d="M454.85,1192.11l.82,3.49,2.36.27.27,1.13-9.07-1.23-.23-.96,7.57-5.14.26,1.13-1.99,1.31ZM454.69,1195.47l-.66-2.83-3.56,2.33,4.22.5Z"/>
        <path class="cls-2" d="M452.76,1187.94l3.27-.72.24,1.1-8.34,1.84-.68-3.08c-.2-.91-.13-1.68.23-2.3.35-.62.91-1.02,1.68-1.19.81-.18,1.49-.06,2.04.35.55.41.93,1.09,1.14,2.03l.43,1.97ZM451.86,1188.14l-.44-1.98c-.13-.59-.37-1.01-.71-1.26-.35-.25-.78-.32-1.31-.21-.5.11-.86.35-1.09.73-.23.38-.29.84-.18,1.39l.45,2.04,3.28-.72Z"/>
        <path class="cls-2" d="M449.76,1176.78l.75,3.63,2.96-.62-.88-4.22.9-.19,1.11,5.32-8.37,1.74-1.09-5.26.9-.19.87,4.16,2.7-.56-.75-3.63.9-.19Z"/>
        <path class="cls-2" d="M447.47,1172.06l-3.61-1.38-.25-1.3,4.68,1.84,3.7-3.54.26,1.31-2.87,2.7,3.68,1.44.26,1.31-4.76-1.9-3.64,3.47-.25-1.3,2.82-2.65Z"/>
        <path class="cls-2" d="M445.08,1147.8l.31,1.99,3.42-.53.17,1.12-8.44,1.31-.43-2.8c-.15-.95-.04-1.72.31-2.3s.94-.93,1.77-1.06c.53-.08,1.01,0,1.44.21s.79.57,1.06,1.05l3.28-2.54h.07s.19,1.18.19,1.18l-3.13,2.36ZM444.47,1149.93l-.26-1.71c-.09-.55-.3-.97-.63-1.25-.34-.28-.75-.39-1.23-.31-.52.08-.9.3-1.13.65-.23.36-.3.83-.22,1.42l.26,1.71,3.21-.5Z"/>
        <path class="cls-2" d="M444.94,1138.47l.5,3.55,2.33.48.16,1.15-8.92-2.03-.14-.98,8-4.44.16,1.15-2.1,1.12ZM444.49,1141.81l-.41-2.88-3.75,2,4.16.88Z"/>
        <path class="cls-2" d="M446.7,1134.87l-8.47,1.09-.31-2.39c-.09-.74-.02-1.41.24-2.02.25-.61.66-1.11,1.22-1.49.56-.39,1.23-.63,2.01-.73l.54-.07c.8-.1,1.52-.04,2.16.19.64.23,1.16.61,1.55,1.14.4.53.65,1.18.75,1.94l.3,2.35ZM439,1134.72l6.65-.85-.15-1.18c-.11-.86-.46-1.5-1.06-1.91s-1.39-.55-2.38-.43l-.5.06c-.96.12-1.68.45-2.16.97-.48.52-.66,1.2-.57,2.03l.17,1.3Z"/>
        <path class="cls-2" d="M445.55,1125.61l.13,1.12-8.49,1.01-.13-1.12,8.49-1.01Z"/>
        <path class="cls-2" d="M440.59,1117.21c.83-.09,1.57-.03,2.22.18.65.21,1.17.56,1.55,1.04.38.48.61,1.06.69,1.75.07.67-.03,1.28-.3,1.83s-.7,1.01-1.28,1.36c-.58.35-1.27.58-2.07.67l-.61.07c-.82.09-1.55.03-2.21-.19-.66-.22-1.18-.57-1.57-1.05-.39-.48-.62-1.06-.69-1.73-.07-.68.03-1.3.3-1.86.27-.56.71-1.01,1.3-1.36s1.3-.57,2.13-.66l.54-.06ZM440.17,1118.38c-1.01.11-1.76.4-2.25.86-.49.46-.7,1.06-.62,1.79.08.71.41,1.24.99,1.58.58.35,1.35.48,2.31.38l.62-.07c.98-.11,1.72-.39,2.23-.87s.73-1.07.65-1.79c-.08-.72-.4-1.26-.97-1.6s-1.35-.46-2.33-.37l-.63.07Z"/>
        <path class="cls-2" d="M441.42,1107.19l.32,3.57,2.3.6.1,1.16-8.8-2.49-.09-.98,8.22-4.02.1,1.15-2.15,1.01ZM440.79,1110.5l-.26-2.9-3.85,1.81,4.11,1.09Z"/>
        <path class="cls-2" d="M439.94,1102.79l3.34-.26.09,1.12-8.52.65-.24-3.15c-.07-.93.11-1.68.55-2.25.43-.57,1.04-.88,1.83-.94.83-.06,1.48.15,1.97.63.49.48.77,1.21.84,2.17l.15,2.01ZM439.02,1102.86l-.16-2.02c-.05-.6-.22-1.05-.53-1.35-.31-.3-.73-.43-1.26-.39-.51.04-.9.23-1.18.57-.28.34-.4.79-.37,1.35l.16,2.08,3.35-.26Z"/>
        <path class="cls-2" d="M438.53,1091.33l.24,3.7,3.02-.19-.28-4.3.92-.06.35,5.42-8.53.55-.35-5.36.92-.06.27,4.24,2.75-.18-.24-3.7.92-.06Z"/>
        <path class="cls-2" d="M436.93,1086.33l-3.38-1.88-.07-1.33,4.37,2.48,4.16-2.99.07,1.34-3.22,2.27,3.44,1.94.07,1.33-4.45-2.54-4.09,2.93-.07-1.32,3.16-2.23Z"/>
        <path class="cls-2" d="M437.99,1065.2l.04,2.01,3.46-.07.02,1.13-8.54.16-.05-2.83c-.02-.96.19-1.71.61-2.24.43-.53,1.06-.8,1.9-.82.53,0,1,.12,1.4.41.4.28.7.67.91,1.18l3.59-2.08h.07s.02,1.21.02,1.21l-3.42,1.92ZM437.11,1067.22l-.03-1.73c-.01-.56-.16-1-.46-1.33-.3-.33-.69-.48-1.17-.47-.53.01-.93.18-1.21.5-.28.32-.41.78-.4,1.37l.03,1.73,3.24-.06Z"/>
        <path class="cls-2" d="M439.09,1055.93l.06,3.58,2.25.77.02,1.16-8.6-3.13-.02-.99,8.49-3.41.02,1.16-2.22.85ZM438.22,1059.19l-.05-2.91-3.97,1.52,4.02,1.39Z"/>
        <path class="cls-2" d="M441.31,1052.6l-8.54-.14.04-2.41c.01-.74.19-1.4.52-1.97s.81-1,1.42-1.3,1.31-.45,2.1-.44h.55c.81.02,1.51.19,2.11.51.6.32,1.06.77,1.38,1.36.32.58.47,1.26.47,2.03l-.04,2.37ZM433.71,1051.35l6.7.11.02-1.19c.01-.87-.25-1.55-.78-2.04s-1.3-.75-2.3-.76h-.5c-.97-.02-1.73.19-2.27.64-.55.45-.83,1.09-.85,1.93l-.02,1.32Z"/>
        <path class="cls-2" d="M441.43,1043.27l-.02,1.13-8.54-.14.02-1.13,8.54.14Z"/>
        <path class="cls-2" d="M437.64,1034.29c.84.02,1.56.18,2.18.48.62.3,1.08.71,1.4,1.23.32.52.46,1.13.45,1.82-.02.67-.2,1.27-.54,1.78s-.83.9-1.44,1.18c-.62.27-1.33.4-2.14.39l-.62-.02c-.82-.02-1.54-.18-2.17-.48-.62-.3-1.09-.72-1.42-1.25-.32-.53-.47-1.13-.46-1.81.02-.68.2-1.28.54-1.8.34-.51.83-.9,1.47-1.17s1.37-.39,2.2-.37h.54ZM437.06,1035.39c-1.01-.03-1.8.16-2.35.55-.55.39-.84.96-.86,1.69-.02.71.24,1.28.77,1.7s1.28.65,2.24.69l.63.02c.98.02,1.76-.16,2.33-.56.57-.4.87-.96.88-1.68.02-.73-.23-1.3-.75-1.71-.52-.41-1.27-.64-2.26-.67l-.63-.02Z"/>
        <path class="cls-2" d="M439.79,1024.47l-.16,3.58,2.2.9-.05,1.16-8.39-3.64.04-.99,8.68-2.89-.05,1.16-2.27.72ZM438.73,1027.67l.13-2.91-4.06,1.28,3.93,1.63Z"/>
        <path class="cls-2" d="M438.91,1019.92l3.34.19-.06,1.13-8.53-.49.18-3.15c.05-.93.33-1.65.84-2.16s1.15-.73,1.94-.69c.83.05,1.45.34,1.87.89s.6,1.3.54,2.26l-.11,2.01ZM437.99,1019.87l.12-2.02c.03-.6-.08-1.07-.35-1.41s-.67-.52-1.2-.55c-.51-.03-.92.11-1.25.41-.32.3-.51.73-.55,1.29l-.12,2.09,3.35.19Z"/>
        <path class="cls-2" d="M439.04,1008.33l-.26,3.7,3.02.21.3-4.3.92.06-.38,5.42-8.52-.59.37-5.36.92.06-.29,4.24,2.75.19.26-3.7.92.06Z"/>
        <path class="cls-2" d="M438.12,1003.19l-3.1-2.31.11-1.32,4,3.04,4.52-2.41-.11,1.33-3.49,1.83,3.15,2.38-.11,1.33-4.07-3.11-4.44,2.36.11-1.32,3.43-1.79Z"/>
      </g>
      <g id="text03" class="cls-4">
        <path class="cls-2" d="M631.3,982.68l-.55,3.54,3.72.58-.17,1.11-8.43-1.3.81-5.22.91.14-.63,4.11,2.89.45.55-3.54.91.14Z"/>
        <path class="cls-2" d="M632.3,975.72l-.62,3.64,2.98.51.72-4.23.91.16-.92,5.34-8.41-1.44.91-5.28.91.16-.72,4.18,2.71.46.62-3.64.91.16Z"/>
        <path class="cls-2" d="M633.59,968.74l-.68,3.63,2.97.56.8-4.22.9.17-1,5.33-8.38-1.58.99-5.27.9.17-.79,4.16,2.7.51.69-3.63.9.17Z"/>
        <path class="cls-2" d="M637.22,966.02l.81-3.96.9.19-1.04,5.07-8.36-1.72.23-1.11,7.46,1.53Z"/>
        <path class="cls-2" d="M640.27,951.29c.34.38.55.84.63,1.39.08.55.05,1.16-.11,1.83-.16.68-.46,1.24-.9,1.69-.44.45-.99.75-1.64.9-.65.15-1.37.14-2.14-.03l-.72-.17c-1.25-.29-2.15-.81-2.71-1.55-.55-.74-.71-1.64-.46-2.7.2-.87.59-1.51,1.15-1.94.57-.43,1.27-.6,2.11-.53l-.25,1.1c-1.15-.05-1.85.48-2.11,1.58-.17.73-.04,1.35.39,1.85.43.5,1.13.86,2.11,1.09l.68.16c.93.22,1.72.18,2.37-.12.65-.3,1.06-.81,1.23-1.54.1-.41.13-.78.11-1.11-.02-.33-.11-.62-.28-.87l-1.86-.43-.45,1.92-.9-.21.7-3.01,3.05.71Z"/>
        <path class="cls-2" d="M639.6,942.18c.81.21,1.48.52,2.02.95.53.43.9.93,1.09,1.51.19.58.2,1.2.03,1.87-.17.65-.47,1.19-.92,1.61-.45.42-1,.7-1.67.83s-1.39.1-2.17-.09l-.6-.15c-.8-.2-1.46-.52-2-.95-.54-.43-.91-.94-1.1-1.53-.2-.59-.21-1.21-.04-1.86.17-.66.48-1.21.92-1.63.45-.42,1.01-.7,1.69-.81.68-.12,1.42-.08,2.22.13l.52.13ZM638.79,943.13c-.98-.25-1.78-.24-2.41.02s-1.03.75-1.21,1.45c-.17.69-.05,1.3.37,1.83.42.53,1.1.92,2.03,1.16l.61.15c.95.24,1.75.23,2.39-.03s1.06-.74,1.23-1.44c.18-.7.06-1.31-.35-1.83-.42-.52-1.1-.9-2.06-1.16l-.61-.16Z"/>
        <path class="cls-2" d="M641.84,933.96c.81.22,1.47.55,2,.99.53.44.88.95,1.06,1.53s.18,1.21,0,1.87c-.18.65-.5,1.18-.95,1.59-.46.41-1.02.68-1.68.79-.67.11-1.39.07-2.17-.14l-.59-.16c-.79-.22-1.45-.55-1.98-.99-.53-.44-.89-.96-1.07-1.55-.18-.59-.19-1.21,0-1.86.18-.66.5-1.2.96-1.61.46-.42,1.02-.67,1.7-.78.68-.1,1.42-.05,2.22.17l.52.14ZM641.01,934.89c-.98-.27-1.78-.28-2.41-.03-.63.25-1.04.72-1.23,1.43-.19.69-.08,1.3.34,1.83s1.08.94,2,1.21l.6.17c.95.26,1.74.27,2.39.02.65-.25,1.07-.72,1.26-1.42.19-.7.09-1.31-.32-1.84-.4-.52-1.08-.92-2.03-1.2l-.61-.17Z"/>
        <path class="cls-2" d="M646.21,933.19l-8.18-2.43.68-2.31c.21-.71.55-1.29,1.03-1.75.48-.45,1.05-.74,1.72-.87.67-.13,1.38-.08,2.13.14l.52.16c.77.23,1.4.58,1.9,1.05s.81,1.03.96,1.67c.15.64.12,1.33-.09,2.07l-.67,2.26ZM639.24,929.95l6.42,1.9.34-1.13c.25-.83.18-1.55-.2-2.17-.38-.62-1.05-1.07-2-1.35l-.48-.14c-.93-.28-1.72-.27-2.36.01-.64.28-1.09.83-1.33,1.62l-.37,1.26Z"/>
        <path class="cls-2" d="M646.65,918.85c-.56.83-1.1,1.39-1.62,1.69-.52.29-1.06.35-1.63.16-.64-.21-1.08-.63-1.34-1.28-.25-.65-.25-1.38.02-2.2.18-.56.45-1.02.81-1.39.36-.37.76-.61,1.22-.72.46-.12.91-.1,1.36.04l-.35,1.08c-.49-.16-.93-.13-1.31.09s-.67.62-.85,1.18c-.17.53-.19.98-.05,1.35s.41.62.82.76c.33.11.66.06.98-.15.32-.21.68-.62,1.09-1.23.41-.61.79-1.07,1.14-1.38.35-.31.71-.5,1.07-.59.36-.08.75-.06,1.17.07.66.21,1.1.64,1.33,1.28.23.64.2,1.39-.07,2.25-.18.56-.46,1.04-.83,1.46-.37.41-.78.69-1.24.83-.46.14-.92.14-1.39-.02l.35-1.08c.49.16.94.1,1.34-.17.4-.27.7-.71.9-1.31.18-.56.21-1.04.08-1.41-.13-.38-.4-.63-.79-.76s-.75-.09-1.06.12c-.31.21-.69.64-1.14,1.31Z"/>
        <path class="cls-2" d="M650.14,907.95c.79.27,1.43.65,1.93,1.11.5.47.82,1,.96,1.6s.1,1.22-.12,1.87c-.22.63-.57,1.14-1.05,1.53-.48.38-1.06.61-1.73.68s-1.39-.02-2.15-.28l-.58-.2c-.78-.27-1.41-.64-1.91-1.12-.5-.47-.82-1.01-.97-1.62-.15-.6-.11-1.22.11-1.86.22-.65.58-1.16,1.06-1.55s1.07-.61,1.75-.67c.68-.06,1.42.04,2.21.32l.51.18ZM649.25,908.83c-.96-.33-1.76-.39-2.4-.19-.64.21-1.08.66-1.32,1.35-.23.67-.16,1.29.22,1.85.38.56,1.02,1.01,1.92,1.33l.59.21c.93.32,1.72.38,2.39.17.67-.21,1.12-.65,1.35-1.33.24-.69.17-1.3-.2-1.85-.37-.55-1.02-.99-1.95-1.33l-.6-.21Z"/>
        <path class="cls-2" d="M648.63,898.87l5.44,2c.75.28,1.28.75,1.59,1.39.31.65.34,1.39.1,2.21l-.09.28c-.32.88-.82,1.49-1.48,1.83-.66.35-1.41.37-2.24.07l-5.46-2.01.38-1.04,5.42,2c.58.21,1.09.22,1.53.02.44-.2.77-.6.98-1.19.22-.6.23-1.11.03-1.55-.2-.43-.59-.76-1.17-.97l-5.43-2,.39-1.06Z"/>
        <path class="cls-2" d="M659.71,893.89l-.41,1.05-7.69,1.61,6.12,2.39-.41,1.05-7.95-3.11.41-1.05,7.72-1.61-6.15-2.4.41-1.04,7.95,3.11Z"/>
        <path class="cls-2" d="M660.54,891.84l-7.88-3.26.92-2.23c.28-.69.69-1.23,1.21-1.63s1.12-.63,1.8-.68c.68-.06,1.38.07,2.11.36l.5.21c.74.31,1.34.72,1.78,1.24.44.52.7,1.11.78,1.76s-.02,1.34-.31,2.05l-.9,2.18ZM653.94,887.89l6.18,2.56.45-1.09c.33-.8.34-1.53.03-2.18-.31-.65-.93-1.17-1.85-1.55l-.46-.19c-.9-.37-1.68-.45-2.35-.23s-1.17.71-1.5,1.48l-.5,1.21Z"/>
        <path class="cls-2" d="M769.78,731.42l-2.67,2.39,2.51,2.81-.84.75-5.69-6.36,3.94-3.52.61.69-3.1,2.77,1.95,2.18,2.67-2.39.61.69Z"/>
        <path class="cls-2" d="M774.97,726.68l-2.8,2.42,1.98,2.29,3.25-2.81.6.7-4.1,3.55-5.58-6.45,4.05-3.51.6.7-3.2,2.77,1.8,2.08,2.8-2.42.6.7Z"/>
        <path class="cls-2" d="M780.38,722.13l-2.83,2.37,1.94,2.32,3.29-2.76.59.71-4.16,3.48-5.47-6.54,4.11-3.44.59.71-3.25,2.72,1.76,2.11,2.84-2.37.59.71Z"/>
        <path class="cls-2" d="M784.92,722.32l3.14-2.54.58.71-4.02,3.26-5.37-6.63.88-.71,4.79,5.92Z"/>
        <path class="cls-2" d="M796.64,712.85c.02.5-.11,1-.39,1.47s-.7.93-1.25,1.35c-.55.42-1.14.67-1.77.74s-1.24-.04-1.84-.34c-.6-.3-1.15-.76-1.63-1.38l-.45-.59c-.78-1.02-1.15-1.99-1.11-2.92.04-.93.5-1.72,1.36-2.38.71-.54,1.41-.8,2.12-.77.71.03,1.37.34,1.97.93l-.89.69c-.86-.77-1.74-.81-2.63-.12-.6.46-.89,1.02-.87,1.67.01.66.33,1.38.94,2.18l.43.55c.58.76,1.22,1.23,1.91,1.41s1.33.04,1.92-.41c.33-.26.6-.52.79-.79.19-.27.3-.55.33-.85l-1.17-1.52-1.57,1.2-.56-.73,2.45-1.89,1.91,2.48Z"/>
        <path class="cls-2" d="M801.89,705.39c.5.67.82,1.34.96,2.01s.1,1.29-.12,1.86c-.22.57-.61,1.06-1.16,1.47-.54.4-1.12.62-1.73.66-.61.04-1.22-.1-1.81-.42-.59-.32-1.13-.8-1.62-1.45l-.37-.5c-.49-.66-.8-1.33-.95-2-.14-.68-.1-1.3.12-1.88.22-.58.6-1.07,1.14-1.47.55-.41,1.13-.63,1.75-.67.62-.04,1.22.1,1.82.44.6.34,1.14.84,1.64,1.51l.32.43ZM800.66,705.61c-.6-.81-1.22-1.32-1.87-1.51-.65-.19-1.27-.07-1.85.36-.57.42-.86.97-.87,1.65,0,.68.27,1.41.83,2.19l.37.5c.58.79,1.21,1.29,1.87,1.49.67.21,1.29.1,1.87-.33.58-.43.88-.98.89-1.64,0-.66-.28-1.39-.86-2.2l-.38-.51Z"/>
        <path class="cls-2" d="M808.84,700.45c.48.68.79,1.36.92,2.03s.08,1.29-.15,1.85c-.23.57-.63,1.05-1.19,1.44-.55.39-1.13.6-1.75.63-.61.03-1.22-.12-1.8-.45-.59-.33-1.12-.83-1.59-1.48l-.36-.5c-.47-.67-.78-1.34-.91-2.02-.13-.68-.08-1.3.15-1.88.23-.57.62-1.05,1.17-1.44.56-.39,1.15-.61,1.76-.64.62-.03,1.22.13,1.81.48s1.13.86,1.61,1.54l.31.44ZM807.61,700.65c-.58-.83-1.2-1.34-1.84-1.55-.64-.21-1.26-.1-1.86.32-.58.41-.88.95-.9,1.63-.02.68.24,1.41.79,2.2l.36.51c.57.8,1.18,1.31,1.84,1.53s1.29.12,1.88-.3c.59-.42.9-.96.92-1.62s-.25-1.4-.81-2.21l-.37-.52Z"/>
        <path class="cls-2" d="M812.69,702.64l-4.79-7.06,1.99-1.35c.61-.42,1.25-.65,1.91-.7.66-.05,1.28.09,1.88.42s1.12.81,1.56,1.46l.31.45c.45.67.72,1.34.8,2.01s-.02,1.31-.32,1.9-.76,1.11-1.39,1.54l-1.95,1.33ZM809.35,695.71l3.76,5.54.98-.66c.72-.49,1.12-1.09,1.22-1.81.1-.72-.13-1.49-.69-2.31l-.28-.41c-.54-.8-1.16-1.3-1.83-1.49s-1.37-.05-2.06.41l-1.09.74Z"/>
        <path class="cls-2" d="M822.13,691.82c-.96.29-1.74.38-2.33.28-.59-.1-1.04-.4-1.36-.9-.36-.57-.44-1.18-.22-1.84s.68-1.22,1.41-1.69c.49-.32.99-.5,1.5-.56s.98.01,1.4.21c.43.2.77.5,1.02.9l-.95.61c-.28-.44-.64-.69-1.07-.76-.44-.07-.91.05-1.41.38-.47.3-.76.64-.89,1.01-.13.37-.08.74.16,1.11.19.29.47.46.85.5.38.04.92-.04,1.62-.26.7-.21,1.29-.33,1.76-.34.47-.01.87.06,1.2.23.34.17.62.43.85.8.37.58.45,1.19.22,1.83-.23.64-.72,1.21-1.48,1.69-.49.32-1.01.52-1.56.6-.55.09-1.04.04-1.49-.14-.44-.18-.8-.48-1.07-.9l.95-.61c.28.43.66.67,1.14.72.48.05.99-.1,1.53-.45.5-.32.82-.67.95-1.04.14-.37.09-.74-.13-1.09s-.52-.54-.89-.58-.94.06-1.71.29Z"/>
        <path class="cls-2" d="M831.74,685.6c.44.71.7,1.41.79,2.08.09.68,0,1.29-.27,1.84-.27.55-.69,1-1.28,1.36-.57.35-1.17.52-1.78.52-.62,0-1.21-.2-1.77-.57-.57-.37-1.06-.9-1.49-1.58l-.32-.52c-.43-.7-.69-1.39-.78-2.08-.09-.69,0-1.31.27-1.86.27-.56.69-1.01,1.26-1.36.58-.36,1.18-.53,1.8-.53s1.21.21,1.78.59c.57.39,1.07.93,1.51,1.64l.28.46ZM830.5,685.71c-.53-.86-1.11-1.42-1.74-1.66-.63-.25-1.25-.18-1.88.2-.61.37-.94.9-1,1.57-.06.67.15,1.42.64,2.25l.33.53c.51.83,1.09,1.38,1.74,1.64.64.26,1.27.2,1.89-.18.62-.38.96-.9,1.02-1.56.06-.66-.16-1.41-.67-2.26l-.33-.54Z"/>
        <path class="cls-2" d="M836.3,677.63l2.94,5c.4.7.52,1.39.35,2.09-.17.7-.61,1.29-1.32,1.78l-.25.16c-.8.47-1.57.63-2.31.48-.73-.15-1.33-.61-1.78-1.36l-2.95-5.01.96-.56,2.93,4.98c.31.53.7.86,1.17.98.47.12.97.02,1.51-.3.55-.32.88-.72,1-1.18.12-.46.02-.96-.29-1.49l-2.93-4.98.97-.57Z"/>
        <path class="cls-2" d="M848.05,680.78l-.99.55-6.97-3.63,3.22,5.73-.99.55-4.18-7.44.99-.55,6.99,3.65-3.24-5.76.97-.55,4.18,7.44Z"/>
        <path class="cls-2" d="M849.98,679.73l-4.03-7.52,2.12-1.14c.65-.35,1.31-.52,1.97-.5.66.02,1.27.22,1.83.61.56.39,1.03.93,1.4,1.62l.26.48c.38.71.58,1.4.59,2.08.01.68-.16,1.3-.51,1.86s-.87,1.02-1.54,1.39l-2.08,1.12ZM847.37,672.49l3.16,5.9,1.04-.56c.76-.41,1.23-.97,1.4-1.67.17-.7.02-1.49-.45-2.37l-.24-.44c-.46-.85-1.01-1.41-1.67-1.67s-1.35-.19-2.09.19l-1.16.62Z"/>
      </g>
    </g>
  </g>
</svg>