<?xml version="1.0" encoding="UTF-8"?>
<svg id="Layer_5" data-name="Layer 5" xmlns="http://www.w3.org/2000/svg" viewBox="0 0 2532.53 2194.45">
  <defs>
    <style>
      .cls-1 {
        stroke: #fff;
        stroke-miterlimit: 10;
      }

      .cls-1, .cls-2 {
        fill: none;
      }
    
/* === CSS rotation with true geometric center from ellipses === */
#Layer_5 {
  transform-origin: 1266.287px 1097.24px;
  transform-box: view-box;
  transform: rotate(0deg);
  animation: spinAll 48s linear infinite;
}
@keyframes spinAll { to { transform: rotate(360deg); } }
</style>
  </defs>
  <g>
    <ellipse class="cls-2" cx="1266.29" cy="1097.9" rx="734.58" ry="735.35"/>
    <path class="cls-1" d="M1945.8,1510.15l26.7-50.04-51.78-27.63,13.91-26.06,126.7,67.61-43.95,82.36-21.15-11.28,30.04-56.29-32.72-17.46-26.7,50.04-21.06-11.24Z"/>
    <path class="cls-1" d="M1877.24,1611.68l34.14-45.29-30.72-23.15-40.07,53.16-18.98-14.31,57.85-76.75,114.68,86.44-57.73,76.59-19.14-14.43,39.95-53-27.33-20.6-34.14,45.29-18.51-13.95Z"/>
    <path class="cls-1" d="M1788.95,1701.42l40.8-39.4-26.72-27.67-47.89,46.24-16.51-17.1,69.14-66.75,99.75,103.31-69,66.62-16.65-17.24,47.75-46.1-23.77-24.62-40.8,39.4-16.1-16.67Z"/>
    <path class="cls-1" d="M1712.08,1712.19l-51.29,36.11-13.68-19.44,75.45-53.11,82.67,117.43-24.16,17.01-68.99-97.99Z"/>
    <path class="cls-1" d="M1481.77,1822.38c2.68-7.86,7.93-15.17,15.74-21.93,7.81-6.76,17.23-12.26,28.27-16.49,11.58-4.44,22.72-5.81,33.39-4.09,10.68,1.71,20.24,6.48,28.69,14.3,8.45,7.82,15.23,18.21,20.34,31.18l3.5,9.12c5.13,13.38,7.32,25.84,6.57,37.36-.75,11.52-4.37,21.5-10.87,29.95-6.5,8.44-15.45,14.85-26.85,19.22-15.87,6.09-29.74,7.06-41.6,2.91-11.86-4.15-21.39-13.15-28.6-27.01l26.85-10.3c4.17,7.2,9.04,11.78,14.6,13.73,5.56,1.95,12.02,1.52,19.38-1.31,9.38-3.6,15.16-9.87,17.36-18.81,2.2-8.94.65-20.39-4.63-34.35l-3.28-8.57c-5.39-14.06-12.13-23.66-20.22-28.8-8.09-5.14-17.28-5.73-27.58-1.78-10.36,3.97-16.9,9.02-19.62,15.13l8.87,23.12,25.1-9.63,7.81,20.35-52.68,20.2-20.52-53.51Z"/>
    <path class="cls-1" d="M1346.43,1900.17c-2.45-13.92-2.15-26.56.92-37.92,3.06-11.36,8.67-20.69,16.81-28,8.14-7.31,18.13-12.01,29.96-14.1,11.7-2.06,22.64-1.09,32.81,2.93,10.17,4.01,18.7,10.81,25.59,20.38,6.89,9.57,11.56,21.15,14.02,34.74l1.23,6.99c2.46,13.92,2.11,26.62-1.03,38.09-3.14,11.47-8.79,20.84-16.94,28.12-8.15,7.28-18.11,11.96-29.87,14.03-11.77,2.07-22.72,1.08-32.87-2.97-10.15-4.05-18.66-10.93-25.54-20.64-6.88-9.71-11.54-21.49-13.98-35.34l-1.11-6.31ZM1377.04,1901.38c2.61,14.83,7.25,25.63,13.91,32.4,6.66,6.77,14.9,9.29,24.73,7.56,9.76-1.72,16.62-6.85,20.58-15.4,3.96-8.54,4.68-20.17,2.15-34.88l-1.21-6.9c-2.55-14.44-7.17-25.18-13.88-32.21-6.7-7.03-15.04-9.67-24.99-7.91-9.76,1.72-16.58,6.88-20.47,15.48s-4.56,20.25-2.04,34.96l1.22,6.9Z"/>
    <path class="cls-1" d="M1192.55,1900.71c.23-14.14,2.93-26.49,8.09-37.06,5.16-10.57,12.43-18.67,21.81-24.31,9.38-5.64,20.08-8.36,32.09-8.16,11.88.19,22.44,3.22,31.66,9.1,9.23,5.87,16.32,14.16,21.26,24.86,4.95,10.7,7.34,22.96,7.18,36.76l-.12,7.1c-.23,14.13-2.97,26.54-8.24,37.2-5.26,10.67-12.58,18.8-21.96,24.4-9.38,5.6-20.04,8.31-31.99,8.11-11.95-.19-22.51-3.24-31.71-9.15-9.19-5.91-16.25-14.27-21.16-25.1-4.91-10.83-7.25-23.28-7.03-37.35l.1-6.41ZM1222.38,1907.7c-.24,15.05,2.26,26.54,7.52,34.45,5.26,7.91,12.87,11.95,22.85,12.11,9.91.16,17.62-3.58,23.13-11.22,5.51-7.64,8.42-18.92,8.72-33.84l.11-7c.24-14.66-2.27-26.08-7.52-34.25-5.25-8.17-12.93-12.34-23.04-12.51-9.91-.16-17.59,3.61-23.03,11.32s-8.32,19.02-8.63,33.94l-.11,7Z"/>
    <path class="cls-1" d="M1170.37,1828.95l-28.73,140.71-43.22-8.83c-12.35-2.52-22.83-7.56-31.43-15.13-8.61-7.56-14.59-17.04-17.96-28.43-3.37-11.39-3.72-23.63-1.05-36.71l1.32-6.47c2.67-13.08,7.73-24.16,15.18-33.24,7.45-9.08,16.63-15.43,27.56-19.04,10.92-3.61,22.53-4.19,34.83-1.75l43.51,8.88ZM1117.49,1940.26l19.18-93.93-13.99-2.86c-11.32-2.31-20.73-.37-28.22,5.81-7.49,6.19-12.71,16.16-15.66,29.92l-1.52,7.44c-2.92,14.3-2.17,25.75,2.24,34.33,4.41,8.58,12.31,14.04,23.69,16.36l14.28,2.92Z"/>
    <path class="cls-1" d="M904.8,1781.64c-2.46,5.02-2.58,9.74-.35,14.16,2.22,4.42,7.2,10.37,14.94,17.86,7.74,7.48,13.58,13.99,17.53,19.51,10.75,15.07,12.84,29.31,6.28,42.72-3.41,6.97-8.41,12.22-15.01,15.77-6.59,3.54-14.31,5.05-23.16,4.53-8.84-.52-17.83-3.02-26.97-7.5-9.2-4.5-16.57-10.18-22.14-17.04-5.56-6.86-8.84-14.3-9.84-22.33-1-8.03.39-15.92,4.18-23.65l26.53,12.99c-2.89,5.9-3.28,11.41-1.17,16.5,2.11,5.1,6.53,9.29,13.25,12.58,6.49,3.18,12.2,4.27,17.14,3.29,4.94-.99,8.51-3.72,10.71-8.21,2.05-4.19,1.67-8.74-1.16-13.64-2.83-4.9-7.73-10.59-14.71-17.09-12.87-11.94-21.1-22.96-24.7-33.07-3.6-10.11-2.94-20.18,1.97-30.22,5.46-11.16,13.97-17.85,25.51-20.07,11.54-2.22,24.44.16,38.71,7.15,9.91,4.85,18.04,11.08,24.4,18.7,6.36,7.62,10.13,15.63,11.31,24.04,1.18,8.41-.27,16.78-4.34,25.11l-26.62-13.03c6.97-14.23,1.96-25.5-15.02-33.82-6.31-3.09-11.86-4.21-16.66-3.38-4.79.84-8.32,3.56-10.58,8.17Z"/>
    <path class="cls-1" d="M740.37,1708.52c8.41-11.37,17.79-19.85,28.13-25.44,10.35-5.6,20.97-7.96,31.88-7.08,10.91.87,21.19,4.88,30.85,12.03,9.55,7.07,16.38,15.67,20.47,25.81,4.09,10.14,5.04,21,2.84,32.59-2.2,11.58-7.38,22.94-15.54,34.08l-4.22,5.71c-8.41,11.37-17.85,19.86-28.34,25.47-10.48,5.62-21.17,7.98-32.06,7.08-10.89-.9-21.14-4.9-30.74-12.01-9.6-7.11-16.43-15.73-20.48-25.88-4.04-10.15-4.92-21.06-2.61-32.73,2.3-11.67,7.64-23.16,16.01-34.47l3.81-5.15ZM760.57,1731.56c-8.96,12.1-13.6,22.9-13.92,32.4-.33,9.49,3.52,17.21,11.54,23.14,7.97,5.9,16.42,7.34,25.34,4.33,8.92-3.01,17.85-10.5,26.78-22.46l4.16-5.63c8.72-11.79,13.32-22.53,13.81-32.24.48-9.7-3.34-17.56-11.47-23.57-7.97-5.9-16.41-7.29-25.32-4.19-8.91,3.1-17.83,10.63-26.76,22.59l-4.17,5.63Z"/>
    <path class="cls-1" d="M585.09,1655.36l69.36-64.31c11.52-10.69,23.98-15.54,37.35-14.55,13.38.98,25.84,7.71,37.4,20.18,11.38,12.28,17.16,25.04,17.35,38.3.19,13.26-5.34,25.23-16.59,35.93l-70.16,65.05-20.08-21.66,69.51-64.44c6.9-6.39,10.39-12.7,10.49-18.93.1-6.23-2.55-12.25-7.95-18.08-11.29-12.18-23.44-12.42-36.45-.72l-70.09,64.98-20.15-21.74Z"/>
    <path class="cls-1" d="M612.44,1438.39l15.67,25.04-49.6,98.87,80.1-50.12,15.67,25.04-121.74,76.18-15.67-25.04,49.71-99.06-80.27,50.23-15.62-24.96,121.74-76.18Z"/>
    <path class="cls-1" d="M600.51,1413.48l-133.86,52-15.97-41.12c-4.56-11.75-6-23.29-4.3-34.62,1.7-11.33,6.43-21.5,14.18-30.49,7.76-9,17.85-15.92,30.3-20.75l6.16-2.39c12.44-4.83,24.5-6.58,36.17-5.23,11.67,1.35,21.98,5.64,30.92,12.87,8.95,7.23,15.72,16.68,20.32,28.34l16.08,41.4ZM478.29,1429.27l89.36-34.72-5.17-13.31c-4.18-10.77-10.91-17.63-20.17-20.58-9.26-2.95-20.47-1.94-33.64,3.03l-7.08,2.75c-13.61,5.29-22.82,12.11-27.66,20.46-4.83,8.36-5.14,17.95-.94,28.78l5.28,13.58Z"/>
  </g>
  <g>
    <ellipse class="cls-2" cx="1265.85" cy="1096.35" rx="611.34" ry="612.99"/>
    <path class="cls-1" d="M735.34,702.26l-25.49,38.63,40.01,26.4-13.28,20.12-97.91-64.61,41.96-63.57,16.34,10.78-28.68,43.46,25.28,16.69,25.49-38.63,16.27,10.74Z"/>
    <path class="cls-1" d="M798.46,624.84l-31.05,34.32,23.3,21.08,36.44-40.27,14.4,13.03-52.62,58.15-86.98-78.71,52.51-58.03,14.52,13.14-36.34,40.16,20.73,18.76,31.05-34.32,14.04,12.7Z"/>
    <path class="cls-1" d="M876.55,558.2l-35.95,29.15,19.79,24.41,42.19-34.21,12.23,15.08-60.91,49.39-73.88-91.12,60.79-49.29,12.33,15.21-42.07,34.11,17.61,21.72,35.95-29.15,11.92,14.71Z"/>
    <path class="cls-1" d="M939.82,554.78l44.18-25.84,9.8,16.76-64.99,38.01-59.23-101.26,20.81-12.17,49.42,84.5Z"/>
    <path class="cls-1" d="M1134.56,480.55c-2.69,6.22-7.44,11.83-14.24,16.82-6.8,4.99-14.82,8.85-24.07,11.56-9.71,2.85-18.86,3.23-27.43,1.13-8.57-2.1-16.04-6.61-22.4-13.53-6.36-6.92-11.2-15.83-14.51-26.72l-2.25-7.65c-3.3-11.23-4.27-21.52-2.91-30.85,1.36-9.33,4.96-17.22,10.8-23.66,5.84-6.45,13.54-11.07,23.1-13.88,13.31-3.91,24.65-3.78,34.03.38,9.37,4.16,16.54,12.12,21.5,23.87l-22.51,6.61c-2.92-6.14-6.58-10.19-10.98-12.14-4.4-1.95-9.68-2.03-15.85-.21-7.86,2.31-12.98,7.03-15.35,14.17-2.37,7.13-1.86,16.56,1.52,28.27l2.11,7.19c3.47,11.8,8.32,20.06,14.56,24.78,6.24,4.72,13.68,5.81,22.31,3.27,8.69-2.55,14.33-6.23,16.94-11.02l-5.7-19.4-21.05,6.18-5.02-17.08,44.17-12.98,13.19,44.91Z"/>
    <path class="cls-1" d="M1249.57,425.72c1.13,11.49.09,21.77-3.11,30.83-3.2,9.06-8.34,16.31-15.42,21.75-7.08,5.44-15.5,8.65-25.26,9.6-9.65.95-18.49-.53-26.51-4.44-8.03-3.91-14.54-9.97-19.55-18.2-5-8.22-8.09-17.95-9.24-29.17l-.57-5.77c-1.13-11.49-.06-21.81,3.22-30.96,3.27-9.15,8.45-16.43,15.54-21.84,7.08-5.42,15.48-8.6,25.18-9.56,9.7-.95,18.55.54,26.56,4.48,8,3.94,14.5,10.07,19.49,18.41,4.99,8.33,8.05,18.22,9.17,29.66l.51,5.21ZM1224.74,422.81c-1.2-12.24-4.3-21.33-9.3-27.26-5-5.93-11.55-8.5-19.65-7.7-8.05.79-13.95,4.54-17.71,11.25-3.75,6.71-5.06,16.14-3.92,28.27l.56,5.69c1.17,11.92,4.26,20.95,9.28,27.1,5.02,6.15,11.63,8.82,19.84,8.01,8.05-.79,13.92-4.56,17.62-11.32,3.7-6.76,4.97-16.21,3.84-28.35l-.56-5.69Z"/>
    <path class="cls-1" d="M1374.81,434.37c-1.02,11.5-3.94,21.41-8.76,29.72-4.82,8.31-11.22,14.48-19.18,18.52-7.97,4.04-16.83,5.63-26.6,4.76-9.66-.86-18.07-3.95-25.23-9.27-7.17-5.33-12.45-12.49-15.84-21.5-3.4-9.01-4.62-19.13-3.68-30.37l.51-5.78c1.02-11.5,3.98-21.44,8.89-29.83,4.91-8.38,11.35-14.58,19.31-18.59,7.96-4.01,16.8-5.59,26.51-4.73,9.71.86,18.13,3.97,25.27,9.31,7.13,5.35,12.38,12.58,15.74,21.7,3.36,9.11,4.53,19.4,3.52,30.84l-.46,5.22ZM1350.95,426.92c1.08-12.25-.28-21.75-4.09-28.51-3.81-6.75-9.77-10.49-17.88-11.21-8.06-.71-14.55,1.88-19.48,7.78-4.93,5.9-7.96,14.92-9.09,27.06l-.5,5.7c-1.06,11.93.31,21.38,4.1,28.35,3.79,6.97,9.8,10.82,18.01,11.54,8.06.71,14.53-1.91,19.41-7.87,4.88-5.96,7.89-15,9.02-27.15l.5-5.7Z"/>
    <path class="cls-1" d="M1388.62,494.17l31.52-112.99,34.67,9.67c9.91,2.76,18.14,7.47,24.71,14.13,6.57,6.66,10.89,14.72,12.98,24.2,2.08,9.48,1.66,19.46-1.27,29.97l-1.45,5.2c-2.93,10.5-7.69,19.24-14.28,26.21-6.59,6.97-14.43,11.62-23.53,13.93-9.1,2.31-18.58,2.12-28.45-.58l-34.9-9.74ZM1438.09,406.51l-21.04,75.43,11.22,3.13c9.08,2.53,16.85,1.49,23.31-3.12,6.46-4.61,11.28-12.44,14.47-23.48l1.67-5.98c3.2-11.49,3.26-20.85.16-28.1-3.09-7.25-9.21-12.15-18.34-14.69l-11.46-3.2Z"/>
    <path class="cls-1" d="M1602.25,547.51c2.27-3.96,2.62-7.8,1.05-11.52-1.57-3.72-5.3-8.83-11.2-15.35-5.9-6.51-10.31-12.12-13.22-16.83-7.94-12.86-8.87-24.57-2.8-35.14,3.15-5.5,7.51-9.51,13.08-12.05,5.56-2.54,11.93-3.35,19.11-2.46,7.17.9,14.36,3.41,21.56,7.55,7.25,4.16,12.95,9.18,17.11,15.07,4.16,5.89,6.43,12.13,6.81,18.72.38,6.6-1.18,12.95-4.68,19.05l-20.91-12c2.67-4.66,3.29-9.12,1.85-13.39-1.44-4.27-4.81-7.92-10.11-10.96-5.11-2.93-9.71-4.13-13.78-3.59-4.08.54-7.13,2.58-9.16,6.12-1.9,3.31-1.83,7.03.21,11.17,2.04,4.14,5.72,9.04,11.06,14.71,9.83,10.41,15.94,19.83,18.33,28.27,2.39,8.43,1.31,16.61-3.24,24.52-5.05,8.8-12.34,13.8-21.86,15-9.52,1.19-19.9-1.44-31.14-7.89-7.8-4.48-14.09-9.99-18.86-16.54-4.77-6.54-7.4-13.28-7.91-20.19-.51-6.92,1.12-13.66,4.89-20.23l20.98,12.04c-6.44,11.23-2.98,20.68,10.4,28.36,4.97,2.85,9.43,4.07,13.38,3.64,3.95-.43,6.97-2.46,9.05-6.09Z"/>
    <path class="cls-1" d="M1732.41,615.47c-7.43,8.84-15.5,15.28-24.22,19.32-8.72,4.04-17.5,5.43-26.34,4.18-8.84-1.26-17.02-5.04-24.52-11.35-7.42-6.24-12.54-13.59-15.36-22.06-2.82-8.47-3.03-17.37-.65-26.7,2.38-9.33,7.18-18.33,14.4-27l3.73-4.44c7.43-8.84,15.56-15.29,24.39-19.34,8.83-4.05,17.65-5.44,26.48-4.16,8.83,1.28,16.97,5.05,24.43,11.33,7.46,6.27,12.58,13.65,15.36,22.12,2.78,8.48,2.93,17.41.46,26.8-2.47,9.39-7.41,18.49-14.8,27.29l-3.37,4.01ZM1717.13,595.68c7.91-9.42,12.24-17.98,12.99-25.7.75-7.72-1.99-14.2-8.22-19.44-6.19-5.2-13-6.8-20.42-4.8-7.42,2.01-15.08,7.66-22.96,16.96l-3.68,4.38c-7.71,9.17-12,17.7-12.89,25.58-.89,7.88,1.83,14.48,8.14,19.79,6.19,5.2,13,6.77,20.41,4.68,7.42-2.08,15.07-7.77,22.95-17.07l3.68-4.38Z"/>
    <path class="cls-1" d="M1856.33,666.06l-59.62,49.14c-9.91,8.17-20.29,11.53-31.14,10.1-10.86-1.43-20.7-7.5-29.52-18.2-8.69-10.54-12.79-21.22-12.31-32.03.48-10.81,5.57-20.31,15.25-28.5l60.3-49.71,15.33,18.6-59.74,49.25c-5.93,4.89-9.08,9.86-9.46,14.93-.38,5.07,1.49,10.1,5.61,15.11,8.62,10.46,18.51,11.23,29.67,2.3l60.24-49.66,15.38,18.66Z"/>
    <path class="cls-1" d="M1824.02,841.47l-11.65-21.1,44.89-78.38-67.57,37.3-11.65-21.1,102.69-56.7,11.65,21.1-44.99,78.53,67.71-37.38,11.61,21.03-102.69,56.7Z"/>
    <path class="cls-1" d="M1832.71,862.38l111.37-36.84,11.3,34.18c3.23,9.76,3.91,19.23,2.05,28.39-1.86,9.16-6.15,17.25-12.85,24.27-6.7,7.01-15.23,12.23-25.58,15.66l-5.12,1.7c-10.35,3.42-20.26,4.35-29.72,2.76-9.46-1.58-17.69-5.5-24.68-11.77-6.99-6.26-12.12-14.24-15.39-23.94l-11.38-34.4ZM1933.07,854.57l-74.35,24.59,3.66,11.06c2.96,8.95,8.16,14.82,15.58,17.61,7.43,2.79,16.62,2.43,27.56-1.08l5.89-1.95c11.32-3.74,19.12-8.92,23.42-15.53,4.29-6.61,4.95-14.42,1.97-23.42l-3.74-11.29Z"/>
  </g>
  <g>
    <ellipse class="cls-2" cx="1266.72" cy="1097.47" rx="425.06" ry="424.8"/>
    <path class="cls-1" d="M1659.86,1337.11l15.85-29.54-30.52-16.37,8.25-15.39,74.68,40.06-26.08,48.62-12.46-6.69,17.83-33.24-19.29-10.35-15.85,29.54-12.41-6.66Z"/>
    <path class="cls-1" d="M1618.98,1396.97l20.33-26.66-18.05-13.77-23.86,31.28-11.15-8.51,34.46-45.17,67.38,51.4-34.38,45.07-11.25-8.58,23.79-31.19-16.06-12.25-20.33,26.66-10.88-8.3Z"/>
    <path class="cls-1" d="M1566.31,1449.59l24.33-23.07-15.62-16.47-28.55,27.07-9.65-10.18,41.22-39.08,58.31,61.5-41.14,39-9.73-10.26,28.47-26.99-13.9-14.66-24.33,23.07-9.41-9.93Z"/>
    <path class="cls-1" d="M1520.8,1455.49l-30.58,20.96-7.93-11.57,44.98-30.84,47.92,69.89-14.4,9.87-39.99-58.33Z"/>
    <path class="cls-1" d="M1383.72,1518.5c1.67-4.61,4.85-8.87,9.53-12.79,4.69-3.91,10.31-7.06,16.88-9.45,6.89-2.51,13.48-3.2,19.77-2.08,6.29,1.12,11.89,4.03,16.8,8.73,4.91,4.7,8.8,10.9,11.69,18.6l1.97,5.42c2.89,7.95,4.05,15.32,3.49,22.11s-2.81,12.64-6.74,17.56-9.29,8.61-16.07,11.08c-9.44,3.43-17.65,3.87-24.61,1.3-6.96-2.57-12.5-7.98-16.61-16.23l15.97-5.81c2.39,4.29,5.21,7.04,8.48,8.25,3.27,1.21,7.09,1.01,11.46-.58,5.58-2.03,9.07-5.67,10.46-10.92,1.39-5.25.6-12.03-2.37-20.32l-1.85-5.09c-3.04-8.35-6.92-14.08-11.64-17.2s-10.15-3.56-16.28-1.33c-6.16,2.24-10.08,5.15-11.75,8.73l4.99,13.73,14.93-5.43,4.4,12.09-31.34,11.39-11.55-31.78Z"/>
    <path class="cls-1" d="M1302.79,1562.75c-1.27-8.25-.93-15.7,1.02-22.36,1.95-6.66,5.38-12.1,10.29-16.31s10.87-6.86,17.88-7.95c6.94-1.07,13.39-.36,19.35,2.13,5.96,2.5,10.92,6.61,14.86,12.34,3.95,5.73,6.56,12.62,7.85,20.67l.64,4.14c1.27,8.24.91,15.73-1.09,22.46-2,6.73-5.46,12.19-10.37,16.38-4.91,4.19-10.85,6.83-17.83,7.91-6.98,1.08-13.44.36-19.39-2.16-5.94-2.52-10.89-6.68-14.83-12.49-3.94-5.81-6.55-12.82-7.81-21.03l-.58-3.74ZM1320.86,1563.84c1.36,8.78,3.96,15.21,7.81,19.29,3.85,4.08,8.69,5.67,14.52,4.76,5.79-.89,9.91-3.84,12.36-8.83,2.45-4.99,3.02-11.84,1.71-20.55l-.63-4.08c-1.32-8.55-3.92-14.94-7.79-19.17-3.87-4.23-8.76-5.89-14.67-4.98-5.79.9-9.89,3.86-12.29,8.88-2.4,5.02-2.95,11.89-1.64,20.6l.63,4.08Z"/>
    <path class="cls-1" d="M1211.73,1560.91c.33-8.34,2.1-15.58,5.3-21.75,3.2-6.16,7.61-10.84,13.23-14.03,5.62-3.19,11.98-4.64,19.08-4.36,7.02.28,13.21,2.22,18.58,5.81,5.37,3.59,9.44,8.58,12.21,14.97s4.02,13.65,3.73,21.79l-.17,4.19c-.33,8.33-2.13,15.61-5.39,21.83s-7.7,10.91-13.32,14.09c-5.62,3.17-11.96,4.62-19.02,4.33s-13.26-2.23-18.61-5.84c-5.35-3.61-9.4-8.65-12.15-15.11s-3.96-13.84-3.62-22.13l.15-3.78ZM1229.26,1565.45c-.36,8.88.96,15.69,3.96,20.43,2.99,4.74,7.44,7.23,13.33,7.47,5.85.24,10.46-1.86,13.83-6.29,3.36-4.43,5.24-11.04,5.63-19.84l.17-4.13c.35-8.65-.97-15.42-3.96-20.31-2.99-4.9-7.47-7.46-13.44-7.7-5.85-.24-10.44,1.88-13.77,6.35-3.33,4.47-5.18,11.1-5.58,19.9l-.17,4.13Z"/>
    <path class="cls-1" d="M1199.79,1518.21l-19.31,82.52-25.39-5.94c-7.25-1.7-13.36-4.85-18.32-9.46-4.96-4.61-8.34-10.3-10.14-17.08-1.8-6.78-1.8-14,0-21.67l.89-3.8c1.79-7.67,4.97-14.12,9.52-19.35,4.55-5.23,10.08-8.82,16.59-10.76,6.51-1.94,13.38-2.09,20.61-.44l25.56,5.98ZM1166.7,1582.97l12.89-55.09-8.22-1.92c-6.65-1.56-12.24-.57-16.77,2.95-4.53,3.52-7.78,9.32-9.75,17.39l-1.02,4.36c-1.96,8.39-1.71,15.15.75,20.29,2.46,5.14,7.04,8.49,13.73,10.06l8.39,1.96Z"/>
    <path class="cls-1" d="M1043.82,1485.42c-1.55,2.91-1.71,5.69-.48,8.35,1.23,2.65,4.05,6.26,8.48,10.83,4.43,4.57,7.75,8.53,9.98,11.86,6.06,9.11,7.02,17.55,2.88,25.33-2.15,4.04-5.2,7.04-9.17,9-3.96,1.96-8.55,2.69-13.76,2.21-5.21-.49-10.47-2.14-15.79-4.96-5.34-2.84-9.59-6.34-12.74-10.5-3.15-4.16-4.94-8.62-5.38-13.37-.44-4.76.54-9.38,2.92-13.87l15.42,8.2c-1.82,3.43-2.16,6.66-1.01,9.71,1.15,3.05,3.67,5.61,7.58,7.69,3.77,2,7.12,2.76,10.06,2.28,2.94-.48,5.1-2.03,6.48-4.63,1.29-2.43,1.15-5.12-.42-8.07-1.57-2.95-4.36-6.41-8.36-10.38-7.37-7.3-12.02-13.97-13.95-20.01s-1.35-11.97,1.75-17.79c3.44-6.48,8.59-10.25,15.45-11.33,6.86-1.08,14.43.59,22.72,4.99,5.76,3.06,10.44,6.9,14.05,11.52s5.68,9.42,6.21,14.41c.54,4.99-.48,9.9-3.05,14.73l-15.47-8.22c4.39-8.26,1.65-15.01-8.22-20.25-3.67-1.95-6.92-2.72-9.77-2.33-2.85.4-4.98,1.93-6.4,4.6Z"/>
    <path class="cls-1" d="M948.24,1438.71c5.21-6.52,10.92-11.32,17.15-14.39,6.23-3.07,12.55-4.23,18.97-3.47,6.42.76,12.41,3.35,17.96,7.78,5.49,4.38,9.33,9.61,11.53,15.69,2.2,6.08,2.53,12.51.98,19.29-1.54,6.79-4.84,13.38-9.9,19.77l-2.61,3.27c-5.2,6.52-10.96,11.32-17.27,14.4-6.31,3.08-12.67,4.24-19.08,3.46-6.41-.77-12.37-3.36-17.89-7.77-5.52-4.41-9.36-9.65-11.54-15.73-2.17-6.08-2.45-12.54-.85-19.37,1.61-6.83,5-13.5,10.18-19.99l2.36-2.96ZM959.68,1452.75c-5.54,6.94-8.51,13.21-8.91,18.81-.39,5.59,1.71,10.23,6.32,13.91,4.58,3.66,9.53,4.69,14.87,3.12,5.33-1.58,10.76-5.8,16.29-12.66l2.58-3.23c5.4-6.76,8.34-13,8.83-18.72.49-5.71-1.6-10.44-6.27-14.17-4.58-3.65-9.53-4.67-14.86-3.03-5.32,1.63-10.75,5.88-16.28,12.74l-2.58,3.23Z"/>
    <path class="cls-1" d="M857.78,1403.5l42.44-36.25c7.05-6.02,14.51-8.58,22.38-7.67,7.87.91,15.07,5.18,21.59,12.82,6.43,7.52,9.54,15.2,9.34,23.03-.2,7.83-3.75,14.76-10.63,20.8l-42.93,36.67-11.34-13.28,42.53-36.33c4.22-3.6,6.43-7.24,6.64-10.91.21-3.67-1.22-7.29-4.27-10.86-6.38-7.46-13.54-7.9-21.49-1.32l-42.88,36.63-11.38-13.32Z"/>
    <path class="cls-1" d="M879.38,1276.01l8.59,15.2-31.84,57.02,48.55-27.42,8.59,15.2-73.79,41.67-8.59-15.21,31.91-57.12-48.65,27.47-8.56-15.15,73.79-41.67Z"/>
    <path class="cls-1" d="M873.06,1261.02l-80.42,26.72-8.22-24.75c-2.35-7.07-2.86-13.92-1.53-20.56,1.33-6.64,4.41-12.5,9.25-17.58,4.83-5.08,10.99-8.86,18.46-11.35l3.7-1.23c7.48-2.48,14.63-3.15,21.47-2.01,6.84,1.14,12.79,3.98,17.85,8.51,5.06,4.53,8.78,10.31,11.16,17.33l8.28,24.91ZM800.55,1266.71l53.69-17.84-2.66-8.01c-2.15-6.48-5.92-10.73-11.29-12.75-5.37-2.02-12.01-1.75-19.92.79l-4.25,1.41c-8.17,2.72-13.81,6.47-16.9,11.26-3.09,4.79-3.55,10.44-1.39,16.96l2.72,8.17Z"/>
  </g>
</svg>